<mxfile modified="2020-11-17T17:16:33.854Z" host="183b8f40-bb97-46dd-a8c8-51435aa65a23" agent="5.0 (Macintosh; Intel Mac OS X 10_15_6) AppleWebKit/537.36 (KHTML, like Gecko) Code/1.51.1 Chrome/83.0.4103.122 Electron/9.3.3 Safari/537.36" etag="FK5hsn0xmKMCQ_GCMa3P" version="13.6.5">
    <diagram id="WI9T0HZ2pTsCkuznbFz-" name="Page-1">
        <mxGraphModel dx="-3" dy="1186" grid="1" gridSize="10" guides="1" tooltips="1" connect="1" arrows="1" fold="1" page="0" pageScale="1" pageWidth="1169" pageHeight="827" math="0" shadow="0">
            <root>
                <mxCell id="0"/>
                <mxCell id="1" parent="0"/>
                <mxCell id="RCJMpjR6mchD6mxSjPc7-33" value="https://upload.wikimedia.org/wikipedia/commons/thumb/1/17/Discourse_icon.svg/512px-Discourse_icon.svg.png" style="group;glass=0;" parent="1" vertex="1" connectable="0">
                    <mxGeometry x="570" y="-140" width="990" height="990" as="geometry"/>
                </mxCell>
                <mxCell id="RCJMpjR6mchD6mxSjPc7-21" value="" style="rounded=0;whiteSpace=wrap;html=1;perimeterSpacing=0;comic=0;glass=0;dashed=1;fillColor=none;" parent="RCJMpjR6mchD6mxSjPc7-33" vertex="1">
                    <mxGeometry x="20" y="20" width="970" height="970" as="geometry"/>
                </mxCell>
                <mxCell id="RCJMpjR6mchD6mxSjPc7-31" value="" style="group" parent="RCJMpjR6mchD6mxSjPc7-33" vertex="1" connectable="0">
                    <mxGeometry x="155" y="170" width="620" height="590" as="geometry"/>
                </mxCell>
                <mxCell id="RCJMpjR6mchD6mxSjPc7-30" value="" style="rounded=0;whiteSpace=wrap;html=1;fillColor=none;dashed=1;" parent="RCJMpjR6mchD6mxSjPc7-31" vertex="1">
                    <mxGeometry x="20" y="20" width="600" height="570" as="geometry"/>
                </mxCell>
                <mxCell id="RCJMpjR6mchD6mxSjPc7-8" value="Virtual Network" style="aspect=fixed;html=1;points=[];align=center;image;fontSize=12;image=img/lib/mscae/Virtual_Network.svg;" parent="RCJMpjR6mchD6mxSjPc7-31" vertex="1">
                    <mxGeometry width="50" height="28.000000000000004" as="geometry"/>
                </mxCell>
                <mxCell id="RCJMpjR6mchD6mxSjPc7-38" value="" style="group" parent="RCJMpjR6mchD6mxSjPc7-31" vertex="1" connectable="0">
                    <mxGeometry x="100" y="70" width="510" height="510" as="geometry"/>
                </mxCell>
                <mxCell id="RCJMpjR6mchD6mxSjPc7-36" value="" style="rounded=0;whiteSpace=wrap;html=1;fillColor=none;dashed=1;" parent="RCJMpjR6mchD6mxSjPc7-38" vertex="1">
                    <mxGeometry x="20" y="20" width="490" height="490" as="geometry"/>
                </mxCell>
                <mxCell id="RCJMpjR6mchD6mxSjPc7-59" value="&lt;div&gt;Pods&lt;/div&gt;&lt;div&gt;&quot;notifications&quot;, ...&lt;br&gt;&lt;/div&gt;" style="html=1;dashed=0;whitespace=wrap;fillColor=#2875E2;strokeColor=#ffffff;points=[[0.005,0.63,0],[0.1,0.2,0],[0.9,0.2,0],[0.5,0,0],[0.995,0.63,0],[0.72,0.99,0],[0.5,1,0],[0.28,0.99,0]];shape=mxgraph.kubernetes.icon;prIcon=pod;labelPosition=center;verticalLabelPosition=bottom;align=center;verticalAlign=top;opacity=30;" parent="RCJMpjR6mchD6mxSjPc7-38" vertex="1">
                    <mxGeometry x="373.87" y="420" width="50" height="48" as="geometry"/>
                </mxCell>
                <mxCell id="RCJMpjR6mchD6mxSjPc7-2" value="Kubernetes Service" style="aspect=fixed;html=1;points=[];align=center;image;fontSize=12;image=img/lib/mscae/Kubernetes_Services.svg;" parent="RCJMpjR6mchD6mxSjPc7-38" vertex="1">
                    <mxGeometry width="50" height="37" as="geometry"/>
                </mxCell>
                <mxCell id="2UT0oM7tgV36ymHJV0K3-20" style="edgeStyle=orthogonalEdgeStyle;rounded=1;orthogonalLoop=1;jettySize=auto;html=1;exitX=0.995;exitY=0.63;exitDx=0;exitDy=0;exitPerimeter=0;entryX=0.005;entryY=0.63;entryDx=0;entryDy=0;entryPerimeter=0;" parent="RCJMpjR6mchD6mxSjPc7-38" source="RCJMpjR6mchD6mxSjPc7-48" target="RCJMpjR6mchD6mxSjPc7-55" edge="1">
                    <mxGeometry relative="1" as="geometry">
                        <Array as="points">
                            <mxPoint x="455" y="148"/>
                            <mxPoint x="455" y="210"/>
                            <mxPoint x="245" y="210"/>
                            <mxPoint x="245" y="297"/>
                        </Array>
                    </mxGeometry>
                </mxCell>
                <mxCell id="RCJMpjR6mchD6mxSjPc7-48" value="&lt;div&gt;Pod&lt;/div&gt;&lt;div&gt;&quot;frontend&quot;&lt;br&gt;&lt;/div&gt;" style="html=1;dashed=0;whitespace=wrap;fillColor=#2875E2;strokeColor=#ffffff;points=[[0.005,0.63,0],[0.1,0.2,0],[0.9,0.2,0],[0.5,0,0],[0.995,0.63,0],[0.72,0.99,0],[0.5,1,0],[0.28,0.99,0]];shape=mxgraph.kubernetes.icon;prIcon=pod;labelPosition=center;verticalLabelPosition=bottom;align=center;verticalAlign=top;" parent="RCJMpjR6mchD6mxSjPc7-38" vertex="1">
                    <mxGeometry x="373.87" y="118" width="50" height="48" as="geometry"/>
                </mxCell>
                <mxCell id="2UT0oM7tgV36ymHJV0K3-13" style="edgeStyle=orthogonalEdgeStyle;rounded=1;orthogonalLoop=1;jettySize=auto;html=1;exitX=0.995;exitY=0.63;exitDx=0;exitDy=0;exitPerimeter=0;entryX=0.005;entryY=0.63;entryDx=0;entryDy=0;entryPerimeter=0;" parent="RCJMpjR6mchD6mxSjPc7-38" source="RCJMpjR6mchD6mxSjPc7-50" target="RCJMpjR6mchD6mxSjPc7-54" edge="1">
                    <mxGeometry relative="1" as="geometry"/>
                </mxCell>
                <mxCell id="2UT0oM7tgV36ymHJV0K3-14" style="edgeStyle=orthogonalEdgeStyle;rounded=1;orthogonalLoop=1;jettySize=auto;html=1;exitX=0.995;exitY=0.63;exitDx=0;exitDy=0;exitPerimeter=0;entryX=0.005;entryY=0.63;entryDx=0;entryDy=0;entryPerimeter=0;" parent="RCJMpjR6mchD6mxSjPc7-38" source="RCJMpjR6mchD6mxSjPc7-50" target="RCJMpjR6mchD6mxSjPc7-48" edge="1">
                    <mxGeometry relative="1" as="geometry"/>
                </mxCell>
                <mxCell id="RCJMpjR6mchD6mxSjPc7-50" value="&lt;div&gt;Service&lt;/div&gt;&lt;div&gt;&quot;frontend&quot;&lt;/div&gt;" style="html=1;dashed=0;whitespace=wrap;fillColor=#2875E2;strokeColor=#ffffff;points=[[0.005,0.63,0],[0.1,0.2,0],[0.9,0.2,0],[0.5,0,0],[0.995,0.63,0],[0.72,0.99,0],[0.5,1,0],[0.28,0.99,0]];shape=mxgraph.kubernetes.icon;prIcon=svc;labelPosition=center;verticalLabelPosition=bottom;align=center;verticalAlign=top;" parent="RCJMpjR6mchD6mxSjPc7-38" vertex="1">
                    <mxGeometry x="283.87" y="76" width="50" height="48" as="geometry"/>
                </mxCell>
                <mxCell id="2UT0oM7tgV36ymHJV0K3-19" style="edgeStyle=orthogonalEdgeStyle;rounded=1;orthogonalLoop=1;jettySize=auto;html=1;exitX=0.995;exitY=0.63;exitDx=0;exitDy=0;exitPerimeter=0;entryX=0.005;entryY=0.63;entryDx=0;entryDy=0;entryPerimeter=0;" parent="RCJMpjR6mchD6mxSjPc7-38" source="RCJMpjR6mchD6mxSjPc7-54" target="RCJMpjR6mchD6mxSjPc7-55" edge="1">
                    <mxGeometry relative="1" as="geometry">
                        <Array as="points">
                            <mxPoint x="455" y="58"/>
                            <mxPoint x="455" y="210"/>
                            <mxPoint x="245" y="210"/>
                            <mxPoint x="245" y="297"/>
                        </Array>
                    </mxGeometry>
                </mxCell>
                <mxCell id="RCJMpjR6mchD6mxSjPc7-54" value="&lt;div&gt;Pod&lt;/div&gt;&lt;div&gt;&quot;frontend&quot;&lt;br&gt;&lt;/div&gt;" style="html=1;dashed=0;whitespace=wrap;fillColor=#2875E2;strokeColor=#ffffff;points=[[0.005,0.63,0],[0.1,0.2,0],[0.9,0.2,0],[0.5,0,0],[0.995,0.63,0],[0.72,0.99,0],[0.5,1,0],[0.28,0.99,0]];shape=mxgraph.kubernetes.icon;prIcon=pod;labelPosition=center;verticalLabelPosition=bottom;align=center;verticalAlign=top;" parent="RCJMpjR6mchD6mxSjPc7-38" vertex="1">
                    <mxGeometry x="373.87" y="28" width="50" height="48" as="geometry"/>
                </mxCell>
                <mxCell id="2UT0oM7tgV36ymHJV0K3-15" style="edgeStyle=orthogonalEdgeStyle;rounded=1;orthogonalLoop=1;jettySize=auto;html=1;exitX=0.995;exitY=0.63;exitDx=0;exitDy=0;exitPerimeter=0;entryX=0.005;entryY=0.63;entryDx=0;entryDy=0;entryPerimeter=0;" parent="RCJMpjR6mchD6mxSjPc7-38" source="RCJMpjR6mchD6mxSjPc7-55" target="RCJMpjR6mchD6mxSjPc7-57" edge="1">
                    <mxGeometry relative="1" as="geometry"/>
                </mxCell>
                <mxCell id="2UT0oM7tgV36ymHJV0K3-16" style="edgeStyle=orthogonalEdgeStyle;rounded=1;orthogonalLoop=1;jettySize=auto;html=1;exitX=0.995;exitY=0.63;exitDx=0;exitDy=0;exitPerimeter=0;entryX=0.005;entryY=0.63;entryDx=0;entryDy=0;entryPerimeter=0;" parent="RCJMpjR6mchD6mxSjPc7-38" source="RCJMpjR6mchD6mxSjPc7-55" target="RCJMpjR6mchD6mxSjPc7-56" edge="1">
                    <mxGeometry relative="1" as="geometry"/>
                </mxCell>
                <mxCell id="RCJMpjR6mchD6mxSjPc7-55" value="&lt;div&gt;Services&lt;/div&gt;&lt;div&gt;&quot;api&quot;, ...&lt;br&gt;&lt;/div&gt;" style="html=1;dashed=0;whitespace=wrap;fillColor=#2875E2;strokeColor=#ffffff;points=[[0.005,0.63,0],[0.1,0.2,0],[0.9,0.2,0],[0.5,0,0],[0.995,0.63,0],[0.72,0.99,0],[0.5,1,0],[0.28,0.99,0]];shape=mxgraph.kubernetes.icon;prIcon=svc;labelPosition=center;verticalLabelPosition=bottom;align=center;verticalAlign=top;" parent="RCJMpjR6mchD6mxSjPc7-38" vertex="1">
                    <mxGeometry x="283.87" y="267" width="50" height="48" as="geometry"/>
                </mxCell>
                <mxCell id="RCJMpjR6mchD6mxSjPc7-56" value="&lt;div&gt;Pods&lt;/div&gt;&lt;div&gt;&quot;api&quot;, ...&lt;br&gt;&lt;/div&gt;" style="html=1;dashed=0;whitespace=wrap;fillColor=#2875E2;strokeColor=#ffffff;points=[[0.005,0.63,0],[0.1,0.2,0],[0.9,0.2,0],[0.5,0,0],[0.995,0.63,0],[0.72,0.99,0],[0.5,1,0],[0.28,0.99,0]];shape=mxgraph.kubernetes.icon;prIcon=pod;labelPosition=center;verticalLabelPosition=bottom;align=center;verticalAlign=top;" parent="RCJMpjR6mchD6mxSjPc7-38" vertex="1">
                    <mxGeometry x="373.87" y="315" width="50" height="48" as="geometry"/>
                </mxCell>
                <mxCell id="RCJMpjR6mchD6mxSjPc7-57" value="&lt;div&gt;Pods&lt;/div&gt;&lt;div&gt;&quot;api&quot;, ...&lt;br&gt;&lt;/div&gt;" style="html=1;dashed=0;whitespace=wrap;fillColor=#2875E2;strokeColor=#ffffff;points=[[0.005,0.63,0],[0.1,0.2,0],[0.9,0.2,0],[0.5,0,0],[0.995,0.63,0],[0.72,0.99,0],[0.5,1,0],[0.28,0.99,0]];shape=mxgraph.kubernetes.icon;prIcon=pod;labelPosition=center;verticalLabelPosition=bottom;align=center;verticalAlign=top;" parent="RCJMpjR6mchD6mxSjPc7-38" vertex="1">
                    <mxGeometry x="373.87" y="220" width="50" height="48" as="geometry"/>
                </mxCell>
                <mxCell id="2UT0oM7tgV36ymHJV0K3-6" style="edgeStyle=orthogonalEdgeStyle;rounded=1;orthogonalLoop=1;jettySize=auto;html=1;exitX=1;exitY=0.5;exitDx=0;exitDy=0;entryX=0.005;entryY=0.63;entryDx=0;entryDy=0;entryPerimeter=0;" parent="RCJMpjR6mchD6mxSjPc7-38" source="2UT0oM7tgV36ymHJV0K3-1" target="RCJMpjR6mchD6mxSjPc7-55" edge="1">
                    <mxGeometry relative="1" as="geometry">
                        <Array as="points">
                            <mxPoint x="245" y="190"/>
                            <mxPoint x="245" y="297"/>
                        </Array>
                    </mxGeometry>
                </mxCell>
                <mxCell id="2UT0oM7tgV36ymHJV0K3-12" style="edgeStyle=orthogonalEdgeStyle;rounded=1;orthogonalLoop=1;jettySize=auto;html=1;exitX=1;exitY=0.5;exitDx=0;exitDy=0;entryX=0.005;entryY=0.63;entryDx=0;entryDy=0;entryPerimeter=0;" parent="RCJMpjR6mchD6mxSjPc7-38" source="2UT0oM7tgV36ymHJV0K3-1" target="RCJMpjR6mchD6mxSjPc7-50" edge="1">
                    <mxGeometry relative="1" as="geometry">
                        <Array as="points">
                            <mxPoint x="245" y="190"/>
                            <mxPoint x="245" y="106"/>
                        </Array>
                    </mxGeometry>
                </mxCell>
                <mxCell id="2UT0oM7tgV36ymHJV0K3-1" value="NGINX Ingress" style="shape=image;verticalLabelPosition=bottom;verticalAlign=top;imageAspect=0;aspect=fixed;image=data:image/png,iVBORw0KGgoAAAANSUhEUgAABQMAAAXACAYAAADiO1pAAAAUPnpUWHRSYXcgcHJvZmlsZSB0eXBlIGV4aWYAAHjarZpZcuS6kkT/sYpeAuZhORjNegdv+X0cpFSq+V7rJ5WUWSQTBCM8PNwBmf2f/z3mf/hK0XsTU6m55Wz5ii0233lT7fPV7m9n4/39fAWb3qPfHTfTvic8h8K98H6V/ry6zvH07QMf93Dj++Omvmd8fQf6dufnRXf2vFlfJ8lx/xx38R2o7edNbrV8nerwz+t8L7xTeX9CuUN/DqL/m68HYiFKK3FV8H4HF+z9HZ8ZhOen85P57ULmOhcS730I5r60dyYE5LvH+3i19muAvgvyOu+j/Rj9z3c/BN/393j4IZb5Y6D86xMu/Tr4N8Rfbhzed4bD35041YWfHuf9OWfVc/bzdD1mIppfRFnzEZ07yFmDkIf7scx34Sfxvtzvxne13U6Ss+y0g+/pmvPc+hgX3XLdHbfv63STKUa/feHV++nDPVZD8c3PoDxFfbvjS2hhhUqypt8mBA77z7m4e9927zdd5c7Lcal3DOb4yG+/zZ9O/ptvc85UiJytT5zABfPyQi7TUOb0m6tIiDtv3tIN8Mf3m377BT9AlQymG+bKA3Y7niFGct+wFW6exQKJ16cqnCnrHYAQce/EZFwgAzaDfpedLd4X54hjJUGdmfsQ/SADLiW/mKSPgWoxxVeve/OZ4u61PvnsdRhuIhGJyirkpoVOsmJM4KfECoZ6CimmlHIqqZrUUs8hx5xyziWL5HoJJZZUcimlllZ6DTXWVHMttdZWe/MtwIGp5VZaba317k3nRp2xOtd3jgw/wogjjTzKqKONPoHPjDPNPMuss82+/AoLmlh5lVVXW307s2GKHXfaeZddd9v9gLUTTjzp5FNOPe30z6y5t2x//P4XWXNv1vzNlK4rn1njqCnlYwgnOknKGRnz0ZHxogwAaK+c2epi9MqccmYbbBaSZ5JJuTHLKWOkMG7n03GfufuWuX+UN5PqP8qb/1vmjFL338icIXU/5+0XWVvqc/Nm7KlCxdQGqo9ruq+GH2v59fU1zD42ZMUAy4ezViun9VVaS6XnMzNFTF89PZYzBhwUUjcn+L5tX8cN5nVETaW3MschcTHxj8DxKRezbxFAkFrfVp06pXa4W9veLpNKzHXHeuIeqww6m9078wE3GxBKaenulbMz6t2JrrRx9mmJ/3ZFo/fkm/GLUpmgBTT05VqIY8Vdw9kujOOCPrwsATxn7FQOrHsO4x6Ne0QZz7jmDmw1dK2CSQlzDA6mrrrYXJJLfK5p69Smd7uSjXLW8QzhokYvpkDzOkk1TJ6izH4fJRUAkNw8fm93UrtHv477jvo5pvky6DPmOyLCRmP+asR3vNHPDGNRJYNHNpYY88E1AynjPq0UsLIg1OVHF0GM7RSbSuIV7HTg9ckNSkgLSK5t6+nT0LiKh0HB3lCSE1Ev8XkX7e9e3U7UZeWZym7u7D3NOHPlMYHgCuWikFiUmZ/TH2ePS9MlUJrLbDsXno1HagXcUFwT8jYutTbtAz3I5AeMf7zCIZRjSa52S4HX+2HwWEYkusSt0bKJ7CYO40BkYHHUTIhvwr0HIsJRmWTGu0Q0S3dxbDTZalliYW23a31qrQ+q/96ZAtjlYnEeHvAIiV5DcaPzYFEoP2EG/g8Wq7BYhR/TKW49Y3FnZZ/QLW2evVonPF3QvlD4aew7MtF8cM7IJrgX6N8GJzIXoQnc1FZ4gn8wsPkYedxpEykYqc6RFaS6M6WT9yonjDkSBZbDPvaIUioUPkhZ2tBbnWaPnBeFFSF0Pwp3bt31Djf2lkdciNceCiiziNjoHRItr7lDWKTM9ilS67MNM/aGsKCaTkVTJvlBgvef4f/rKzqup8uQYSXlfw84bzfezubXPiVZOBvun4dZDx82+sxblUZVcSYitZ6Cn8s0le5yicAvWtAodZVCmQy36YpzwVqBtgAywV4K+0lHjUMVKwi0cQFCifQnhe8ZZfCe04mxS+m+vcBY4YzcO9D0orXuhTiNsgEmOjtPJR7G/DhudUa8mPvHqdPWhv6XV6HHMcD0lzEJ6jBU8mTyAxjSkYlc/lpk7pZ7hDkanDE91eNXznQTeCjQ7E6kucY2KNp77aax1jXplDRHu7urmVTk5b8f8XfEErY3VHXbiD7ay5h1ExKC4qNo00Jte6IfQFSh79YBlNKMzs8YCTMiMVFOcAI8YBbNLXy7LYnTw4krbkx6nDxJnaHK1JyfphdbPjaOkgyNaI1pK8YCHWFp/gGBAJr7HiCqK//z1LltLpu+Xxfk6KjKaTUZZlMgwZGM7WUv0pMdnZl+tl05aqALOTN6pGeidlY6zeGgi2spBiWYTwmXvkNdtncptsCcqT66uoP/ICcQPHtLvvLveBi28SjU5eppz5z8Zpa+tXiYCS70hI7koItYFyBAO+jivoy2LmuXEOjjawzO1QV7Y194lEa2TxRGI7dteaMMJu2GFm0ocGKAckJhETQUgWs9SA7EMJiMcBAiLQ5aqjVtK9oLNdHLVujgN6KXCi2bUDj1ECo2IXeCRO1uaTIlvkcIOwVYD2UGuRQ/1vhIcrc7fWsS5lVEvR6bSuVpZly9Dtfq8PCVPBYtVXpTnzmwgF1AGkFHzqtHunUoIViotsak6YS1R2unZjwLR+wCqpAt6sQzeWZfRet+DEevYVYRvgt7BA9mEbuGViX2YayCbd90lwGLUn4z4hhzQVEiRelIdExYAi/jMs4QKTh6RgLmOldtWAg3pVJ3jVBYPllB7eqsOMZRnBAZdxB+Qh7enYmSJYZxw80RDb3q0IQoWkCMft2VzM1+yXPbsMPfiXaMRCO9DOZDdeZS5VE3hx5RcbSM7a7uoIQth8e64gqADPjHAWo8JiyFTCCufd+BTzT2DPctiQci1pOCluERln1RLBRNDxDWoujRhCvxcPSkTIsj+NQXjBpNRjXmpUgxOPJWfDTJJ3D1uJYgUQvdFDl9iAf3j+Kd9GNMgOp6chbTQomgnMqCw1qkSlYY1AQPBMRVGBebtAM7u0fYkwWUxoooqJxptmu9kspn84ppKRREQLjRaXDWhNBPoxpxrNcneEk1KJzHG1frIo64hk5UqJdtagoE31HKaAHkSsAuwQxLogTVueguxPt2cC1qQSidTrylBekzamZFLULVD41QRVRVZkrMBA/zZAJVWdPvpNe31yfP5peJ3r5/wkQgkSt5ENKJ24QbINWrmyYsAjONp2jHAoPzYnA0/h1XPDZsh1oWrEptLtQC1lGSvlrJV3ss7mqLLuKGpbfJJcHwMD3/P2iIIP6rosCO+iRYdPyR4rAYjb13wKTKBhG1cChl/AsThnvNDE1IQHgnnUU2oZQZpBU3w+MC6t70pZpQL8fhH1we2/vl22boqOUUKMa0AK/ltQDk7J37FwwMYghLh5AImpFPA78Go8Co6HQMEy5gAGO67HBjULN+8mgOnIXheAHsqTixMzUeUcAD7Vbip2I6YKJmlAzv000Mro4c1JyHkUuIUkdCRnNXi897EY9HDWQyQbHaLnUED9ECeRD7E5jMRZOgBEnGQB+4yC4S9pcXEpedaLHlqK28hN6GH3oqYwM9bqgZm2Q/ZP/Pr2lhgDyP0pxgQ7OkNgINP9Fex0HPgf5ib8EYmh4EyindbLmbzYNmRYsC2Ttk6cIMfgit/PrG5p7H3wNqRYfBkAQB5XSdGgB/LktTYmzQXHHr9lxrd4pQEfCVFWMXEG8Mqg7Yg4cJugT7IMiUZgKIe5ZFw7hgx6BkoJmat8hepPvskbYAfVcnIbTk9AbdAH6JB6El1olzR5q6IzCI9BMX4IfVYUiUttJSMFE7tYp1rNRkijRXTxPUQmlbiZat4F/tXYLTjG2beIIkhosZxkJx2YjaouY2JIFXgevwlAF9vxC6PmImoFgzwSZqOGVH94I71JYxvLfNox5Q4AVnUOK5FmMF9O1Zu19w4CpgsjPoA8vk0QgrwlhE7APdmHZw6w4fXNBjW8I6Hjf7ww5WMV9Iie8xbMjiB4Sb/20BgP9DX76WbUQc+bH+Gr5e+dzFEUJ590ukdG3/LA8gsGk6f6DbsFobEqxYXJy2wGbwQ4X7/MVV2x+hfHFMlCZVnlQB5lclQGhp2vAJBLx2dhtKJ8O3ugA+2kGJvQsnjPusZJi+3bMaJO2DyvLv+geBVzOipZEuGm7AC9kw31WKtUArTOvVimkWC+PXEFkxFLqjzxN9klGiAjhRpbtIpTrKPbgW6iDoOD00SWBKbmTum6GuUqwz+DASmrOuoqQoVvQl/lxKCcJHz5aKQ4O14TgUgCXCKDkkaZzMmjoibwtPGyeMuR5pKe8Xm0Qu9B61RrumO0QTCINqqLbA76gRV5HLVcxEwROi4Jd5YtixUYWYoBPg6kN2Ecf5xH3xXDxSgRJSL3BSItQnKN4Z3YBV72jDauAOAPmo4KUawXFgMGvE44RVFiIOoPuCRyXA0EyHJ8+CvdZtghRFUVEYAqs1HtQpQgdbjS6liyBp/qWgMF8UBU95F6VG+Jue+IWaMJ9y4v+pJcynaPyqJH7QEY/c/Ko2v9MSV0mYKyW+KolPCr8q5Vl7/CBxyYCfiuOpDaPimBTktKVpRfFgDSaaMj+da0YkIw0EhmI6DuxLJ0RqpdVGm9v09iG5b8Zjq6p0hacgUpR5BeWpa506ak3Zov8D6YeZJCgc3QN1etyoaMvZi5yBAeRTvnEX+jys2TN0j1Ei20sSpuK+uOvurZ6sOlukEboqJaL1M1L49K1NKJ+5FkrCXTUkKz2U4WBRCgdbPAK5o39xZ0LfbsQE6vysgzm8Ku2lYTUQEa5CMrQ5QVc9tyqMeGBcMYzcTpkYkmuytKCetBmDP8e1zpKjewVDM69eeNWCFplDokOKiieR+0lMANOrf7+w7CVZ8+9ZVuz+6IWXZS/JmisI7LNI+NTNv+NamsUFlDkPnr5n2ovl9qxlX67l4b5n20+ufZyZD2aD2k8LBgVpkarKSUO00GYXKHbzNVBGXkuEqTJNpBvGVGt2XjvHpM3ARTnWtZrDKiYyvCGm3anu6fO2G8vUgYknhUgmUILNFjr31eSybogKfKuh6cMRc1CHON5KSEgTlAzyttY471I0c9RmipAKvgBYn447nvgu7YWA8UPTA1Mxzl7xUWHLv5yTa8oFU6Y2DlUWNUamcdSMm9pt+NCUy/woKv+sKROdqFG05Ne11WtB0SCPupui2ljh3BXhdbSeJ0rCtlx/80HUg6GmfLVyiM5CyGhLSatOkgCJDx+tV5gbNQQR0oMRhzpSwUvCDBGrUHKHORuEIGrSgmQAKXtIQg4tRV/ao/YmYlQbO51KgZW0JeIRctxh5pa9bylVuBYCYLJUBvYYsoB+4SsUnc92es81lVoj1UViEdW6UUBSThJwU8wZZGXzhojC3GkneJJZ6XIKzAZsSJWxmTCAqc3HpoV12GHFCGS1/tdG9pjfCmQsaniH/CCYAX9azvey9B1POzcq4JC6hPzN4eoI/LpoiZCkfWDXerQUh2IPsSfgrnaNM0xcjALQUhWPBmPQrrv20Qnk2JgYVAUThvMc7FnJGLxW0X5h1LukgEksEgcOrs1aHOnLMLGHcZCCsYru/aZuKezYxlas010C5hAC2BE3Lz+hkei6MUrfLJezSfjJrjWwR24pRErwBDe0OAYH7s5RF/Qpotm6xr5NjzhzaPUWUQHap130DEsuPN0esuHaehd9tSxPtcHMaDBA7dea1c375wnqBxG6mA0gSOg3owXlgB6Wh/YzEwZtwMofHSYa6UfNkeRMJwhacNECbikqNB717X0ojmZ+YlbEr5aTWw2dScCXEDP+p+X6xwVg82e6/sMrg1dXR+vkFiQbLbT2pL/vKNqr3Y0eHTZZ2xIzaDyc2rkFRBvBzFwD/+77fT1rSLuW4dUwwb06BSQ66f5UnHYIqEpxvJ7xrraDFYzmuw2jlLxbnIbkaH1f+zT0Da9leK2ev2IGU0j1hEgP8X8e1nw/7j8YdldtP6cRycKIIKZhuUc2AbqJzreWIYGqhUfafkJwIhEW2kWb7nQDSG68S6v6G5ifOdT8nlxBpsQTooM2MbbTAnjHBqeOjESjJ6380jXihKQnOltmDgVLydMulBk6mD2PpXLh8d3T5vgEGLdL08GNbipLCzdNarh340la0RYMwl5rMlObLUnG+JEUcT3viED4tlVHiOyz2YMZuecNRNAkipFS+4yGVsieOt0lwYR3+Jixw7SwZ/vMr2cj7bxj6C+WNIR5d3uf89/d4+MWRSuYKD0YoaNlsTEbBfaU2coFu5CeYH/bfJ3IYXyudwVdi9bkkyQP1nTEGBE6Kc+2lrbyHP57lqYFQ607NW9Ehdp2IHRFG84DVfC41/T03d24EhII2nzTPtfU6lZqWnPF+2qNU4ukBsBoSzViR93D8Db+vtVmzM3wLcAL0Cs9y2fGZJ7WxCw2t/AnOeSK4e6WFqVMEUsSNkUezwVr4nnovHilwMNrg0E7/U4r3QGhBYlhC9p9sLcYAf2zIol6J+fSqGgnCpvBTnY4BEbQ6vDgFGLSt20NhmkmtFX2s+9tx6DBCsGAFHJD6CM8AmI+lWsQeZjuO94ChEew2aVxF7L6qpE4x99XUu9+Xm+Pxw5xc6DaVle1Uhkd8tcm+WuoABcEAN+VEJUKvAW3WYih6CaCyUNT/XSt/ZWUJb5bhrf6qtHM5oJNzH5ajLDiGe9mpAvXbpV6dyNFKw8Ehg+lorJHxBAS+4WCJHfN+PFMVw7o/VOGLx++qB/98681wrybqBdnuIVLrkyxbW+C1jzXLOKq8G5m3tw/a5FP9pFk799yfP71COZIfJ2uHOIhTFjbIr3t0p/xcGTQ5YfT39VpixPzhpss+mOovuA9mIJB0Qn3Hd5mTbf36KVdl/1tkTD/zlBw+9XM/wHxI3+TICc3rgAAAYVpQ0NQSUNDIHByb2ZpbGUAAHicfZE9SMNAHMVfU7Ui9QMsKOKQoTpZEBVx1CoUoUKoFVp1MLn0C5o0JCkujoJrwcGPxaqDi7OuDq6CIPgB4uTopOgiJf4vKbSI9eC4H+/uPe7eAUK1yDSrbRzQdNtMxKJiKr0qBl7RgT70YAB9MrOMOUmKo+X4uoePr3cRntX63J+jW81YDPCJxLPMMG3iDeLpTdvgvE8cYnlZJT4nHjPpgsSPXFc8fuOcc1ngmSEzmZgnDhGLuSZWmpjlTY14ijisajrlCymPVc5bnLVimdXvyV8YzOgry1ynOYwYFrEECSIUlFFAETYitOqkWEjQfrSFf8j1S+RSyFUAI8cCStAgu37wP/jdrZWdnPCSglGg/cVxPkaAwC5QqzjO97Hj1E4A/zNwpTf8pSow80l6paGFj4DebeDiuqEpe8DlDjD4ZMim7Ep+mkI2C7yf0Telgf5boGvN662+j9MHIEldxW+Ag0NgNEfZ6y3e3dnc279n6v39ACW0coi+tHUDAAAABmJLR0QA+AD4APiJtvilAAAACXBIWXMAAAsTAAALEwEAmpwYAAAAB3RJTUUH5AYQDhcd8kOUTgAAIABJREFUeNrs3U9spPl5J/bv00WzmouZkFgJiDVGQirQ2AIWGHIEaWNDaxUtwIAiHdg+REIOAQnIh2RzIHMIfLAMlnf3YJ+aQSLtyWgql8TJgfRB3pzcJS+MXWAXZtlIAMs2wNLBshaQNlIkRJr2zjCHX/VMz3T3DMnmn/rz+QADzZBsvuynanpefd/3/T51dnYWgElW//w/T846Sc6SRz9NuneTszeTdNoXPPppsng3eZSkm+Txp87e87nFJG8luVPtc3/3k2RxKcl/aL+g3nr6OG8muZOnj7NYyVtn7znOUvLo7NnHefJnftdxnviZP+g4b9U7P/N7j/Os2dRbyRuPzjmb8XHeO5vHx3nWbJ73GjxzNpd5DS4wm8u8Bs+azVW/Bhd6f17iNbjQbN7nNbiK9+f7vQYXeX9e5jW4yPvzMq/BJP8Z0U3yxuP/HX88ldRZcvbmRtLZSLKW1EZytjL+U3UtldXk7Ic5y/CJP24HOasf5OxsmE4NcnaWnFXyd+Ofuf3a8Yzyzu/z0U/acevxz1lv/z7P/vG/8h8xAIAJs2AEAAAzYSXJvfFfm6mF5Xd/ut7z5bWcSu+JD/Tal7z9dd9Mcjz+a2S8AACz4Y4RAABMtbUkh+ku/T+pepDKVlLLL/xdq3q5k/vp1mmSQZIdowYAmH7CQACA6bSW5LCFdbV9rUeq6qXqQdodgptGDwAwvYSBAADTZSVJ/0ZCwPeqrKZTD9PuFFzzUgAATB9hIADA9NjJ4tIwVfu3+lNU9caPDx+khZMAAEwJYSAAwOTbTDIYdwKuTsxPVdlN9+4o+gQBAKaGMBAAYHKtJTlMpx6mqjeZP2Itj/sEh9EnCAAw8YSBAACTqZ9uhjfeC3hptT7uEzyOPkEAgIm1YAQAABPlXpKDVK1O5U9f2Uq3tnJ29tt18PpBFu/+IEnyVpJOkjeSLLYvTL2ZnN1J8mY7LX30k+RnlpJK8tZZu2z9aPz1j36aLN5tn3szyZ1KHp29+3PvOs7jjz1xnEdJFusZx3nG93p8nCd/5iePkzeT6rz7OO/6mZ84zp2zc/7Mz5nN4+M8czbj47zobK7yNXjWbK7yNeguPj2beX0NLvL+vMxr8KzZXOY1uNBsLvMaXNGfEc99Da7oz4jnvQYXfX8+7zV4gffn2T/+V/7rC3PEnYEAAJNhI8kg6RxNVC/gpUPB2s/i0jD6BAEAJoowEADgdq0kOUwtnExuL+AlVVbHfYKD6BMEAJgIwkAAgNuz17bxTksv4CVV9cZ9gofRJwgAcKuEgQAAN28zySh3cj+p5fn5bdd2W4qSvrcAAMDtEAYCANyctSSDdOrhTPQCXkotp2o/yShtWQoAADdIGAgAcP1WkhykW6cz1wt4WZXVpHOU1ie4YSAAADdDGAgAcL120r07SmXXKJ6hqpdaOElykBaaAgBwjYSBAADXYzPJsG3TnadewEuq7LZlKtkzDACA6yMMBAC4WmtJjtv23Fo3jouo5bZUJaO0MBUAgCsmDAQAuBorSfrpZpjKlnG8gMpqC1MzSAtXAQC4IsJAAIAXt5PFpWHbkuuR4CtT1Uu3TpP0o08QAOBKCAMBAC5vM8kgVQ/adlyuRdX+uE9wxzAAAF6MMBAA4OJWkhymUw9T1TOOm1DLbRlLhtEnCABwacJAAICL6be71GrbKG5DrY/7BI+jTxAA4MKEgQAA53MvyUgv4ISobKWbYfQJAgBciDAQAOD9bSQZJJ0jvYCTppZTtZ/FpWH0CQIAnIswEADg2VaSHKQWTvQCTrjK6rhPcBB9ggAA70sYCADwtL10745S2TWKKVLVG/cJHsajwwAAzyQMBAB4x2aSUe7kvl7AaVbbbclL+mYBAPBuwkAAgLaV9jideqgXcFaM+wSTUdryFwAAIgwEAObbSpJ+unWaypZxzKDKatI5SusTXDMQAGDeCQMBgHm103oBa98o5kBVL906TXIQfYIAwBwTBgIA82YzybBtn9ULOHcqu+M+wT3DAADmkTAQAJgXa0kO27bZWjeOeVbLbUlMRmnhMADA3BAGAgCzbtwLmGFS28bB2yqrLRzOcfQJAgBzQhgIAMyynSwuDVsvoEeCeY7K1rhPsB99ggDAjBMGAgCzaCPJIFUP2jZZOIeq/XGf4I5hAACzShgIAMySlSSHqYWTVPWMg4ur5bZcJsPoEwQAZpAwEACYFf12V5deQK5CrY/7BA+jTxAAmCHCQABg2t1LMtILyPWo7bZ8Rp8gADAbhIEAwLRaSzJIOkd6AbletZyq/SwuDaNPEACYcsJAAGDarCQ5SLdO9QJyoyqr4z7BQdqSGgCAqSMMBACmyV66d0ep7BoFt6aql1o4SesT9OgwADBVhIEAwDTYTDLMndzXC8jkqO22tCZ9swAApoUwEACYZGtJjttW11o3DibPuE8wGaWF1gAAE00YCABMopUk/dYLmC3jYOJVVltonUFaiA0AMJGEgQDApNlpvYC1bxRMnapeunWa5CD6BAGACSQMBAAmxWaSQdvWqheQKVfZHfcJ7hkGADBJhIEAwG1bS3KYTj1MVc84mB213JbeZBh9ggDAhBAGAgC3ZdwLmGFS28bB7Kr1cZ/gcfQJAgC3TBgIANyGe1lcGrZeQI8EMycqW+M+wX70CQIAt0QYCADcpI0kg6RzlMqqcTCXqvbHfYI7hgEA3DRhIABwE1aSHKYWTvQCQpLUcluWk0H0CQIAN0gYCABct367C0ovIDylqjfuEzyMPkEA4AYIAwGA67KZZKQXEM6jttsynfTNAgC4TsJAAOCqrSUZpFMP9QLCRdRyC88zSnLPPACA6yAMBACuykqSg3TrVC8gvIDKatI5SusT3DAQAOAqCQMBgKuwk+7dUSq7RgFXpKqXWjhJ6xNcMRAA4CoIAwGAF7GZZNi2ouoFhOtR220JT/bMAgB4UcJAAOAy1pIcty2otW4ccN1qOXdyP61PcNM8AIDLEgYCABexkqTfegGzZRxwwyqrLYTPIC2UBwC4EGEgAHBeO1lcGo63nQK3qaqXbp0mOYg+QQDgAoSBAMAH2UwySNWDtuUUmBiV3XGf4I5hAADnIQwEAJ5nLclhOvUwVT3jgElVy22JT4bRJwgAfABhIADwLP10M0xq2yhgWtT6uE/wOPoEAYDnEAYCAE+6l2TUegFr2ThgClW2xn2C/egTBADeQxgIACTJRpJB0jnSCwgzomo/i0vD6BMEAJ4gDASA+baS5DC1cKIXEGZQZXXcJziIPkEAIMJAAJhne20LqV5AmHlVvXGf4GE8OgwAc00YCADzZzPJKHdyXy8gzJvabhcB0jcLAJhPwkAAmB9rSQbp1EO9gDDParktCcoobWkQADBHhIEAMPtWkvTTrVO9gMDbKqtJ5yitT3DDQABgPggDAWC27aR7dzS+CwjgaVW91MJJkoPoEwSAmScMBIDZtJlk2LaI6gUEzqGyO+4T3DMMAJhdwkAAmC1rSY7b1tBaNw7gYmq5LRfKKO2iAgAwY4SBADAbxr2AGaayZRzAC6mstosKGaRdZAAAZoQwEACm304Wl4atF9AjwcAVquqlW6dJ+tEnCAAzQRgIANNrM8kgVQ/aVlCAa1K1P+4T3DEMAJhuwkAAmD4rSQ7TqYep6hkHcDNquS0lyjD6BAFgagkDAWC69NvdObVtFMDtqPVxn+Bx9AkCwNQRBgLAdLiXZKQXEJgYla10M4w+QQCYKsJAAJhsa0kGSedILyAweWo5VftZXBpGnyAATAVhIABMppUkB+nWqV5AYOJVVsd9goMkGwYCAJNLGAgAk2cv3bujVHaNApgqVb3UwkmSw3h0GAAmkjAQACbHZpJR7uS+XkBgutV2W3aUvlkAwGQRBgLA7VtLcpxOPdQLCMyOcZ9gMkpbggQATABhIADcnpUk/dYLmC3jAGZSZTXpHKX1Ca4ZCADcLmEgANyOndYLWPtGAcyFql66dZrkIPoEAeDWCAMB4GZtJhm2rZt6AYE5VNkd9wnuGQYA3DxhIADcjLUkh+nUw6TWjQOYb7XcliVllHaRBAC4IcJAALhe417ADJPaNg6AJ1RW20WSHEefIADcCGEgAFyfnSwuDVsvoEeCAZ6rsjXuE+xHnyAAXCthIABcvY0kg1Q9aFs0ATiXqv1xn+COYQDA9RAGAsDVWUlymFo4SVXPOAAuo5bbkqUMo08QAK6cMBAArka/3c2iFxDgatT6uE/wMPoEAeDKCAMB4MVsJhnpBQS4LrXdljDpEwSAqyAMBIDLWUsySKce6gUEuG61nKr9LC4Nk9wzDwC4PGEgAFzMSpKDdOtULyDADausJp2jJIO0ZU0AwAUJAwHg/PbSvTtKZdcoAG5RVS+1cJLWJ+jRYQC4AGEgAHywzSTD3Ml9vYAAk6S22/Km9M0CAM5HGAgAz7eW5Lhts6x14wCYROM+wWSUdvEGAHgfwkAAeNpKkn7rBcyWcQBMgcpqu3iTQdrFHADgGYSBAPBuO60XsPaNAmAKVfXSrdMkB9EnCABPEQYCQLOZZJCqB3oBAWZAZXfcJ7hnGADwDmEgAPNuLclhOvUwVT3jAJgltdyWP2UYfYIAkEQYCMD8GvcCZpjUtnEAzLJaH/cJHkefIABzThgIwDy6l8WlYesF9EgwwNyobI37BPvRJwjAnBIGAjBPNpIMks5RKqvGATCnqvazuDRMsmMYAMwbYSAA82AlyWFq4UQvIABJkspqWxqVQfQJAjBHhIEAzLq9tk1SLyAAz1DVG/cJHkafIABzQBgIwKzaTDJqWyT1AgLwQWq7LZVK3ywAmGXCQABmzVqSQTr1UC8gABdTy225VEZJ7pkHALNIGAjArFhJcpBuneoFBOCFVFaTzlFan+CGgQAwS4SBAMyCnXTvjlLZNQoArkxVL7VwktYnuGIgAMwCYSAA02wzybBtg9QLCMB1qe22jCp7ZgHAtBMGAjCN1pIct+2PtW4cAFy/Wm5LqTJKuxgFAFNJGAjANFlJ0m+9gNkyDgBuXGW1XYzKIO3iFABMFWEgANNiJ4tLw/GWRwC4XVW9dOs0yUH0CQIwRYSBAEy6zSSDVD1o2x0BYIJUdsd9gjuGAcA0EAYCMKnWkhymUw9T1TMOACZXLbdlVhlGnyAAE04YCMAk6qebYVLbRgHA9Kj1cZ/gcfQJAjChhIEATJJ7SUatF7CWjQOAqVTZahe10o8+QQAmjDAQgEmwkWSQdI70AgIwG2o5VftZXBpGnyAAE0QYCMBtWklykFo40QsIwEyqrI77BAfRJwjABBAGAnBb9tK9O0pl1ygAmHlVvXGf4GE8OgzALRIGAnDTNpOMcif39QICMH9qO927o7Q+QQC4ccJAAG7KWpJBOvVQLyAA823cJ5iM0pZnAcCNEQYCcN1WkvTTrVO9gADwhMpq0jlK6xPcMBAAboIwEIDrtNN6AWvfKADgOap6qYWTJAfRJwjANRMGAnAdNpMM2/ZEvYAAcC6V3XGf4J5hAHBdhIEAXKW1JMdtW2KtGwcAXFQttyVbGaVdXAOAKyUMBOAqjHsBM0xlyzgA4AVVVtvFtQzSLrYBwJUQBgLwonayuDRsvYAeCQaAK1XVS7dOk/SjTxCAKyAMBOCyNpIMUvWgbUMEAK5N1f64T3DHMAB4EcJAAC5qJclhauEkVT3jAICbUsttOVeG0ScIwCUJAwG4iH67K6G2jQIAbkutj/sED6NPEIALEgYCcB73koz0AgLAJKntdDOMPkEALkAYCMD7WUsySDpHegEBYBLVcqr2s7g0jD5BAM5BGAjAs6wkOUi3TvUCAsAUqKyO+wQHaUu+AOCZhIEAvNdeundHqewaBQBMmapeauEkrU/Qo8MAPEUYCMBjm0lGuZP7egEBYNrVdlv6lb5ZAPAkYSAAa0mO06mHegEBYJaM+wSTUdoyMAAQBgLMsZUk/dYLmC3jAIAZVVlNOkdpfYJrBgIw34SBAPNpp/UC1r5RAMCcqOqlW6dJDqJPEGBuCQMB5stmkmHbNqgXEADmUmV33Ce4ZxgA80cYCDAf1pIcplMPk1o3DgCYd7XcloZllHaxEIA5IQwEmG3jXsAMk9o2DgDgXSqr7WJhjqNPEGAuCAMBZte9LC4NWy+gR4IBgPdR2Rr3CfajTxBgpgkDAWbPRpJB0jlq2wMBAM6pan/cJ7hjGACzSRgIMDtWkhymFk5S1TMOAOByarktG8sg+gQBZo4wEGA29NtVfL2AAMAVqeqN+wQPo08QYGYIAwGm22aSkV5AAOD61HZbRqZPEGAWCAMBptNakkE69VAvIABw/Wo5VftZXBomuWceANNLGAgwXVaSHKRbp3oBAYAbV1lNOkdpfYIbBgIwfYSBANNjL927o1R2jQIAuFVVvdTCSVqfoEeHAaaIMBBg8m0mGeZO7usFBAAmS223JWbpmwXAdBAGAkyutSTHbYtfrRsHADCZxn2CySjtIiYAE0wYCDB5VpL0Wy9gtowDAJgKldV2ETODtIuaAEwgYSDAZNlpvYC1bxQAwFSq6qVbp0kOok8QYOIIAwEmw2aSQaoe6AUEAGZCZXfcJ7hjGACTQxgIcLvWkhymUw9T1TMOAGC21HK72Jlh9AkCTARhIMDt6aebYVLbRgEAzLZaH/cJHkefIMCtEgYC3Lx7Sca9gB4JBgDmSGVr3CfYjz5BgFshDAS4ORtJBknnKJVV4wAA5lbVfhaXhtEnCHDjhIEA128lyWFq4UQvIADAWGV13Cc4iD5BgBsjDAS4Xntti55eQACAZ6rqjfsED6NPEODaCQMBrsdmklHu5L5eQACA86jttlwtfbMAuD7CQICrtZZkkE491AsIAHBRtdyWrGWUtnQNgCsmDAS4GitJDtKtU72AAAAvqLKadI7S+gQ3DATg6ggDAV7cTrp3R6nsGgUAwBWq6qUWTtL6BFcMBODFCQMBLm8zybBtwdMLCABwfWq7LWXLnlkAvBhhIMDFrSU5blvvat04AABuQi235WwZpV2UBeAShIEA57eSpN96AbNlHAAAt6Cy2i7KZpB2kRaACxAGApzPThaXhuPtdgAA3LaqXrp1mqQffYIA5yYMBHh/m0kGqXrQttoBADBRqvbHfYI7hgHwwYSBAM+2kuQwnXqYqp5xAABMslpuS90yjD5BgPclDAR4Wr9dXa5towAAmCa1Pu4TPI4+QYBnEgYCvONeklHrBaxl4wAAmFKVrXQzjD5BgKcIAwGSjSSDpHOkFxAAYFbUcqr2s7g0jD5BgLcJA4F5tpLkILVwohcQAGBGVVbHfYKD6BMEEAYCc2sv3bujVHaNAgBgDlT1xn2Ch/HoMDDHhIHAvNlMMsqd3NcLCAAwj2q7LYtL3yyAeSQMBObFWpJBOvVQLyAAwLwb9wkmo7QlcgBzQxgIzLqVJP1061QvIAAA71JZTTpHaX2CGwYCzANhIDDLdlovYO0bBQAAz1XVSy2cJDmIPkFgxgkDgVm0mWTYtsbpBQQA4Jwqu+M+wT3DAGaVMBCYJWtJDtuWuFo3DgAALq6W27K5jNIuMgPMFGEgMAvGvYAZJrVtHAAAvLDKarvInOO0i84AM0EYCEy7nSwuDVsvoEeCAQC4YpWtdOs0ST/6BIEZIAwEptVGkkGqHrQtcAAAcI2q9sd9gjuGAUwzYSAwbVaSHKYWTlLVMw4AAG5OLbcldRlGnyAwpYSBwDTpt6uxegEBALhNtT7uEzyMPkFgyggDgWlwL8lILyAAAJOlttsSO32CwPRYMAKYk9OUr/3DJJ2k3krOOknOkkdJuknezDuXBh79NFm82z63WMlbZ0knyVuV/N1PksWl5NFZspjkrSR3avy9fpp07yZnb75znDcevfO9znOcO5Wc5cnjrGUxh6lOL+U1BABgIs+0l1PZz+LSTnLWT7tbEGBiuTMQmEQrSQ7SrVO9gAAATIXK6rhPcJC27A5gIgkDgUmzl+7dUSq7RgEAwNSp6qUWTtLuEPToMDBxhIHApNhMMsqd3NcLCADA9KvttvwufbMAJokwELhta0mO06mHqawaBwAAs6OW2xK8jNKW4gHcOmEgcFtWkvRbL2C2jAMAgJlVWU06R2l9gmsGAtwmYSBwG3ZaL2DtGwUAAHOjqpdunSY5iD5B4JYIA4GbtJlk0Las6QUEAGBOVXbHfYJ7hgHcNGEgcBPWkhy2XsDqGQcAANRyW56XYdpFc4AbIQwErtO4FzDDpLaNAwAA3qvW06mHSY6jTxC4AcJA4Lrcy+LSsPUCeiQYAADeV2Vr3CfYjz5B4BoJA4GrtpFkkHSO2tY0AADg3Kr2x32CO4YBXAdhIHBVVpIcphZO9AICAMCLqOW2dC+D6BMErpgwELgK/Xb1Ui8gAABcmareuE/wMPoEgSsiDARexGaSkV5AAAC4TrXdlvLpEwRenDAQuIy1JIN06qFeQAAAuAm1nKr9LC4Nk9wzD+CyhIHARawkOUi3TvUCAgDALaisJp2jtD7BDQMBLkoYCJzXXrp3R6nsGgUAANyyql5q4SStT9Cjw8C5CQOBD7KZZJg7ua8XEAAAJk1tt2V+2TML4DyEgcDzrCU5btvLat04AABgUtVyu3ifUdrFfIDnEgYC77WSpN96AbNlHAAAMCUqq+1ifgZpF/cBniIMBJ60k8WlYar2jQIAAKZUVS/dOk1yEH2CwHsIA4GkPUowSNWDtp0MAACYepXdcZ/gjmEAjwkDYb6tJTlMpx6mqmccAAAwa2o5VQ+SDKNPEIgwEOZZP90Mk9o2CgAAmHW1Pu4TPI4+QZhrwkCYP/eSjFovYC0bBwAAzJHK1rhPsB99gjCXhIEwPzaSDJLOkV5AAACYc1X7WVwaRp8gzN+//rm/8fRHF38mSSep93z8LMmjJItJ6q3kjUfJ4t32sW6SN9sva1/303c+t1jJW2fJnWqf+7ufJItLyaOzd77X2fgXPvpp0r2bnD3+Zs/5Xs88TpK38vRx8h/Gv59nHOfNvBOJfuBxnviZ33ucJ3/m583mg47zVj09m8fHOc9srvo1uNBsLvMaXGA27/caPGs2V/kaXOT9eZnX4Mren899DVbSvXvgcWAAAOCZzs6+mbfSTyeDvJGc7f0rM4EZ5s5AmG17bXuYIBAAAHiOqt64T/Aw+gRh5i0YAcykzSSHuZPVp2/xBQAAeJbaTvfsXn3tlw6S6qfeTM7upD2ytJA8+knyM0vt/2K8ddZuL3r8dNLjp5Vq/OV36p2nrR5/LmlPMXWSvPH4Y5W3j/P4KainjvOM7/X4OJ0kb+Tp4+TNpDrvPs67fuYnjnPn7Jw/8/g4T/7MTx7nmbMZH+dFZ3OVr8GzZnOVr0F38enZzOtrcJH350Vfg+5ikjvteyTtKd9HnSQ//cB/090ZCLNlLckgnXqoFxAAALi4Wm7LBjNKWz4IzBhhIMyGlST9dOs0VT3jAAAAXkhlNekcJRmkLSMEZoQwEKbfTrp3R+OrdwAAAFenqpdaOElykHYTAjDlhIEwvTaTDFP1IKll4wAAAK5NZbctJ8yeYcB0EwbC9FlLcty2fdW6cQAAADejlnMn99P6BDfNA6aTMBCmx7gXMMNUtowDAAC4FZXVdnNCBmk3KwBTRBgI02Eni0vD1gvokWAAAGACVPXSrdMk/egThKkhDITJtplkkKoHbZsXAADAhKnaH/cJ7hgGTD5hIEymlSSH6dTDVPWMAwAAmGy13JYbZhh9gjDRhIEwefrtqlptGwUAADBdan3cJ3gcfYIwkYSBMDnuJRnpBQQAAKZeZSvdDKNPECaOMBBu30aSQdI50gsIAADMjlpO1X4Wl4bRJwgTQxgIt2clyUFq4UQvIAAAMLMqq+M+wUH0CcKtEwbC7dhL9+4olV2jAAAA5kJVb9wneBiPDsOtEQbCzdpMMsqd3NcLCAAAzKfabksT0zcLuHnCQLgZa0mO06mHegEBAADGfYLJKG2ZInBDhIFwvVaS9NOt01S2jAMAAOAJldWkc5TWJ7hmIHD9hIFwfXZaL2DtGwUAAMD7qOqlW6dJDqJPEK6VMBCu3maSYduWpRcQAADg3Cq74z7BPcOA6yEMhKuzluSwbceqdeMAAAC4jFpuSxczSrvZArhCwkB4ceNewAyT2jYOAACAK1BZbTdb5Dj6BOHKCAPhxexkcWnYegE9EgwAAHDlKlvjPsF+9AnCCxMGwuVsJBmk6kHbfgUAAMC1qtof9wnuGAZcnjAQLmYlyWFq4SRVPeMAAAC4SbXcljVmGH2CcCnCQDi/frsKpRcQAADgdtX6uE/wMPoE4UKEgfDB7iUZ6QUEAACYNLXdljnqE4TzEgbC860lGSSdI72AAAAAk6qWU7WfxaVh9AnCBxIGwtNWkhykW6d6AQEAAKZEZXXcJzhIW/oIPIMwEN5tL927o1R2jQIAAGAKVfVSCydpfYIeHYb3EAZCs5lkmDu5rxcQAABgFtR2WwKZvlnAO4SBzLu1JMdtC1WtGwcAAMAsGfcJJqO0m0Bg7gkDmVcrSfqtFzBbxgEAADDDKqvtJpAM0m4KgbklDGQe7bRewNo3CgAAgDlS1Uu3TpMcRJ8gc0oYyDzZTDJo26X0AgIAAMytyu64T3DPMJg3wkDmwVqSw3TqYap6xgEAAEBSy22JZIbRJ8gcEQYyy8a9gBkmtW0cAAAAPK3Wx32Cx9EnyBwQBjKr7mVxadh6AT0SDAAAwAeobI37BPvRJ8gMEwYyazaSDJLOUSqrxgEAAMCFVO2P+wR3DINZJAxkVqwkOUwtnOgFBAAA4MXUcls+mUH0CTJjhIHMgn67aqMXEAAAgCtU1Rv3CR5GnyAzQhjINNtMMtILCAAAwPWq7bacMn2zYNoJA5lGa0kG6dRDvYAAAADcjFpuN6NklOSeeTCthIFMk5UkB+nWqV5AAAAAbkVlNekcpfUJbhgI00YYyLTYSffuKJVdowAAAODWVfVSCydpfYIrBsK0EAb6K471AAAgAElEQVQy6TaTDNsWJ72AAAAATJrabksts2cWTANhIJNqLclx29pU68YBAADA5Krl3Mn9tD7BTfNgkgkDmTQrSfqtFzBbxgEAAMDUqKy2m1oySLvJBSaOMJBJspPFpeF4OxMAAABMp6peunWa5CD6BJkwwkAmwWaSQaoetK1MAAAAMAMqu+M+wR3DYFIIA7lNa0kO06mHqeoZBwAAALOnlttSzAyjT5AJIAzktvTTzTCpbaMAAABg9tX6uE/wOPoEuUXCQG7avSSj1gtYy8YBAADAXKlsjfsE+9EnyC0QBnJTNpIMks6RXkAAAADmXtV+FpeG0SfIDRMGct1WkhykFk70AgIAAMATKqvjPsFB9AlyQ4SBXKe9dO+OUtk1CgAAAHiOqt64T/AwHh3mmgkDuQ6bSUa5k/t6AQEAAOC8ajvdu6O0PkG4FsJArtJakkE69VAvIAAAAFxGLbelmxmlLeGEKyUM5CqsJOmnW6d6AQEAAOAKVFaTzlFan+CGgXBVhIG8qJ3WC1j7RgEAAABXrKqXWjhJchB9glwBYSCXtZlk2LYe6QUEAACAa1XZHfcJ7hkGL0IYyEWtJTluW45q3TgAAADgptRyW9aZUdpNOnBhwkDOa9wLmGEqW8YBAAAAt6Sy2m7SySDtph04N2Eg57GTxaVh6wX0SDAAAABMhKpeunWapB99gpyTMJD3s5lkkKoHbYsRAAAAMHGq9sd9gjuGwQcRBvIsK0kO06mHqeoZBwAAAEy6Wm5LPjOMPkHehzCQ9+q3qwm1bRQAAAAwbWp93Cd4HH2CPIMwkMfuJRnpBQQAAIAZUNlKN8PoE+Q9hIGsJRkknSO9gAAAADBLajlV+1lcGkafIGPCwPm1kuQg3TrVCwgAAAAzrLI67hMcJNkwkPkmDJxPe+neHaWyaxQAAAAwJ6p6qYWTJIfx6PDcEgbOl80ko9zJfb2AAAAAMK9quy0PTd8s5o8wcD6sJTlOpx7qBQQAAADe7hNMRmlLRZkTwsDZtpKk33oBs2UcAAAAwLtUVpPOUVqf4JqBzD5h4Ozaab2AtW8UAAAAwPuq6qVbp0kOok9wpgkDZ89mkmHbEqQXEAAAALiAyu64T3DPMGaTMHB2rCU5TKceJrVuHAAAAMDl1HJbPppR2k1HzBBh4PQb9wJmmNS2cQAAAABXorLabjrKcfQJzgxh4HTbyeLSsPUCeiQYAAAAuAaVrXGfYD/6BKeeMHA6bSQZpOpB2/oDAAAAcM2q9sd9gjuGMb2EgdNlJclhauEkVT3jAAAAAG5WLbelpRlGn+BUEgZOj35L3/UCAgAAALet1sd9gofRJzhVhIGTbzPJSC8gAAAAMHlquy011Sc4LYSBk2stySCdeqgXEAAAAJhctZyq/SwuDZPcM4/JJgycPCtJDtKtU72AAAAAwNSorCadoySDtOWnTCBh4GTZS/fuKJVdowAAAACmUlUvtXCS1ifo0eEJIwycDJtJhrmT+3oBAQAAgNlQ220ZavpmMTmEgbdrLclx275T68YBAAAAzJZxn2AySrsZilsmDLwdK0n6rRcwW8YBAAAAzLTKarsZKoO0m6O4JcLAm7fTegFr3ygAAACAuVLVS7dOkxxEn+CtEAbenM0kg1Q90AsIAAAAzLXK7rhPcM8wbpYw8PqtJTlMpx6mqmccAAAAAElSy22ZaobRJ3hjhIHXZ9wLmGFS28YBAAAA8Cy1Pu4TPI4+wWsnDLwe97K4NGy9gB4JBgAAAPhAla1xn2A/+gSvjTDwam0kGSSdo1RWjQMAAADggqr2s7g0TLJjGFdPGHg1VpIcphZO9AICAAAAvKDKalvCmkH0CV4pYeCL22vbb/QCAgAAAFypqt64T/Aw+gSvhDDw8jaTjNrWG72AAAAAANenttuS1vTN4sUIAy9uLckgnXqoFxAAAADgptRyW9aaUZJ75nE5wsDzW0lykG6d6gUEAAAAuCWV1aRzlNYnuGEgFyMMPJ+ddO+OUtk1CgAAAIAJUNVLLZyk9QmuGMj5CAPf32aSYdteoxcQAAAAYPLUdlvumj2z+GDCwGdbS3LcttXUunEAAAAATLJabkteM0q7uYvnEAa+20qSfusFzJZxAAAAAEyRymq7uSuDtJu9eA9h4Dt2srg0HG+lAQAAAGBaVfXSrdMkB9En+C7CwHbr6CBVD9o2GgAAAABmQmV33Ce4YxjNPIeBK0kO06mHqep5KwAAAADMolpuy2EzjD7BuQ0D+y0Vrm3/QgAAAADMg1of9wkeZ477BOctDLyXZNR6AWvZvwQAAAAAc6aylW6GSfqZwz7BeQkDN5IMks6RXkAAAACAeVfLqdrP4tIwc9YnOOth4EqSg9TCiV5AAAAAAN6lsjruExxkTvoEZzkM3Ev37iiVXe9sAAAAAJ6rqjfuEzzMjD86PIth4GaSUe7kvl5AAAAAAM6vttvS2fRn9Xc4S2HgWpJBOvVQLyAAAAAAlzPuE0xGactoZ8oshIErSfrp1qleQAAAAACuRGU16Ryl9QluzMpva9rDwJ3WC1j73qEAAAAAXLmqXmrhJMlBZqBPcFrDwM0kw7btRS8gAAAAANessjvuE9yb5t/GtIWBa0mO23aXWvcuBAAAAODm1HJbWptR2s1qU2dawsBxL2CGqWx54wEAAABwayqr7Wa1DNJuXpsa0xAG7mRxadh6AT0SDAAAAMCEqOqlW6dJ+pmSPsFJDgM3kgxS9aBtbwEAAACACVS1P+4T3Jn0H3USw8CVJIephZNU9bybAAAAAJh8tdyW3WaYCe4TnLQwsN9S1Nr2BgIAAABg+tT6uE/wMBPYJzgpYeC9JCO9gAAAAADMhtpON8NMWJ/gbYeBa0kGSedILyAAAAAAs6WWU7WfxaVhJqRP8LbCwJUkB+nWqV5AAAAAAGZaZXXcJzhIW5p7a24jDNxL9+4olV3vBAAAAADmRlUvtXCS1id4K48O32QYuJlklDu5rxcQAAAAgPlV222Jbvo3feSbCAPXkhynUw/1AgIAAABA8nafYDJKW657I64zDFxJ0m+9gNnyAgMAAADAe1RWk85RWp/g2nUf7rrCwJ3WC1j7XlEAAAAA+ABVvXTrNMlBrrFP8KrDwM0kw7YdRS8gAAAAAFxIZXfcJ7h3Hd/+qsLAtSSH6dTDpNa9agAAAABwWbXclvBmlHbz3ZV50TBw3AuYYVLbXigAAAAAuCKV1XbzXY5zRX2CLxIG3svi0rD1AnokGAAAAACuRWVr3CfYzwv2CV4mDFxLMkg6R23bCQAAAABw7ar2x32C9y77LS4aBu6km2GqeqYPAAAAADetlpPOUZLDXOIuwYuEgYe2BAMAAADAJKjtdO8OcsFA8Lxh4KEFIQAAAAAwSWp9/Njwxnl/xXnCwENBIAAAAABMolpOdQY557bhDwoDDwWBAAAAADDJajndHOccjwwvvM/ndgSBAAAAADANaj2Ld4+TbOat539VJ5/72Wd8tLOR6vwLQwQAAACAKVG1lqRylsHzvuRZjwmvJAvHpgcAAAAAU6ZqP8nm8z69kMWfee+H+qmsmhzAxW18+NWsLL6ctf/oI1l7ud15vfGhn89K96W3v6b3yusX/r5/9v2/zg/e+NHb/zz60d9m9KO/Hf/9dzP6f9vfD77zp14EAODaznE2f+71p85vLnNu86RvfuckSfKDN36c4ff/sp3T/M1JfvDoRxl+768MH+Ay7tRhcraWR09/qvLVT73rz/jUwomJATzfSvelbHzo57Px4Vez9vJH3v7f1Zd/dmJ+xscn1YPv/Gk7sf7eX70rQAQAeJ7NVz6RjQ+/Ov7r57P+oY/d6s/zZ9//6wy/95cZfu+vMvzeX7n4CXBeZ2e/nUfpv/fDlf/pF9/5pzsZpKpnWgDvPiHe/LnX3w4AJyn0u4xvfuckox/97dsn1MPv/2V+8MaPvdAAMOfnOpuvfOKF7/K7yfOZwXf+NIO/OREOAjzX2Q/zRjaSjJ786JNh4GY69dCgACfE03dC/KK+/aPvvn2l3RV3AJhtK92Xcu+jvdxb+0w2f+71LC++NNW/nx8++nEGf3OS49Ef5/j0my5yArzL2dfzRnae/MgTjwl33BUIzKW1lz+SzZ/7RO6tfSZbH/1lAxl7fMX9cTjoxBoApteTAeCsn+/8wem/FAwCPOmNs4/mibsDH4eBugKBubL28kdy76Ofyc7Hv3DrPTjTwuM4ADB9Nl/5RHY+/vnc++hnpv4OwIv64aMf5/j0j3Pw579vEQkw387Ofjt5pzuw8rVfTJLDpLZNB5hlj6+I7732JQHgFZxcexwHACbXzse/4JznCX/2/b/OwZ//fg7/4huGAcyhsx8mb608/qfK1/5hkjs/SGrZcIBZ9PiK+PYvfN4wrvEE+/AvvpHj0z+2sRgAbslK96Xsvfal7L32pbm7C/C8vv2j7+bwW9/IwZ//vouZwJx589eSHCctDLyXdI4MBZi1k+GdX2hXxKd9+++0EQwCwM2f9wgBL+aHj36cgz//faEgMEfOvp60RSKVr/3ioUeEgVmx9vJHsvPxzzsZnhCPH8nxKDEAXD0h4It7HAr2/83vGQYw485+mDezkiSVr/7SKJVVQwGm2drLH0n/U1/2KPAE+/q3/jDHp3+c49M/NgwAeEE7H/9C+p/8sicgrsi3f/Td7P3JgfMUYLa9efYrSVL52i+dmQYwrYSA03myffitb+TwL/7QY8QAcEEbH341B5/eS++V1w3jGnzzOyfZ+aN/5hwFmE1v5b9PhIHAlHr8WMz+J79sGFPs69/6wxz+xR9m8J0/NQwAcO4zMX773/6eR4eBGXT29UQYCEyhvde+lP6nvqwbZ4Y87hY8/ItvGAYAvMfmK5/I4We/4pHgG/btH3039/7P38jwe39lGMBsODv7ZiIMBKbsRPjgH+1l/UMfM4wZPuk+/NY3bPYDgLGDT+9l97UvGsQtcpcgMDPO8u1EGAhMgZXuSzn49J5ewDnyeLOfUBCAebXx4Vdz+NnfchF0QvzZ9/869/7Fb+gSBGaCMBCYaPc++pkcfvYrHgmeU0JBAObRzse/kINP7zr/mcDzkp0/+mc2DgNTTxgITKSV7ks5/JXfytZHf9kwEAoCMDc8Fjz5/sc//9+z9ycHBgFMLWEgMHGUZPM8j0NBvT0AzJqV7ks5/tzvpvfK64YxBf7g9F9m5+E/dZESmErCQGCi9D/15ex/8ssGwfv69o++m/6//T3bhwGYCfoBp5MeQWBaCQOBieBqOJfxze+cpP9vfi+D7/ypYQAwlTY+/GoGW1/VDzilfvjox9n8g/8uw+/9lWEAU0MYCEzESfDx537XY8Fc2te/9YfZ+5MDj+oAMFUsSpsNAkFg2nTyhf+kbwzAbdn5+Bfyv/3qP8l//Pf+vmFwaRsffjX/7T/4tfz0zUf51//u/zYQAKbiHOh//dV/krudRcOYcnc7i/mvXv3VfPcn/14gCEwFYSBwa/Ze+1L++Wf+ByfBXNmJ+Of+01/Mr/1nvfzrf/d/5bv/3783FAAm0s7Hv5AHv/KbBjFj5yH3PvqZfPvH3xUIAhNPGAjcisPPfiW/8fp/bRBcuZ/9e38//80/+LVUJYPvnBgIABNFEDjbBILANNAZCNy4w89+Jdu/8HmD4Nr92ff/Ojt/9E+dkAMwEe599DM5+tzvGMQceP3/2Hb+AUysO0YA3CRBIDdp/UMfy8l/+fX0P/VlwwDgVm18+NUcfvYrBjEnBltfzcaHXzUIYCIJA4EbIwjktux/8ssZfvF/ydrLHzEMAG7cxodfzWDrq7YGz5HlxZcEgsDEEgYCN0IQyG1b/9DHMvzi17Pz8S8YBgA3ZqX7Uo4/97uCwDm0vPhSDj/7W1npeu2BySIMBK6dIJBJOil/8Cu/mcPPfsWJOQA3YrD1tay+/LMGMafWP/SxHH/udw0CmCjCQOBaCQKZRNu/8PkMtr7m0R0Arv08aP1DHzOIOdd75fUcfHrPIICJIQwErs3ea18SBDKx1j/0sQy2vpp7H/2MYQBw5XY+/gXnQbxt97UvqioBJoYwELi2E+D7n941CCba8uJLOfrc77haD8CV2vjwqzlwHsR7HHx611MJwEQQBgJOgJl7u699Mcef+109ggC8sJVuWxphYQjv9XihCMBtEwYCV34CPNj6qhNgps7WR385g62vZe3ljxgGAJfW/+Sv6wnkudY/9DFPJAC3ThgIXKnjz/2uIJCpPkEffvHrHuEB4FI2X/lEdl/7okHwvnZf+2I2X/mEQQC3RhgIXJn+p76c3iuvGwRTbXmx3d3qJB2Ai1jpvpTj/+J3DIJzOfzsV9STALdGGAhcic1XPpH9T37ZIJgJy4sv5eHW/2zrHwDn1v/kr3s6gnNbffln0//krxsEcCuEgcALa0XZXzEIZs6DX/lNgSAAH8jjwVzG7mtfVE0C3AphIPDC+p/89ay+/LMGwUwSCALwQQ7+kYUQXPK9Y5kIcAuEgcALcSWcefDgV34ze699ySAAeMrea1+yPZhL673yuouOwI0TBgKX5vFg5sn9T++6eg/AU+dC/U/pTObFHHx61zIR4EYJA4FL23vtSx4PZq7svvZFV+8BeNe5kKUhvKjlxZc8gQDcKGEgcClrL3/E9mDmkg5BAJwLcdX2XvuSuwOBGyMMBC7F48HMM4EgAB4P5iq5OxC4ScJA4MI2X/lEeq+8bhDMNYEgwPxae/kj2f6FzxsEV8rdgcBNEQb+/+zdv29U97/n8Y90Je8W9vWVnAL4aheQnHUqTKJEWslKYqiAFHaVaJvLRHRQ4FREAjYgHClUGQroEJMy2cYuHJBWMoasq6DgUJl1JENxCYUjObIbp7oFSb5m5tieH+f3eTz+hLdscvLyzHkCHfOXcHilPnY+HH3jTYcA8CwEPfPpQCAtxkCgIz4VCK8/tC9M3DQIAlTIv/2X/jB5+AOHIBE+HQikwRgIdMRfwuF1g339oXH8sgd3gIpQECbp54raiNeQAMkyBgJt86lAiDY6NBxmTlx3CIAKMNSQNF8VBpJmDATa5lOBsLMPD7ytsg1QcrW3PgoHB/Y5BIk6OLDPV9GBRBkDgbYcGtjvU4Gwh9MjpxSGAUps8pCBhnT4BCqQJGMg0BafCoT23Dl2MYwfeMchAErm0MD+MHH4fYcgFROH3/c+YiAxxkBgT6p50JmZk18pDAOUjGch0ubTgUBSjIFAGw+/H6rmQQcUhgHKR9SBtHn1CJAUYyDg4RcSoDAMUB5H33hTOIRMniUODex3CCB2xkBgV4cG9ofRoWGHgC4oDAOUg68I42cPKBNjIOABBBKkMAxQhuehDx2BTHiGAJJgDAQ8gEDCFIYBisu3JMjS6NCwdxADsTMGAh5+IQUKwwDFNP4Pf8wh459Bf1AEYmYMBDz8QgoUhgEK+jx04G1HIFNe2wPEzRgI7PzgcciDB8RJYRigeHwqCz+DQNkYA4GdHzz+4S/hEDeFYYDiODSwPxwc2OcQZOrgwL5waGC/QwCxMQYCkY6+8WYY7PN1RkjC6ZFTYerIJw4BkHNemUKens0B4mIMBKIffn0dARL19dh57wACyLmjQwYYcvKzaAwEYmQMBDxwQEYaxy/5XQPwPAR78od6IE7GQGCHh9//4QiQsMG+/jBz4rrCMEBOfagkTG6ezQ3TQHyMgUCk0aFhR4AUHBzYFxYmbjkEQM4INpAng339/ngIxMYYCLTwNQRI1+jQsMIwQM4YA8mbo0O+uQPEwxgItD78/quHX0ibwjBAvoz/w1eEyRdfFQbiYgwEWhwa2OcIkAGFYYD8+Le+AUcgXz+TviYMxMQYCLTwFQTIjsIwQE6eh/xbjGd0oKSMgUALf3WE7CgMAwCe0YEkGQOBFl6YDdlSGAbInk8G4hkdKCtjINDioHcGQuYUhgGyNdjnU1h4RgfKyRgIADmlMAwAAMTNGAgAOaYwDJA+X8cEoMyMgcBrxg+84wiQMwrDAOkyBuJnEygzYyAA5JzCMAAQgjEQiIcxEAAKQGEYAACIgzEQAApCYRgAAOiVMRAACkRhGAAA6IUxEAAK5uux86H21kcOAQAAdMwYCAAFVB87rzAMAAB0zBgIAAU02NcfFiZuKgwDAAAdMQYCQEG9GgRvGQQBAIC2GQMBoMBGh4ZDfWzKIQAAgLYYAwGg4E6PnApX3jvjEAAAwJ6MgQBQAl+8e0ZhGAAA2JMxEABKQmEYAADYizEQAEpCYRgAANiLMRAASkRhGAAA2I0xEABKRmEYAADYiTEQAEpIYRgAAIhiDASAklIYBgAAmhkDAaDEFIYBAIDtjIEAUGIKwwAAwHbGQAAoOYVhAADgL8ZAAKgAhWEAACAEYyAAVIbCMAAAYAwEgApRGAYAgGozBgJAxdw5dlFhGAAAKsoYCAAVtDBxMxwa2O8QAABQMcZAAKigwb7+MHPyusIwAABUjDEQACpqdGg4NI5ddggAAKgQYyAAVNjE4fdDfWzKIQAAoCKMgQBQceePfKwwDAAAFWEMBAAUhgEAoCKMgQBACEFhGAAAqsAYCACEEBSGAQCgCoyBAMDfFIYBAKDcjIEAwGsUhgEAoLyMgQBAC4VhAAAoJ2MgABBJYRgAAMrHGAgA7EhhGAAAysUYCADsSGEYAADKxRgIAOxKYRgAAMrDGAgA7ElhGAAAysEYCAC0RWEYAACKzxgIALTtzrGLYfzAOw4BAAAFZQwEADoyc/KrcPSNNx0CAAAKyBgIAHRksK8/NI5fVhgGAIACMgYCAB0bHRoOMyeuOwQAABSMMRAA6MqHB94OjeOXHAIAAArEGAgAdO30yCmFYQAAKBBjIADQE4VhAAAoDmMgANAzhWEAACgGYyAA0DOFYQAAKAZjIAAQC4VhAADIP2MgABAbhWEAAMg3YyAAECuFYQAAyC9jIAAQO4VhAADIJ2MgAJAIhWEAAMgfYyAAkAiFYQAAyB9jIACQGIVhAADIF2MgAJAohWEAAMgPYyAAkDiFYQAAyAdjIACQijvHLobJwx84BAAAZMgYCACkpnH8ksIwAABkyBgIAKRmsK8/zJy4rjAMAAAZMQYCAKk6OLAvLEzccggAAMiAMRAASN3o0LDCMAAAZMAYCABk4vTIqTB15BOHAACAFBkDAYDMfD12XmEYAABSZAwEADKlMAwAAOkxBgIAmVIYBgCA9BgDAYDMKQwDAEA6jIEAQC4oDAMAQPKMgQBAbigMAwBAsoyBAECuKAwDAEByjIEAQO4oDAMAQDKMgQBA7igMAwBAMoyBAEAuKQwDAED8jIEAQG4pDAMAQLyMgQBArikMAwBAfIyBAEDufT12PtTe+sghAACgR8ZAAKAQ6mPnFYYBAKBHxkAAoBAG+/rDwsRNhWEAAOiBMRAAKIxXg+AtgyAAAHTJGAgAFMro0HCoj005BAAAdMEYCAAUzumRU+HKe2ccAgAAOmQMBAAK6Yt3zygMAwBAh4yBAEBhKQwDAEBnjIEAQGEpDAMAQGeMgQBAoSkMAwBA+4yBAEDhKQwDAEB7jIEAQCkoDAMAwN6MgQBAaSgMAwDA7oyBAECpKAwDAMDOjIEAQKkoDAMAwM6MgQBA6SgMAwBANGMgAFBKCsMAANDKGAgAlJbCMAAAvM4YCACUmsIwAAD8kzEQACi9O8cuKgwDAEAwBgIAFbEwcTMcGtjvEAAAVJoxEACohMG+/jBz8rrCMAAAlWYMBAAqY3RoODSOXXYIAAAqyxgIAFTKxOH3Q31syiEAAKgkYyAAUDnnj3ysMAwAQCUZAwGASlIYBgCgioyBAEBlKQwDAFA1xkAAoLIUhgEAqBpjIABQaQrDAABUiTEQAKg8hWEAAKrCGAgAEBSGAQCoBmMgAMCfFIYBACg7YyAAwDYKwwAAlJkxEABgG4VhAADKzBgIANBEYRgAgLIyBgIARFAYBgCgjIyBAAA7UBgGAKBsjIEAALu4c+xiGD/wjkMAAFAKxkAAgD3MnPwqHH3jTYcAAKDwjIEAAHsY7OsPjeOXFYYBACg8YyAAQBtGh4bDzInrDgEAQKEZAwEA2vThgbdD4/glhwAAoLCMgQAAHTg9ckphGACAwjIGAgB0SGEYAICiMgYCAHRBYRgAgCIyBgIAdEFhGACAIjIGAgB0SWEYAICiMQYCAPRAYRgAgCIxBgIA9EhhGACAojAGAgDEQGEYAIAiMAYCAMREYRgAgLwzBgIAxERhGACAvDMGAgDESGEYAIA8MwYCAMRMYRgAgLwyBgIAJEBhGACAPDIGAgAkRGEYAIC8MQYCACRIYRgAgDwxBgIAJGiwrz/MnLiuMAwAQC4YAwEAEnZwYF9YmLjlEAAAZM4YCACQgtGhYYVhAAAyZwwEAEjJ6ZFTYerIJw4BAEBmjIEAACn6eux8mDz8gUMAAJAJYyAAQMoaxy8pDAMAkAljIABAyhSGAQDIijEQACADCsMAAGTBGAgAkBGFYQAA0mYMBADIkMIwAABpMgYCAGRMYRgAgLQYAwEAckBhGACANBgDAQByQGEYAIA0GAMBAHJCYRgAgKQZAwEAckRhGACAJBkDAQByRmEYAICkGAMBAHJIYRgAgCQYAwEAckphGACAuBkDAQByarCvPyxM3FQYBgAgNsZAAIAcezUI3jIIAgAQC2MgAEDOjQ4Nh/rYlEMAANAzYyAAQAGcHjkVrrx3xiEAAOiJMRAAoCC+ePdMqL31kUMAANA1YyAAQIHUx84rDAMA0DVjIABAgSgMAwDQC2MgAEDBKAwDANAtYyAAhfB846UjwDYKwwAAdMMYCEAhTN67EH7/Y9MhYBuFYQAAOmUMBKAQltZWQm1+2iGgicIwAACdMAYCUBgzqw/DZ4s3HAKaKAwDANAuYyAAhVJ/8m345un3DgHbKAwDANAuYyAAhVObnw4///aLQ8A2CsMAALTDGAhAIY3PnlUYhiYKwwAA7MUYCEAhrW9tKp/9TKkAACAASURBVAxDBIVhAAB2YwwEoLAUhiGawjAAADsxBgJQaArDEE1hGACAKMZAAApPYRha/VUYPjSw3zEAAPibMRCAUlAYhlaDff1h5uR1hWEAAP5mDASgNBSGodXo0HBoHLvsEAAAhBCMgQCUiMIwRJs4/H6oj005BAAAxkAAymVpbSVM3v3cIaDJ+SMfKwwDAGAMBKB8Fl78FD69/6VDQJM7xy4qDAMAVJwxEIBSaizPKQxDBIVhAIBqMwYCUFq1+enw4MVjh4BtFIYBAKrNGAhAqU3euxB+/u0Xh4BtFIYBAKrLGAhAqa1vbYba/DWFYWiiMAwAUE3GQABKT2EYoikMAwBUjzEQgEpQGIZoCsMAANViDASgMhSGIZrCMABAdRgDAagUhWFopTAMAFAdxkAAKkdhGFopDAMAVIMxEIDKURiGaArDAADlZwwEoJIUhiGawjAAQLkZAwGoLIVhiKYwDABQXsZAACpNYRiiLUzcNAgCAJSQMRCAylMYhlaDff2hcfyywjAAQMkYAwEgKAxDlNGh4TBz4rpDAACUiDEQAILCMOzkwwNvh8bxSw4BAFASxkAA+NPS2koYnz3nENDk9MgphWEAgJIwBgLANktrKwrDEOHOsYth/MA7DgEAUHDGQABo0lieCzeefOcQ0GTm5FcKwwAABWcMBIAIU4v1MLv6g0PANgrDAADFZwwEgB3U7l9TGIYmCsMAAMVmDASAHaxvbYbJuxcUhqGJwjAAQHEZAwFgF882flUYhggKwwAAxWQMBIA9KAxDNIVhAIDiMQYCQBsUhiGawjAAQLEYAwGgTQrD0EphGACgWIyBANABhWFopTAMAFAcxkAA6IDCMERTGAYAKAZjIAB0SGEYoikMAwDknzEQALqgMAzRFIYBAPLNGAgAXVIYhmgKwwAA+WUMBIAeKAxDq8G+/jBz4rrCMABADhkDAaBHCsPQ6uDAvrAwccshAAByxhgIAD1SGIZoo0PDCsMAADljDASAGPxVGDYIwutOj5wKU0c+cQgAgJwwBgJATJbWVsLU4g2HgCZfj50Pk4c/cAgAgBwwBgJAjBrLc+Hqo9sOAc2/G8cvKQwDAOSAMRAAYnblx9vhm6ffOwRsozAMAJAPxkAASMDUYl1hGJooDAMAZM8YCAAJWN/aDOOzZwVFoInCMABAtoyBAJCQV4OgwjA0UxgGAMiOMRAAEqQwDNEUhgEAsmEMBICEKQzDDr8bCsMAAKkzBgJAChSGoZXCMABA+oyBAJAShWFopTAMAJAuYyAApERhGKIpDAMApMcYCAApUhiGaArDAADpMAYCQMoUhiGawjAAQPKMgQCQAYVh2OF3Q2EYACBRxkAAyIjCMLQa7OsPCxM3FYYBABJiDASADCkMQ6tXg+AtgyAAQAKMgQCQIYVhiDY6NBzqY1MOAQAQM2MgAGRMYRiinR45Fa68d8YhAABiZAwEgBxQGIZoX7x7JtTe+sghAABiYgwEgJxoLM+FzwyC0KI+dl5hGAAgJsZAAMiR+pNvFYahicIwAEB8jIEAkDO1+WmFYWiiMAwAEA9jIADk0Pjs2fB846VDwDYKwwAAvTMGAkAOrW9thsl7FxSGoYnCMABAb4yBAJBTS2sroTY/7RDQRGEYAKB7xkAAyLGZ1YcKwxBBYRgAoDvGQADIOYVhaKUwDADQHWMgABSAwjC0UhgGAOicMRAACkJhGFopDAMAdMYYCAAFoTAM0RSGAQDaZwwEgAJRGIZoCsMAAO0xBgJAwSgMQzSFYQCAvRkDAaCAFIahlcIwAMDejIEAUFAKw9BKYRgAYHfGQAAoMIVhaDU6NBwaxy47BABABGMgABSYwjBEmzj8fqiPTTkEAEATYyAAFJzCMEQ7f+RjhWEAgCbGQAAogZnVh+HT+186BDS5c+yiwjAAwDbGQAAoicbynMIwRFiYuBkODex3CACAYAwEgFKpzU+HBy8eOwRsM9jXH2ZOXlcYBgAIxkAAKJ3JexfCz7/94hCwjcIwAMArxkAAKJn1rc1Qm7+mMAxNFIYBAIyBAFBKS2srYfLu5w4BTRSGAYCqMwYCQEktvPhJYRgiKAwDAFVmDASAElMYhmgKwwBAVRkDAaDkFIahlcIwAFBVxkAAqACFYWilMAwAVJExEAAqQGEYoikMAwBVYwwEgIpQGIZoCsMAQJUYAwGgQhSGIZrCMABQFcZAAKgYhWGIpjAMAFSBMRAAKkhhGFopDAMAVWAMBICKUhiGVqNDw2HmxHWHAABKyxgIABWlMAzRPjzwdmgcv+QQAEApGQMBoMIUhiHa6ZFTCsMAQCkZAwGg4hSGIdqdYxfD+IF3HAIAKBVjIAAQGstz4caT7xwCmsyc/CocfeNNhwAASsMYCACEEEKYWqyH2dUfHAK2GezrD43jlxWGAYDSMAYCAH+r3b+mMAxNFIYBgDIxBgIAf1vf2gyTdy8oDEMThWEAoCyMgQDAa55t/BrGZ885BDRRGAYAysAYCAC0WFpbURiGCArDAEDRGQMBgEgKwxBNYRgAKDJjIACwI4VhaKUwDAAUmTEQANiVwjC0UhgGAIrKGAgA7EphGKIpDAMARWQMBAD2pDAM0RSGAYCiMQYCAG1RGIZoCsMAQJEYAwGAtikMQzSFYQCgKIyBAEBHFIahlcIwAFAUxkAAoGMKw9BqdGg4LEzccggAINeMgQBAxxSGIdro0LDCMACQa8ZAAKArCsMQ7fTIqTB15BOHAAByyRgIAHRNYRiifT12Pkwe/sAhAIDcMQYCAD1pLM+Fq49uOwQ0/24cv6QwDADkjjEQAOjZlR9vh2+efu8QsM1gX3+YOXFdYRgAyBVjIAAQi6nFusIwNDk4sE9hGADIFWMgABCL9a3NMD57VmEYmigMAwB5YgwEAGLzahA8ZxCEJgrDAEBeGAMBgFgtra2EqcUbDgFNFIYBgDwwBgIAsVMYhh1+NxSGAYCMGQMBgEQoDEMrhWEAIGvGQAAgMQrD0EphGADIkjEQAEiMwjBEUxgGALJiDAQAEqUwDNEUhgGALBgDAYDEKQxDNIVhACBtxkAAIBUKw7DD74bCMACQImMgAJAahWFopTAMAKTJGAgApEphGFr9VRg2CAIASTMGAgCpUhiGaKNDw6E+NuUQAECijIEAQOoUhiHa6ZFT4cp7ZxwCAEiMMRAAyITCMET74t0zofbWRw4BACTCGAgAZKaxPBc+MwhCi/rYeYVhACARxkAAIFP1J98qDEOTwb7+sDBxU1AEAIidMRAAyFxtflphGJq8GgQVhgGAeBkDAYBcGJ89G55vvHQI2EZhGACImzEQAMiF9a3NMHnvgsIwNFEYBgDiZAwEAHJjaW0l1OanHQKaKAwDAHExBgIAuTKz+lBhGCIoDAMAcTAGAgC5ozAMrRSGAYA4GAMBgFxSGIZWCsMAQK+MgQBAbikMQyuFYQCgF8ZAACC3FIYhmsIwANAtYyAAkGsKwxBNYRgA6IYxEADIPYVhiKYwDAB0yhgIABSCwjC0UhgGADplDAQACkNhGFopDAMAnTAGAgCFojAMrUaHhkPj2GWHAAD2ZAwEAApFYRiiTRx+P9THphwCANiVMRAAKByFYYh2/sjHCsMAwK6MgQBAIc2sPgyf3v/SIaDJnWMXFYYBgB0ZAwGAwmoszykMQ4SFiZvh0MB+hwAAWhgDAYBCq81PhwcvHjsEbDPY1x9mTl5XGAYAWhgDAYDCm7x3Ifz82y8OAdsoDAMAUYyBAEDhrW9thtr8NYVhaKIwDAA0MwYCAKWwtLYSJu9+7hDQRGEYANjOGAgAlMbCi58UhiGCwjAA8BdjIABQKgrDEE1hGAAIwRgIAJSQwjC0UhgGAEIwBgIAJaUwDK0UhgEAYyAAUEoKwxBNYRgAqs0YCACUlsIwRFMYBoDqMgYCAKWmMAzRFIYBoJqMgQBA6SkMQzSFYQCoHmMgAFAJCsPQSmEYAKrHGAgAVIbCMLQaHRoOMyeuOwQAVIQxEACoDIVhiPbhgbdD4/glhwCACjAGAgCVojAM0U6PnFIYBoAKMAYCAJWjMAzR7hy7GMYPvOMQAFBixkAAoJIay3PhxpPvHAKazJz8Khx9402HAICSMgYCAJU1tVgPs6s/OARsM9jXHxrHLysMA0BJGQMBgEqr3b+mMAxNFIYBoLyMgQBApa1vbYbJuxcUhqGJwjAAlJMxEACovGcbv4bx2XMOAU0UhgGgfIyBAAAhhKW1FYVhiKAwDADlYgwEAPiTwjBEUxgGgPIwBgIAbKMwDK0UhgGgPIyBAABNFIahlcIwAJSDMRAAoInCMERTGAaA4jMGAgBEUBiGaArDAFBsxkAAgB0oDEM0hWEAKC5jIADALhSGIZrCMAAUkzEQAGAPCsPQSmEYAIrJGAgA0AaFYWilMAwAxWMMBABog8IwRFMYBoBiMQYCALRJYRiinR45FaaOfOIQAFAAxkAAgA4oDEO0r8fOh8nDHzgEAOScMRAAoEMKw7DD78bxSwrDAJBzxkAAgC5MLdbDN0+/dwjYZrCvP8ycuK4wDAA5ZgwEAOjS1GJdYRiaHBzYFxYmbjkEAOSUMRAAoEvrW5thfPaswjA0GR0aVhgGgJwyBgIA9ODVIHjOIAhNFIYBIJ+MgQAAPVpaWwlTizccApooDANA/hgDAQBi0FieC1cf3XYIaP7dUBgGgFwxBgIAxOTKj7cVhqGJwjAA5IsxEAAgRgrD0EphGADywxgIABAjhWGIpjAMAPlgDAQAiJnCMERTGAaA7BkDAQASoDAM0RSGASBbxkAAgIQoDMMOvxsKwwCQGWMgAECCFIahlcIwAGTHGAgAkDCFYWilMAwA2TAGAgAkTGEYoikMA0D6jIEAAClQGIZop0dOhSvvnXEIAEiJMRAAICUKwxDti3fPhNpbHzkEAKTAGAgAkCKFYYhWHzuvMAwAKTAGAgCkTGEYWg329YeFiZsKwwCQMGMgAEAGavPTCsPQ5NUgeMsgCAAJMgYCAGRkfPZseL7x0iFgm9Gh4VAfm3IIAEiIMRAAICPrW5th8t4FhWFoojAMAMkxBgIAZGhpbSXU5qcdApooDANAMoyBAAAZm1l9GD5bvOEQ0ERhGADiZwwEAMiB+pNvFYahicIwAMTPGAgAkBMKw9BKYRgA4mUMBADIEYVhaKUwDADxMQYCAOSIwjBEUxgGgHgYAwEAckZhGKIpDANA74yBAAA5pDAM0RSGAaA3xkAAgJxSGIZWCsMA0BtjIABAjikMQyuFYQDonjEQACDnFIahlcIwAHTHGAgAkHMKwxDt9MgpgyAAdMgYCABQAArDEO38kY8VhgGgA8ZAAICCUBiGaHeOXVQYBoA2GQMBAApEYRiiLUzcDIcG9jsEAOzBGAgAUDC1+enw4MVjh4BtBvv6w8zJ6wrDALAHYyAAQAFN3rsQfv7tF4eAbUaHhkPj2GWHAIBdGAMBAApofWsz1OavKQxDk4nD7ysMA8AujIEAAAW1tLYSJu9+7hDQRGEYAHZmDAQAKLCFFz+FT+9/6RDQRGEYAKIZAwEACq6xPKcwDBEUhgGglTEQAKAEFIahlcIwALQyBgIAlITCMLRSGAaA1xkDAQBKQmEYoikMA8A/GQMBAEpEYRiiKQwDwCvGQACAklEYhmgKwwBgDAQAKCWFYYimMAxA1RkDAQBKSmEYWikMA1B1xkAAgBJTGIZWCsMAVJkxEACgxBSGIdrE4fdD4/glhwCgcoyBAAAlpzAM0U6PnFIYBqByjIEAABWgMAzR7hy7GMYPvOMQAFSGMRAAoCIUhiHazMmvwtE33nQIACrBGAgAUCG1+ekwu/qDQ8A2g339oXH8ssIwAJVgDAQAqJja/WsKw9BkdGg4zJy47hAAlJ4xEACgYta3NsPk3QsKw9DkwwNvKwwDUHrGQACACnq28WsYnz3nENDkVWH4lEMAUFrGQACAilpaW1EYhginR4yBAJSXMRAAoMIay3PhxpPvHAIAoCKMgQAAFTe1WFcYBgCoCGMgAAAKwwAAFWEMBABAYRgAoCKMgQAAhBAUhgEAqsAYCADA3xSGAQDKzRgIAMBrFIYBAMrLGAgAQAuFYQCAcjIGAgAQSWEYAKB8jIEAAERSGAYAKB9jIAAAO1IYBgAoF2MgAAC7UhgGACgPYyAAAHtSGAYAKAdjIAAAbZlarIdvnn7vEAAABWYMBACgbVOLdYVhAIACMwYCANC29a3NMD57VmEYAKCgjIEAAHTk1SB4ziAIAFBAxkAAADq2tLYSphZvOAQAQMEYAwEA6EpjeS5cfXTbIQAACsQYCABA1678eFthGACgQIyBAAD0RGEYAKA4jIEAAPREYRgAoDiMgQAA9ExhGACgGIyBAADEQmEYACD/jIEAAMRGYRgAIN+MgQAAxEphGAAgv4yBAADETmEYACCfjIEAAMROYRgAIJ+MgQAAJEJhGAAgf4yBAAAkRmEYACBfjIEAACRKYRgAID+MgQAAJE5hGAAgH4yBAACkojY/rTAMAJAxYyAAAKkZnz0bnm+8dAgAgIwYAwEASM361maYvHdBYRgAICPGQAAAUrW0thJq89MOAQCQAWMgAACpm1l9GD5bvOEQAAApMwYCAJCJ+pNvFYYBAFJmDAQAIDMKwwAA6TIGAgCQKYVhAID0GAMBAMiUwjAAQHqMgQAAZE5hGAAgHcZAAAByQWEYYHfrf2w4AtAzYyAAALmhMAyws6W1FUcAemYMBAAgVxSGAQCSYwwEACB3FIYBAJJhDAQAIHcUhgEAkmEMBAAglxSGAQDiZwwEACC3FIYBAOJlDAQAINcUhgEA4mMMBAAg9xSGAQDiYQwEAKAQxmfPGgQBAHpkDAQAoBDWtzZDbf6awjAAQA+MgQAAFMbS2kqYvPu5QwAAdMkYCABAoSy8+Cl8ev9LhwAA6IIxEACAwmkszykMAwB0wRgIAEAh1eanw4MXjx0CAKADxkAAAApr8t4FhWEAgA4YAwEAKCyFYQCAzhgDAQAoNIVhAID2GQMBACg8hWEAgPYYAwEAKAWFYQCAvRkDAQAoDYVhAIDdGQMBACgVhWEAgJ0ZAwEAKBWFYQCAnRkDAQAoHYVhAIBoxkAAAEpJYRgAoJUxEACA0lIYBgB4nTEQAIBSUxgGAPgnYyAAAKWnMAwA8IoxEACA0lvf2gyTdy8oDAMAlWcMBACgEp5t/BrGZ885BABQacZAAAAqY2ltRWEYAKg0YyAAAJXSWJ4LN5585xAAQCUZAwEAqJypxXqYXf3BIQCAyjEGAgBQSbX71xSGAYDKMQYCAFBJCsMAQBUZAwEAqCyFYQCgaoyBAABUmsIwAFAlxkAAACpPYRgAqApjIAAABIVhAKAajIEAAPAnhWEAoOyMgQAA8CeFYQCg7IyBAACwjcIwAFBmxkAAAGiiMAwAlJUxEAAAIigMAwBlZAwEAIAdKAwDAGVjDAQAgF0oDAMAZWIMBACAXaxvbYbx2bMKwwBAKRgDAQBgD68GwXMGQQCg8IyBAADQhqW1lTC1eMMhAIBCMwYCAECbGstz4eqj2w4BABSWMRAAADpw5cfb4Zun3zsEAFBIxkAAAOjQ1GJdYRgAKCRjIAAAdEhhGAAoKmMgAAB0QWEYACgiYyAAAHRJYRgAKBpjIAAA9EBhGAAoEmMgAAD0SGEYACgKYyAAAMRAYRgAKAJjIAAAxEBhGAAoAmMgAADERGEYAMg7YyAAAMRIYRgAyDNjIAAAxExhGADIK2MgAAAkQGEYAMgjYyAAACREYRgAyBtjIAAAJOSvwvDzjZeOAQDkgjEQAAAStL61GSbvXVAYBgBywRgIAAAJW1pbCbX5aYcAADJnDAQAgBTMrD4Mny3ecAgAIFPGQAAASEn9ybcKwwBApoyBAACQotr8tMIwAJAZYyAAAKRMYRgAyIoxEAAAUqYwDABkxRgIAAAZUBgGALJgDAQAgIwoDAMAaTMGAgBAhhSGAYA0GQMBACBjCsMAQFqMgQAAkAMKwwBAGoyBAACQAwrDAEAajIEAAJATCsMAQNKMgQAAkCMKwwBAkoyBAACQMwrDAEBSjIEAAJBDCsMAQBKMgQAAkFPjs2cNggBArIyBAACQU+tbm6E2f01hGACIjTEQAABybGltJUze/dwhAIBYGAMBACDnFl78FD69/6VDAAA9MwYCAEABNJbnFIYBgJ4ZAwEAoCBq89PhwYvHDgEAdM0YCAAABTJ574LCMADQNWMgAAAUiMIwANALYyAAABSMwjAA0C1jIAAAFJDCMADQDWMgAAAUlMIwANApYyAAABSYwjAA0AljIAAAFJzCMADQLmMgAAAUnMIwANAuYyAAAJSAwjAA0A5jIAAAlITCMACwF2MgAACUiMIwALAbYyAAAJSMwjAAsBNjIAAAlJDCMAAQxRgIAAAltL61GSbvXlAYBgBeYwwEAICSerbxaxifPecQAMDfjIEAAFBiS2srCsMAwN+MgQAAUHKN5blw48l3DgEAGAMBAKAKphbrYXb1B4cAgIozBgIAQEXU7l9TGAaAijMGAgBARSgMAwDGQAAAqBCFYQCoNmMgAABUjMIwAFSXMRAAACpIYRgAqskYCAAAFaUwDADVYwwEAIAKUxgGgGoxBgIAQIUpDANAtRgDAQCg4hSGAaA6jIEAAIDCMABUhDEQAAAIISgMA0AVGAMBAIC/KQwDQLkZAwEAgNcoDANAeRkDAQCA1ygMA0B5GQOB1yz99v8dAQD4uzBsEIR88LsIxMUYCLxmfctDBvnz4MVjRwDIwNLaSphavOEQkJPfR4A4GAMBAIAdNZbnwtVHtx0CAErCGAi08Cks8sYnVgGydeXH2+Gbp987BGTIJwOBuBgDAcj/w693WQJkbmqxrjAMGVr/Y8MRgFgYA4EW/upI7h5+fTIQIBf/Fo/PnhUxAM/oQMEZA4HWh31/dcTDLwBRzwhbmwrDkJFnG786AhALYyDQYuE/vDMQD78ARFMYhux+9wDiYAwEWhhe8DMJwG4UhiFd3tcJxMkYCLQwvJAn6tYA+aQwDOlZWhNTA+JjDAQiGWDIz8Ovr8QA5JXCMHgeAorHGAh44CDfP4u/+VkEyCuFYUjHwoufHAGIjTEQ8MBBvn8W/8PPIkCeKQxDsn7/Y9Mf6oFYGQOBSB44yMvDr3dYAhTjuUFhGJKx8B9e3wPEyxgIRHq28Wt4vvHSIfDwC0BbFIYhoech39gBYmYMBDx4kFszzx46AkCBKAxDAs9Dq56HgHgZAwEPHuSW9wUCFI/CMMTn+cZLr0wBYmcMBHbkk4F4+AWgUwrDEB9/nAeSYAwEdn2Yn139wSHw8AtAx88QCsPQu8bTOUcAYmcMBHbl04F4+AWgG0trK6E2P+0Q0KXnGy/D0tqKQwCxMwYCu/LpLDz8AtDLc8RnizccArpQf/KtIwCJMAYCu3q28auvCpPJ/zwCUA71J98qDIPnISBHjIHA3g8izzyIkC5fEQYol9r8tMIwdGB29QchNSAxxkBgTzOrD7wAnNT8/NsvviIMUELjs2fD842XDgFt8BVhIEnGQGBP61ubvqaAh18Aen6emLx3wR8YYQ/PN16K+AGJMgYCbTHQkIbf/9gMM6sPHAKgpBSGYW9XHt12BCBRxkCg7Yf3By8eOwSJmll9GNa3fGIEoOz/1l81dkCk5xsvQ2PZu5OBZBkDgbY1lABJ2JUf/c8hQFX+vVcYhqjnbUMgkDxjIND+w8nynBd/kxjVPIBqURiG1/3+x6ZX8wCpMAYCHfEOE5Li4RegesZnzxoE4U9Tize8LgVIhTEQ6IhPB5KEBy8eq+YBVND61mYYnz3r2YLK865AIE3GQKBjPh1I7D9T3hUIUFnrW5th8t6F8PsfPhFFdU0t1h0BSI0xEOiYTwcSJ58KBGBpbSWMz54zCFLZZ6GZ1YcOAaTGGAh0xacDiYu/hAMQgkGQ6qrNTzsCkCpjINCVxvKcF37Ts2+efh+W1lYcAoAQgkGQ6rn66HZ4tvGrQwCpMgYCXZv6fz7RRfd+/2PTpwIBaGEQpCp+/u0X700GMmEMBLq28OKn8M3T7x2Crlz58XZY3/I/egC0MghSBbX5a44AZMIYCPRkarHuQZ2O/fzbL6H+5FuHAGBHfw2ComWU0dVHt70qBciMMRDoyfrWZphavOEQdMRfwgFox9LaSjj6f/7de4oplQcvHvt6MJApYyDQs8byXHjw4rFD0BZ/CQegE+tbm2F89qxBkFL4/Y9N9WAgc8ZAIBaT9y74ujB78qJsALqxvrUZjn73795VTPGfme9+rh4MZM4YCMT2kO6vnOzF14MB6O2/I9Ph6iN/VKKYrj66HRZe/OQQQOb+JXz03644AxCH5fXn4fC/7g9H33jTMWjx2eKNMLP60CEA6MnCi8fh+ebLcOwf74T/+i99DkIhfPP0e+/ZBnLDJwOBWE0t1r3Thxazqz+oBwMQm8bynNIwhfHzb7+EqcW6QwC5YQwEYvXq68LXvD+Q1x6Aa/d9PRiAeP1VGhYxI+/PQeOzZ8P6lmdjID+MgUAiD+feH0gIfxXzrnkABiARr0rD57xHEM9BAB3wzkAgEcvrz8Pvf2yGE//9fzpGhf2v//u/w4JPbAD8Z3v3Extpfp+J/em24clByk7gOdgKAhcDy9ZJLgprYA1nraJPC/tg0gHiW7YazskOsOyTc9hFqhH7kNOSQNbJRQgJ+CJfQh6k+GRXyTF8sGGROgSWZWCKhx3rIAGsjAB2cVn9zeFXI82M+i+bf+rP5wM0pOnumW4+xWa/fPj+npdbNvzgmxl98M3s/Ne/ZkeQhTC5bEX1yfe+Iwxg4bgzELg1e9/6ag6//XVBrKlHf/FHHhgCwJ0ZfvB36fzJb+f4/b8UBvdKEQgsOmUgcKv6f/6HtnzW0OG3v56Dv/+aIAC4U+fTH2T7z/4gj/9q334x90IRCCwDZSBw67b/7A88YXiNXSl7qwAAIABJREFUHH776zYjAbhXe9/6arp/+q9df3CnFIHAslAGAreujXv/ngvyNaAIBGBRjD/8p3T/9L/3cBHuhCIQWCbKQOBOKARXnyIQgEU0+JuvZONP/luzJdya0+//Yzp/8tuKQGBpKAOBO6MQXF2KQAAW2fjDf0rv+PdtCXLjRh98M73j38v51PsVsDyUgcCdUgiuHkUgAMti71tfTedPfjuH3/66MLiRa6De8e8rAoGl8yB//CslBuCuvfvOZzL8rT/OL/30zwtjyS+CFYEALKPe576Uvf9m17UI1/LoL/4oB3//NUEAS0kZCNyrg1//t/nXv/gbglhCT/72Kxn8jVF2AJZb/wu/mb1f/Tf5Zz/1GWHwSmcffjfbf/YH9gGBpfYT+c3/aiAG4L4cvf+NPHjQvjrP8nj0F3+UvW99VRAALL2T730n/8f/+39lOrvM5nu/kP/sJ35KKDzX8ft/mX/1tccZf/hdYQBLzZ2BwELwVfnlMLn8QXrHv++r4QCspHff+Uz2fnXXqQV+7Ppn8Ddf8YVQYGUoA4GF0X3v8zn6V/9rfu6zPyOMBXT6/X/0tDwA1kLnsz+bwS//rlKQjD74Zvp//ocZf/hPwgBWhjIQWCjvvvOZHGz9u/zWxr8UxgLZ/9afZvev9gQBwFpRCq4vdwMCq0wZCCyk3S/+Tga//LuODS/AhfD2//0/ZfjB3wkDgLX1USm4vfFrrk3WwPH7f5ndv9pzNyCwspSBwMLqvvf5HPz6v8sv/fTPC+OeLoT7f/G/OBYMAHPvvvOZ7H7xd7L7xd9RCq6gsw+/m/6f/6EvggIrTxkILLzBL/9u/ud//ruCuCOTyx+k/+d/mKP3vyEMAHiB/hd+M7tf/B1ftFyRa5+9b301g7/5ijCAtaAMBJZC57M/m4Nf/7f58uc2hXGLDr/99ez+1Z67AQHgNfU+96X0v/AbdgWX1JO/bbuArn2AdaIMBJbK9savZe9Xdz1x+Iadfv8fs/v/7DkWAwDX9O47n0n/F9vdgq5TFt/ht7+ewd98xS4gsJaUgcBSXmzb67kZZx9+N4O//UoO/v5rwgCAG9J97/PZ/eLveODIgvnoOPDB339dCQisqZokykBgib37zmcy+Of/Q/7NF/87YVzzYtixGAC4Xf0v/Ga2O7+W39r4l8K4J2cffjcH3/6a6x6AqlGiDARWQOezP5vBL/+ur76/BiUgANyPd9/5TLY3vqwYvEOjD76Zg29/3QkIgI8oA4FVvMh2fPj5PjoOfPT+SAkIAAtwzdL73JeyvfFrvph5C9c8R+9/I3vf+qqjwACfVvUkUQYCK6r/hTbg/Us//fNrncPx+3+Zg29/LUfvf8M7BQAsqO57n58Xg19e+2uX65hc/iBH73/jh98AeJHZTpI8yH/4laM8yG8JBFjVi+v+L/5m+l/4jbX5qvtHuzjGsQFg+Xx012Dvc19K77/8knLwJdc7ww/+TgEI8CamF/9FkjzI//Yru3mYfy8RYNV9dBRnFY/jfHQk5uDbX8vJ977jxQaAFfHxcrD73ufz5c9trm0Wow++maP3v5HhB3/negfgjdVppk+7SfIg//5fdPLOg/eFAqyTj+4YXOavuLsgBoD19FEx2H3v8+l89mdXtiAcffDNDD/4uwz/Y/tfAN7CszxOspe0MjD5qQzz4MGXJQOso2X4ivvk8gc5+d53XBADAM/1UTHYfe/z6f70L+Tddz6zNCXhR9c5J9/7Tk6+/52cfO8ffKET4KZNayPJOEke5D/8iyTp58GD/1MyAD+6oO6+9wvpfPZn0vvcl/LuO5+9szsIRx98M+fTH+Tk+//wwwtj238AwHW8+85n0v3pX0jnP//ZdD77M3n3pz6b7nuf/+H1zl1Np5x9+N2MP/ynH17jjD/8bsb/3z/l5Pv/kPPpD7xQALepcpzL2v7oHz8qA5M8GOdBfk5CAK++oP7h/59fTF/Xyfe+88MLYHf7AQD3pfve5/PuT332k//8zpsXhR+/tnF9A7AgZrWVZPjRP36sDHR3IAAAAACsjKpRnqX38e96+LH/f5DKmZQAAAAAYAU8y+DT3/Xwk/9YAykBAAAAwJKrHOdjx4M/8qkyMAepGkkLAAAAAJZVTXJZu7lKPv3tYS6TT33rJzURGgAAAAAsoWcPBknGz/uhh8/5vvH8XwAAAAAAlkk79bv3oh9++ILv35ufKwYAAAAAlkJNcvl0O//pIsnT5357+Nwf+E8XyeVFP6lTIQIAAADAEqhZL8n5y37Kw5f82HmmT3upnEkSAAAAABZY1aMkJ6/6aQ9f8ePnydW2B4oAAAAAwIJqReDB6/zUh6/xc04yTdeRYQAAAABYMG9QBCavVwYmyXh+ZNhDRQAAAADg3tUkdbWZNygCk9cvA5M2PridZ3ns2DAAAAAA3JPKcaZPO3mNjcBPe3iNX24v03TdJQgAAAAAd6hyllltJdnOK54a/CIPr/lLj5Nst1/cliAAAAAA3J6atNO66SQZvs1/6eFb/k6GSbptqNDRYQAAAAC4WXU4PxK8dxP/tYc39Ls6yPRpJ5V9LxAAAAAAvKWq0fwBIf1c80jw8zy8wd/ieZLdTGsjVSOvGAAAAAC8ocpZMttJ0ss1HhDyKg9v4bc8TtLLrLbabx4AAAAAeLmapOpJ2i7g0W39Kg9v8S0YJum0cUN7ggAAAADwfHWYabpJBrf9Kz28g7dmr40c1qEXFgAAAADmqkaZ1VbaLuD4Ln7Jh3f0pp0n6aeuNu0JAgAAALDeapKqR2m7gMO7/JUf3vFbetLeyNmOPUEAAAAA1k7Vk3aKNgf38cs/vKc3+yiXF902imhPEAAAAIAVVznOtDbSdgHP7+u38fAeIzhPMmjjiPYEAQAAAFhFdTrfBdzOHe0CvszDBUhknKSfWW3ZEwQAAABgNdQkz/I4STd3vAv4Mg8XKKFhkl4bT3R0GAAAAIAlVdmf7wLuLdpv7eECxnWQ6dNO2xMEAAAAgCVRNZrvAu7mHncBX+bhgkY33xOsjVSOvScBAAAAsLAqZ/NdwF4WYBfwZR4ueJTjJNstzDr1ngUAAADA4qjJ/HRrJwu0C/gyD5ck2WGSbhtdtCcIAAAAwH2rw/ku4GCZftcPlyzlvbYnmH3vcAAAAADcuapR6mozST8Lugv4Mg+XMPLzJLttT7BG3gMBAAAAuHWVs2S2k7YLeLKsb8bDJX4Jxkl6mdVWezEAAAAA4KbNdwEvL7pJjpb9rXm4Aq/IMEmnjTXaEwQAAADgptRhpumm7QKer8Jb9HCFXp1BG22sQ++oAAAAAFxfnWZWW2m7gONVessertgrdZ6kn7ratCcIAAAAwJupSaoeJemmnUZdOQ9X9JU7SdJL1SN7ggAAAAC8UtWTduo0B6v8Zj5c8ZfxIJcXXXuCAAAAADxX5TjT2sgK7QK+zMM1eEnPkwza2KM9QQAAAACSVM7mu4DbWbFdwJd5uEYv8ThJv73Ideo9HgAAAGAd1STP8jhJJyu6C/gyD9fwFR8m6bYxSEeHAQAAANZGZX++C7i3rhE8XOOX/yDTp522JwgAAADAyqoazXcBd7MGu4Av83DN3xXme4K1kcqxPxkAAAAAK6Rylsx2kvSyRruAL/NQBMn8nWE7s9pq7yQAAAAALK+azE+DdpIcyeNHlIGfNEzSaSOS9gQBAAAAlk8dzncBB7L4ccrA59tre4LZFwUAAADAEqgapa42k/Sz5ruAL6MMfLHzJLupq81UjcQBAAAAsIAqZ6l6lLYLeCKQl1MGvtpJe2ea7dgTBAAAAFgU813Ay4tukgN5vB5l4Os7StJp45P2BAEAAADuTeU403TTdgEdCX4DysA3N2gjlHUoCgAAAIC7VKeZ1VaS7SRjebw5ZeD1nCfpZ1Zb9gQBAAAAbltN5ruA3SRDeVyfMvDtDJP0UvXIniAAAADALah60k5p2gW8CcrAm3GQy4uuPUEAAACAG1I1yrQ2YhfwRikDb855kkGm6aZyLA4AAACAa6iczXcBe7ELeOOUgTdvnGS7vdPWqTgAAAAAXkdN8iyPk3RiF/DWKANvzzBJt41bOjoMAAAA8EKV/fku4J4wbpcy8PYdZPq00/YEAQAAAPihqlHqajPJbuwC3gll4N2Y7wnWRqpG4gAAAADWWuUsme2k7QKeCOTuKAPv1jhJL7Paau/0AAAAAOukJvPTk50kR/K4e8rA+zFM0mmjmPYEAQAAgHVQh/NdwIEs7o8y8H7ttT8EdSgKAAAAYCVVjTKrrST92AW8d8rA+3eepJ+62rQnCAAAAKyMylmqHqXtAg4FshiUgYvjpP3hmO3YEwQAAACWWtWTXF50kxwIY7EoAxfPUZJOG9O0JwgAAAAskcpxprWRtgvoSPACUgYurkGm6doTBAAAABZfnc53AbeTjOWxuJSBi22cpJ9ZbdkTBAAAABZPTea7gN3YBVwKysDlMEzSS9Uje4IAAADAQqjsZ/q0E7uAS0UZuFwOcnnRbXuCAAAAAPegajTfBdyNXcClowxcPudJBpnWRirH4gAAAADuROVsvgvYi13ApaUMXF7jJNvtD2GdigMAAAC4HTXJszxO0oldwKWnDFx+wyTdNtZZE3EAAAAAN6cO57uAe7JYDcrA1XGQ6dNOKvuiAAAAAN5K1Sh1tZmkH7uAK0UZuFrOk+y2PcEaiQMAAAB4I5WzZLaTtgt4IpDVowxcTeMkvcxqq/0hBgAAAHiZmqTqSS4vukmO5LG6lIGrbZikk6on9gQBAACA56vDTNNNMogjwStPGbgeBm3ssw5FAQAAACRpu4Cz2krbBRwLZD0oA9fHeZJ+6mrTniAAAACss5qk6lHaLuBQHutFGbh+Ttof9tmOPUEAAABYM1VP2unBHAhjPSkD19dRLi+69gQBAABgDVSOM62N2AVce8rA9XaeZNBGQu0JAgAAwOqp0/ku4HbsAhJlIM04ST+z2rInCAAAAKugJnmWx0m6sQvIxygD+bhhkl4bEXV0GAAAAJZSZX++C7gnDD5NGcjzHGT6tNP2BAEAAIClUDWa7wLuxi4gL6AM5EXme4K1kcqxOAAAAGBBVc7mu4C92AXkFZSBvMo4yXb7oFKn4gAAAIBFUZP5qb5O7ALympSBvK5hkm4bH7UnCAAAAPerDue7gANZ8CaUgbypvbYnmH1RAAAAwB2rGqWuNpP0YxeQa1AGch3nSXbbnmCNxAEAAAC3rHKWqkdpu4AnAuG6lIG8jXH7IDTbSeVMHAAAAHDT5ruAlxfdJAfy4G0pA7kJR0k6bbTUniAAAADcjDrMNN20XUBHgrkRykBu0qCNl9ahKAAAAOC66jSz2krbBRzLg5ukDOSmnSfpp6427QkCAADAm6jJfBewm2QoD26DMpDbcpKkl6pH9gQBAADgFaqetNN2dgG5XcpAbttBLi+69gQBAADgOSrHmdZG7AJyR5SB3IXzJIM2empPEAAAAFI5m+8CbscuIHdIGchdGifptw92dSoOAAAA1k9N8iyPk3RiF5B7oAzkPgyTdNsoqqPDAAAArInK/nwXcE8Y3BdlIPfpINOnnbYnCAAAACuqajTfBdyNXUDumTKQ+zbfE6yNVI3EAQAAwMqonCWznSS92AVkQSgDWRTjJL3Maqt9sAQAAIBlVZP5KbhOkiN5sEiUgSyaYZJOG1O1JwgAAMCyqcP5LuBAFiwiZSCLaq/tCWZfFAAAACy8qlFmtZWkH7uALDBlIIvsPMlu6mrTniAAAAALqXKWqkdpu4BDgbDolIEsg5P2QXW2Y08QAACAxTDfBby86CY5kAfLQhnIMjlK0mkjrPYEAQAAuCeV40zTTdsFdCSYpaIMZBkN2hhrHYoCAACAu1On813A7SRjebCMlIEsq/Mk/cxqy54gAAAAt6sm813AbuwCsuSUgSy7YZJeqh7ZEwQAAODGVT1pp9PsArIalIGsioNcXnTtCQIAAHAjqkaZ1kbsArJilIGskvMkg0zTTeVYHAAAALyxytl8F7AXu4CsIGUgq2icZLt98K5TcQAAAPBqNcmzPE7SiV1AVpgykFU2TNJtI6+ODgMAAPAClf35LuCeMFh1ykDWwUGmTzup7IsCAACAH6oapa42k+zGLiBrQhnIujhPsptpbaRqJA4AAIA1VjlLZjtpu4AnAmGdKANZN+Mkvcxqq33wBwAAYH3UJFVP0nYBj+TBOlIGsq6GSTptHNaeIAAAwOqrw0zTTTKQBetMGci622sjsXUoCgAAgBVUNcqstpL0006LwVpTBkLbE+ynrjbtCQIAAKyIylmqHqXtAg4FAo0yEH7kpP0lMduxJwgAALDEqp7k8qKb5EAY8EnKQPhxR0k6bVTWniAAAMDSqBxnWhtpu4DnAoEfpwyEFxu0cVl7ggAAAIutTue7gNuxCwgvpQyElxsn6WdWW/YEAQAAFk1N5ruA3dgFhNeiDITXM0zSS9Uje4IAAAALoLKf6dNO7ALCG1EGwps5yOVFt+0JAgAAcOeqRvNdwN3YBYQ3pgyEN3eeZJBpbaRyLA4AAIA7UDmb7wL2YhcQrk0ZCNc3TrLd/jKqU3EAAADchprMT2d1YhcQ3poyEN7eMEk3z/I4qYk4AAAAbkodzncBB7KAm6EMhJuzl+nTTir7ogAAAHgLVaPU1WaSfuwCwo1SBsLNOk+y2/YEayQOAACAN1A5S2Y7abuAJwKBm6cMhNsxTtLLrLbaX2YAAAC82HwX8PKim+RIHnB7lIFwu4ZJOm3s1p4gAADAj6vDTNNN2wV0JBhumTIQ7sagjd7WoSgAAADSdgFntZW2CzgWCNwNZSDcnfMk/dTVpj1BAABgfdUkVY/SdgGH8oC7pQyEu3fS/tKb7dgTBAAA1krVk3ZqKgfCgPuhDIT7c5TLi649QQAAYOVVjjOtjdgFhHunDIT7dZ5k0MZy7QkCAACrpk7nu4DbsQsIC0EZCIthnKSfWW3ZEwQAAJZfTfIsj5N0YxcQFooyEBbLMEmvjek6OgwAACyhyv58F3BPGLB4lIGwmA4yfdppe4IAAABLoGo03wXcjV1AWFjKQFhc8z3B2kjlWBwAAMBCqpwls50kvdgFhIWnDITFN06y3fYEcyYOAABgMdRkfpqpk+RIHrAclIGwPIZJOm2E154gAABwn+pwvgs4kAUsF2UgLJ+9tieYfVEAAAB3qmqUutpM0o9dQFhKykBYTudJdtueYI3EAQAA3KrKWaoepe0CnggElpcyEJbbuP1lPNuxJwgAANy8+S7g5UU3yYE8YPkpA2E1HCXptPFee4IAAMBNqMNM003bBXQkGFaEMhBWy6CN+NahKAAAgOup08xqK20XcCwPWC0/KQJYOedJ+qmrveQn9vLgwZdFAgAAvFpNUtmt3/vrA1nA6nJnIKyukyS9VD2yJwgAALxU1ZN2ysguIKw6ZSCsvoNcXnTtCQIAAD+mcpxpbcQuIKwNZSCsh/Mkg0zTTeVYHAAAsOYqZ/NdwO3YBYS1ogyE9TJOst3+0q9TcQAAwLqpSZ7lcZJOkqE8YP0oA2E9DZN0U/XI0WEAAFgTlf35LuCeMGB9KQNhvR1k+rTT9gQBAICVVDVKXW0m2Y1dQFh7ykBgvidYG6kaiQMAAFZE5SyZ7STpJTkRCJAoA4EfGSfpZVZb7aIBAABYTjWZn/7pJDmSB/BxykDg04ZJOm1U2J4gAAAslzqc7wIOZAE8jzIQeJG9tieYfVEAAMCCqxplVltJ+rELCLyEMhB4mfMku6mrTXuCAACwgCpnqXqUtgs4FAjwKspA4HWctIuL2Y49QQAAWATzXcDLi26SA3kAr0sZCLyJoySdNkZsTxAAAO5F5TjTdNN2AR0JBt6IMhC4jkEbJa5DUQAAwF2p0/ku4HaSsTyA61AGAtd1nqSfWW3ZEwQAgNtUk/kuYDd2AYG3pAwE3tYwSS9Vj+wJAgDADat60k7l2AUEboYyELgpB7m86LY9QQAA4K1UjTKtjdgFBG6YMhC4SedJBpnWRirH4gAAgDdUOZvvAvZiFxC4BcpA4DaMk2y3i5g6FQcAALxKTfIsj5N0YhcQuEXKQOA2DZN029hxTcQBAADPU4fzXcA9WQC3TRkI3IWDTJ92UtkXBQAAzFWNUlebSfqxCwjcEWUgcFfOk+y2PcEaiQMAgLVVOUtmO2m7gCcCAe6SMhC4a+Mkvcxqq10EAQDAuqhJqp6k7QIeyQO4D8pA4L4Mk3TaSLI9QQAAVl0dZppukoEsgPukDATu214bS65DUQAAsHKqRpnVVtou4FggwH1TBgKL4DxJP3W1aU8QAICVUDlL1aO0XcChQIBFoQwEFslJu1ia7dgTBABgaVU9yeVFN8mBMIBFowwEFtFRkk4bV7YnCADAkqgcZ1obabuA5wIBFpEyEFhkgzaybE8QAIBFVqfzXcDt2AUEFtxP1u43pQAssvGD//1X+pnVQR5mkAcPviwSAAAWQ03y7MEgD7MnC2BZuDMQWBbDJL02wuzoMAAA96yyn+nTTqIIBJaLMhBYNgeZPp3vCQIAwB2rGs13AXdjFxBYQspAYBmdJxlkWhupHIsDAIBbVzmb7wL2YhcQWGLKQGCZjZNst4uyOhUHAAA3rybzUymdtOkagKWmDARWwTBJN8/y2J4gAAA3pw7nu4ADWQCrQhkIrJK9tieYfVEAAHBtVaPU1WaSfuwCAitGGQismvMku21PsEbiAADgtVXOktlO2i7giUCAVaQMBFbVOEkvs9pqF3UAAPAi813Ay4tukiN5AKtMGQisumGSTht9ticIAMCn1WGm6abtAjoSDKw8ZSCwLgZt/LkORQEAQKpGmdVW2i7gWCDAulAGAuvkPEk/dbVpTxAAYF3VJFWP0nYBh/IA1o0yEFhHJ+3ib7ZjTxAAYI1UPWmnRXIgDGBdKQOBdXaUy4uuPUEAgBVXOc60NmIXEEAZCKy98ySDNhptTxAAYKVUzua7gNuxCwiQRBkI8JFxkn67WKxTcQAALLOa5FkeJ+nELiDAJygDAT5pmKTbRqUdHQYAWDqV/fku4J4wAH6cMhDg+Q4yfdppe4IAACy8qtF8F3A3dgEBXkgZCPBi8z3B2kjlWBwAAAuocpbMdpL0YhcQ4JWUgQCvNk6ynVlttYtNAADuX03mpzg6SY7kAfB6lIEAr2+YpNPGqO0JAgDcnzqc7wIOZAHwZpSBAG9ur+0JZl8UAAB3qGqUutpM0o9dQIBrUQYCXM95kt22J1gjcQAA3KLKWaoepe0CnggE4PqUgQBvZ9wuSmc79gQBAG7afBfw8qKb5EAeAG9PGQhwM46SdNqItT1BAIC3V4eZppu2C+hIMMANUQYC3KxBG7OuQ1EAAFxHnWZWW2m7gGN5ANwsZSDAzTtP0s+stuwJAgC8rprMdwG7SYbyALgdykCA2zNM0kvVI3uCAAAvUfWkna6wCwhw25SBALfvIJcXXXuCAACfUjXKtDZiFxDgzigDAe7GeZJBpummciwOAGCtVc7mu4C92AUEuFPKQIC7NU6y3S5+61QcAMB6qUme5XGSTuwCAtwLZSDA/Rgm6baRbEeHAYA1UNmf7wLuCQPg/igDAe7XQaZPO21PEABgBVWNUlebSXZjFxDg3ikDAe7ffE+wNlI1EgcAsBIqZ8lsJ20X8EQgAItBGQiwOMZJepnVVrt4BgBYRjWZn3roJDmSB8BiUQYCLJ5hkk4b17YnCAAskzqc7wIOZAGwmJSBAItrr+0JZl8UAMBCqxplVltJ+rELCLDQlIEAi+08yW7qatOeIACwcCpnqXqUtgs4FAjA4lMGAiyHk3aRPduxJwgA3L/5LuDlRTfJgTwAlseDqpICwLJ98P7jXxnkQXaTB/9MGgDAnaoc57J2a/evx8IAWD7uDARYToNM003qUBQAwN2o0/ku4HaSsTwAlpMyEGB5jZP0M6ste4IAwO2pyXwXsBu7gABLTxkIsPyGSXqpemRPEAC4UZX9TJ92YhcQYGUoAwFWx0EuL7qpeiIKAOCtVI0yrY0ku0nOBQKwOpSBAKvlPMkg09pI5VgcAMAbqZzNdwF7sQsIsJKUgQCraZxku13M16k4AICXq0me5XGSTuwCAqw0ZSDAahsm6bbR75qIAwD4cXU43wXckwXA6lMGAqyHg0yfdlLZFwUAkKTtAtbVZpJ+7AICrA1lIMD6OE+y2/YEayQOAFhTlbNktpO2C3giEID1ogwEWD/jJL3Maqt9MgAArIeapOpJ2i7gkTwA1pMyEGB9DZN02li4PUEAWG11mGm6SQayAFhvykAA9tpoeB2KAgBWTNUos9pK2wUcCwQAZSAASdsT7KeuNu0JAsAqqEmqHqXtAg7lAcBHlIEAfNxJ+6RhtmNPEACWVNWTdtd/DoQBwKcpAwF4nqNcXnTbyLg9QQBYCpXjTGsjbRfwXCAAPI8yEIAXOU8yaGPj9gQBYHHV6XwXcDt2AQF4BWUgAK8yTtLPrLbsCQLAIqlJnuVxkm7sAgLwmpSBALyuYZJeGyN3dBgA7lVlf74LuCcMAN6EMhCAN3WQ6dNO2xMEAO5U1Wi+C7gbu4AAXIMyEIDrmO8J1kYqx+IAgFtWOZvvAvZiFxCAt6AMBOBtjJNst09O6lQcAHDTajK/G78Tu4AA3ABlIAA3YZik20bM7QkCwM2ow/ku4EAWANwUZSAAN2mv7QlmXxQAcE1Vo9TVZpJ+7AICcMOUgQDctPMku21PsEbiAIDXVDlLZjtpu4AnAgHgNigDAbgt4yS9zGqrfXIDADzffBfw8qKb5EgeANwmZSAAt22YpNPGz+0JAsAn1WGm6abtAjoSDMCtUwYCcFcGbQS9DkUBAHWaWW2l7QKO5QHAXVEGAnCXzpP0U1eb9gQBWE81SdWjJN20u+cB4E4pAwG4DydJeql6ZE8QgLVR9aTdJZ8DYQBwX5SBANyng1xedO0JArDSKseZ1kbsAgKwAJRkhgp0AAANBklEQVSBANy38ySDNp5uTxCAFVI5m+8CbscuIAALQhkIwKIYJ+m3T5rqVBwALK+a5FkeJ+nELiAAC0YZCMCiGSbptnF1R4cBWDKV/fku4J4wAFhEykAAFtVBpk87bU8QABZc1Wi+C7gbu4AALDBlIACLbL4nWBupHIsDgIVTOUtmO0l6sQsIwBJQBgKwDMZJtjOrrfZJFwDct5rM717vJDmSBwDLQhkIwDIZJum0UXZ7ggDclzqc7wIOZAHAslEGArCM9tqeYPZFAcCdqRqlrjaT9GMXEIAlpQwEYFmdJ9lNXW2maiQOAG5N5aw95T69JCcCAWCZKQMBWHYn7ZOz2Y49QQBu1nwX8PKim+RAHgCsAmUgAKviKEmnjbnbEwTgLVWOM003bRfQkWAAVoYyEIBVM2ij7nUoCgDeXJ1mVltJttOeZg8AK0UZCMAqOk/Sz6y27AkC8HpqMt8F7KY9vR4AVpIyEIBVNkzSS9Uje4IAvFDVk3ZXuV1AAFafMhCAdXCQy4uuPUEAPqFqlGltxC4gAGtEGQjAujhPMsg03VSOxQGwxipn813AXuwCArBmlIEArJtxku32SWCdigNgndQkz/I4SSd2AQFYU8pAANbVMEm3jcU7Ogyw8ir7813APWEAsM6UgQCsu4NMn3baniAAK6dqlLraTLIbu4AAoAwEgPxwT7A2UjUSB8AKqJwls520XcATgQBAowwEgB8ZJ+llVlvtk0gAlk9N5nd7d5IcyQMAPkkZCAA/bpik00bm7QkCLI86zDTdJANZAMDzKQMB4MX22th8HYoCYIFVjdpT4tNPu8sbAHgBZSAAvNx5kn7qatOeIMCCqZy1p8Knl3ZXNwDwCspAAHg9J+2TzdmOPUGABVD1JJcX3SQHwgCA16cMBIA3c5Sk08bp7QkC3LnKcaa1kbYLeC4QAHgzykAAuJ5BG6m3JwhwN+p0vgu4HbuAAHBtykAAuL5xkn5mtWVPEOC21GS+C9iNXUAAeGvKQAB4e8MkvVQ9sicIcIMq++2p7nYBAeCmKAMB4OYc5PKi2/YEAbi2qtF8F3A3dgEB4EYpAwHgZp0nGWRaG6kciwPgDVTO5ruAvdgFBIBboQwEgNsxTrLdPqmtU3EAvExN8iyPk3RiFxAAbpUyEABu1zBJt43f10QcAJ9Wh/NdwD1ZAMDtUwYCwN04yPRpJ5V9UQCk7QLW1WaSfuwCAsCdUQYCwN05T7Lb9gRrJA5gLVXOktlO2i7giUAA4G4pAwHg7o2T9DKrrfZJMcA6qEmqnuTyopvkSB4AcD+UgQBwf4ZJOql6Yk8QWG11mGm6SQZxJBgA7pUyEADu36CN59ehKICVUjVqT1VPP+2uaADgnikDAWAxnCfpp6427QkCy68m7Snq6aXdBQ0ALAhlIAAslpP2yfNsx54gsJSqnrS7nXMgDABYPMpAAFhMR7m86NoTBJZG5TjT2ohdQABYaMpAAFhc50kGbXTfniCwqOp0vgu4HbuAALDwlIEAsPjGSfqZ1ZY9QWBx1CTP8jhJN3YBAWBpKAMBYHkMk/TaKL+jw8A9quzPdwH3hAEAy0UZCADL5yDTp522Jwhwh6pG813A3dgFBIClpAwEgOU03xOsjVSOxQHcqsrZfBewF7uAALDUlIEAsNzGSbbbJ+l1Kg7gZtVkfhdyJ3YBAWAlKAMBYDUMk3TbmL89QeAm1OF8F3AgCwBYHcpAAFgte21PMPuiAK6lapS62kzSj11AAFg5ykAAWD3nSXbbnmCNxAG8lspZe1p5eklOBAIAq0kZCACra9w+qZ/tpHImDuD55ruAlxfdJAfyAIDVpgwEgNV3lKTTHgJgTxD4uDrMNN20XUBHggFgDSgDAWB9DNrDAOpQFLDu6rQ9hTz9tLuIAYA1oQwEgPVynqSfutq0JwjrqCbzXcBu2lPIAYA1owwEgPV0kqSXqkf2BGFNVD1pdwfbBQSAdaYMBID1dpDLi649QVhhleNMayN2AQGAKAMBgFYODNpDBOwJwsqonM13AbdjFxAAmFMGAgAfGSfpt/KgTsUBy6omeZbHSTqxCwgAfIoyEAD4tGGSbnvIgKPDsFQq+/NdwD1hAADPowwEAF7kINOnnbYnCCy0qtF8F3A3dgEBgJdQBgIALzPfE6yNVI3EAQumcpbMdpL0YhcQAHgNykAA4HWMk/Qyq61WPgD3qybzu3Y7SY7kAQC8LmUgAPAmhkk67eEE9gThftThfBdwIAsA4E0pAwGA69hre4LZFwXckapRe9p3+rELCABckzIQALiu8yS7qatNe4Jwiypn7ene6aXdnQsAcG3KQADgbZ0k6SWzHXuCcJPmu4CXF90kB/IAAG6CMhAAuClHSTrtoQb2BOGtVI4zTTdtF9CRYADgxigDAYCbNmgPN6hDUcCbqtP5LuB22lO8AQBulDIQALgN50n6mdWWPUF4HTWZ7wJ2YxcQALhFykAA4DYNk/RS9cieILxA1ZN2N61dQADg9ikDAYC7cJDLi649QfiYqlGmtRG7gADAHVIGAgB35TzJINN0UzkWB2urcjbfBezFLiAAcMeUgQDAXRsn2W5lSJ2Kg/VRkzzL4ySd2AUEAO6JMhAAuC/DJN320ARHh1l1dTjfBdyTBQBwn5SBAMB9O8j0aSeVfVGwcqpGqavNJP3YBQQAFoAyEABYBOdJdjOtjVSNxMHSq5wls520XcATgQAAi0IZCAAsknGSXma11coUWDY1aU/NTifJkTwAgEWjDAQAFtEwSac9bMGeIMuiDjNNN8lAFgDAolIGAgCLbK89dKEORcHCqhq1p2Onn3Z3KwDAwlIGAgCL7jxJP3W1aU+QhVI5a0/DTi/tblYAgIWnDAQAlsVJkl4y27EnyL2repLLi26SA2EAAMtEGQgALJujJJ32kAZ7gtyxynGmtZG2C3guEABg2SgDAYBlNWgPa7AnyF2o0/ku4HbsAgIAS0wZCAAss3GSfma1ZU+Q21GT+S5gN3YBAYAVoAwEAFbBMEkvVY/sCXJjKvvtadZ2AQGA1aEMBABWyUEuL7ptTxCuqWo03wXcjV1AAGDFKAMBgFVznmSQaW2kciwOXlvlbL4L2ItdQABgRSkDAYBVNU6y3cqdOhUHL1aT+d2kndgFBABWnDIQAFh1wyTdPMvjpCbi4JPqcL4LOJAFALAOlIEAwLrYy/RpJ5V9UZCqUepqM0k/dgEBgDWiDAQA1sl5kt22J1gjcayhylky20nbBTwRCACwbpSBAMA6GifpZVZbrRxi9c13AS8vukmO5AEArCtlIACwzoZJOu3hEfYEV1cdZppu2i6gI8EAwFpTBgIAJIP2EIk6FMUKqRq1p0mnn3Y3KADA2lMGAgA050n6qatNe4LLriapepS2CziUBwDAjygDAQA+6SRJL5nt2BNcQlVP2l2eORAGAMCPUwYCADzfUS4vuvYEl0TlONPaiF1AAICXUgYCALzYeZJBe/iEPcHFVKfzXcDt2AUEAHglZSAAwKuNk/Qzqy17gouiJnmWx0m6sQsIAPDalIEAAK9vmKTXHk7h6PC9qezPdwH3hAEA8GaUgQAAb+4g06edtifInakazXcBd2MXEADgWpSBAADXM98TrI1UjsVxiypnyWwnSS92AQEA3ooyEADg7YyTbLc9wZyJ4ybVZH73ZSfJkTwAAN6eMhAA4GYMk3TaQy3sCb69OpzvAg5kAQBwc5SBAAA3a6/tCWZfFNdQNUpdbSbpxy4gAMCNUwYCANy88yS7bU+wRuJ4DZWz9pTm9JKcCAQA4HYoAwEAbs84SS+Z7dgTfJH5LuDlRTfJgTwAAG6XMhAA4PYdJem0h2HYE/yROsw03bRdQEeCAQDugDIQAODuDNpDMepwvWOo08xqK20XcOzdAgDg7igDAQDu1nmSfupqc/32BGsy3wXspj19GQCAO6YMBAC4HydJeql6tBZ7glVP2l2RdgEBAO6TMhAA4H4d5PKiu7J7gpXjTGsjdgEBABaCMhAA4P6dJxlkmm4qxyvxFlXO5ruA27ELCACwMH5SBAAAC2OcZDuz6uUnspc8+KXlexNqkmcPBnmQvfof/9orCgCwYNwZCACweIZJuu1hG0t0dLiyP98F3PMSAgAsJmUgwBKq33O3DayJg0yfdtqe4CJ/UKpR6mozyW7sAgIALDRlIADAYpvvCdZGqkYL9TurnCWznSS9tKcjAwCw4JSBAADLYZykl1lttRLuPtVkfrdiJ8mRlwYAYHkoAwEAlsswSSfP8vh+9gTrcL4LOPBSAAAsH2UgAMBy2vvRnuBdlIJ1mGltJOnHLiAAwNJSBgIALK+2J5i8m6pHqRzf7H++TvMsjz9WAo5FDgCw3H5SBAAAK+Fg/i2ZVS8P00vSSx508iA/9+p/vSapnCQPTpI6yWWGeUf5BwCwapSBAACrZzj/9kmz6v3Y911lnHcejEUGALAe/n8ESb/FCoMczAAAAABJRU5ErkJggg==;" parent="RCJMpjR6mchD6mxSjPc7-38" vertex="1">
                    <mxGeometry x="148.38" y="166" width="41.84" height="48" as="geometry"/>
                </mxCell>
                <mxCell id="BzF7Yjgl7Gwr_pIthtyf-4" style="edgeStyle=orthogonalEdgeStyle;rounded=1;orthogonalLoop=1;jettySize=auto;html=1;" parent="RCJMpjR6mchD6mxSjPc7-38" source="2UT0oM7tgV36ymHJV0K3-2" target="RCJMpjR6mchD6mxSjPc7-2" edge="1">
                    <mxGeometry relative="1" as="geometry">
                        <Array as="points">
                            <mxPoint x="169" y="30"/>
                        </Array>
                    </mxGeometry>
                </mxCell>
                <mxCell id="BzF7Yjgl7Gwr_pIthtyf-5" value="deploy changes" style="edgeLabel;html=1;align=center;verticalAlign=middle;resizable=0;points=[];" parent="BzF7Yjgl7Gwr_pIthtyf-4" vertex="1" connectable="0">
                    <mxGeometry x="0.146" relative="1" as="geometry">
                        <mxPoint as="offset"/>
                    </mxGeometry>
                </mxCell>
                <mxCell id="2UT0oM7tgV36ymHJV0K3-2" value="Argo CD" style="shape=image;verticalLabelPosition=bottom;verticalAlign=top;imageAspect=0;aspect=fixed;image=data:image/png,iVBORw0KGgoAAAANSUhEUgAAAP4AAADpCAYAAAAERYpyAAAmNHpUWHRSYXcgcHJvZmlsZSB0eXBlIGV4aWYAAHjarZxpcly3koX/YxW9BIwJYDkYI3oHvfz+DqokWbaf+72IFi2SKhbvgMw8QyKv3fmf/77uv/jTao4ul9qsm3n+5J57HHzT/OdPf5+Dz+/z+3PP92fh99fd6d8fRF5KfE2ff9bxff/g9fLrF36cI8zfX3ft+5PYvgcKPw/8/iSdWd/vP14kr8fP6yF/D9S/l2q91T9e6vweaH3f+C7l+zf/vKzPF/3b/fZCZZV24UQpxpNC8u9z/lxB+vwd/DU+h2S8L6Tyvu+OLymF78FYkN9u78dX7/+4QL8t8o/v3J9X/4y/X/w4vu9If1pL+64R3/ztD0L50+vp5/njH0+cfl5R/P0H90e4/F8X+d7d7kskbmJkY0Xtm1FvsX+skN44WfL0fs34qPwtfF/fR+ej+eEXId9++cnHCj1EonJdyGGHEW447+sKi0vM8cTK1xhXTO+1lmrscSXFKesj3FhTTzs1YrniccQsp/jzWsI7b3/nW6Fx5h14awwcLPAr//LD/dMP/5MPd+/SEgUt5vmEmOuKWnEuQ5HTZ95FQML9xq28Bf7x8Q2//0NikapEsLxlbtzg8PNziFnCr9xKL86J9xW+fkoouLq/B2CJOHfhYkIiAt7I/mDB1xhrCKxjI0CDK48px0kEQilxc5ExJ6rF1diizs3v1PDeG0u0qJfBJgJRqKxKbHoaBCvnQv7U3MihUVLJpRQrtTRXehmWLFsxs2oCuVFTzbVUq7W22utoqeVWmrXaWutt9NgTGFi69dpb732M6AYnGhxr8P7BKzPONPMs02adbfY5Fumz8irLVl1t9TV23GkDE9t23W33PU5wB6Q4+ZRjp552+hmXXLvp5luu3Xrb7Xf8jNo3qn/5+A+iFr5Riy9Sel/9GTVedbX+OEQQnBTFjIjFHIh4VQRI6KiY+RZyjoqcYuZ7pChK5CKLYuN2UMQIYT4hlht+xu5X5P6tuLnS/q24xf8rck6h+/+InCN0f43b30RtC4LXi9inCrWmPlF9/Py04WIbIrXxr76eAdrsC+h5X84N3Bu4NHxpcZdC/XD+WWN2XEZqK8J756QVDmuxeOXEuUddqVzf70pzwNXXjsV7dp69NiHeXCL8nS9hcb2dFOvmmHXcsg4BAwtDiCxXRBZYK8evXUkn3lPu5kZtLSPLbqhkRid+MLzz+VyuZMH1C9a9oRzCHOsiK9Y8XNfo/BzYhezbqTNsLv3MZfsum5trnb6P7MCoIs48vZ84biZ4Oc9FaMq6B8AooH+udWdidfK1tM7N+TarJ5QdlMmDX3acYLV96yjzlNJ7A9QFNpM8OsvXeWyOtkkHm2WnodXOe6e4z46p2l5rGqDkdLccMDUfJxfTYmz3nGyDyJJ13EyexoWlOicRr/nOlu6Ni9ouKofBsSowck8tM+USDnRBNInFnclO2qHeNKzvdA7fntKVZjaNpEkbKXFyrinUPcqqdTpbys0La9ZghxzdIeuQWcUVOkibxq78ZiMZSCbyH3lFNLe3xeHIGs8RgqOmW1jolKF7nJu4nU3kKP65AO9+66Fsb+OvtX5O43aO1XXnIG5+zgoZTHMtDSpncqWj1wPGk6b8Wgf/y0npLgh11Txu2hdcITdviLfVIFyc+dR+di95wiJjQCQdJlNNoEa9leyXSgLog2nJVuig9wBrtwy7rwV/9LFM5bLnbNT6caAAVE+hN37Iep26CEapO90DPjXbJxAhauimQvLF2QKEREJsUj/nc8oc51xHhpuuL1vdF4ghtW/IlBeXokXygEjkrrdZ6Jf0AWUAUa6hAm4TbMiW+rqOO3miApQa/Bdt8qbeufpATpChpq+5SL/+01f3+aaAa+RsIcitp2JtKnstcAmVy4z5ek5wqxl39CDloFZYz+J7oSyruckiJVV/tw3Q3rgXZdw3YYut7D7RsvBDBQk8NTrm0nG40zVKm4B/4FSsqhsTHKbcLByyC3CMmYJlbfLNYZEhmxDzhrlIb39nXhxmKY1PAfXI+EIE9nKLE9Vp/JP3DZZ9cXKKri9P5l8qFvoCsBcXxi/UnK0DVZOzxUJC7GCLQwW3yUuKfSW7IjM+jwbFsIqDP0lIXcnNcX0hAtyiBycp12IfCcxCZ+q2OyjE/Ii9kJ1JcrqqYgGGDH4k2zHuyHoAVJ47JAaAYgORVk5cWFugCP/qx1Whxk4PozYFRkqlO6cSoYBSmIgGmAxT0fBvkjy0lxkZRAQwUxtU1jgusJow5V4FuvOsTZikFS8diN3q2HAZxY3MBULDBOBvS9vCWN3m2j4tAc1tDhg6hIciAZNXAODSKWKSfOCSTgptUQDcWQr8tTk0h4ecs+jTz357LJzMweNtcQ6vz6sdFemYtQy4mpinlaow1yYLQ/WAjiRAMApti5rDJIAZCnCUMYXPHXWuj7BBJPg28EkypUUEJzeSZtslVyR9B9JZyglTNCjPxjwh7BxQI6BWAx2hzKs1pUICyDeB9uwPFQP4QpEcs1IWEEmbe/0NI/+ibOo+F4oqIXH8olbyxOcVZEzAO6tCKEtkA8x9N7kVd0ZX9DHFYKe7iQiAATsVWJWJ56xVpyQ6Nhbk4LoG3KoKgXFn0P0QL8rSYKoNf2NTQvUsdhjFpCdAFX+gUUDS2n1Ij9xg1VgEJew2rrrkPiPH4JzIMeqJJCS+aWL8diCmcA121ZOjkkbwSUcWgQsohFFqXga4jcnyUI2IiL27raB+AfQ0eat3lkH1HUk8GW/V6gAy75h45withJRUX1AudyEPRp2ufhFm3aT/KHHi6IvLqVdj4ap0Wq83hoviIWyEfYC9EM+Au8YoEawpnUJXpY0BVh/R0gGaIGIXQFo4QnEbDX/4Iup/fS04f9gS5Qmq5iHavi/VUVnUUTORkD/JDTkXlEs8AK4fIGyfUDWQr8InE9GsZG8qfEfio3+wJxDRCGna8pTiiUoDRyES08DC9XjkKnKaKtxiYFQmvr2jZeDMRUWS+qUudBTZ69sZqgMOBUMeh6TxCJpB3NHPQeCBoGARie4mSsLc3Sk4G/HIjEKyYk2kYHwJgkKujTXK1AdSBfqBqQCvhRxGtKTEZT8JAW2AEB091QOkUMhcEA0BSplPvRRe+blSueUdDzqo7CI63xx1T7TJBsO4Xtn18NDBq5w9UMF12uiIFF7/0pv7xXPl7Hm9XWw9PB3TibZz5F67UYRkDWsk/Q9YvarOl6RSVlN0friL+fdVAUUdI6ZYhJT3Mwr1XGIJeWN15IlY8kQFoKSrR2wTNcqNO4hnxehYm4FuiizRPl7cwWnFIK9JkqYHwHquwHqK5Oydsc07AD9U1KU8CSL11q7L5NOQOVjcIcGpNQaUMMY9qvp2kRBnXSC7jUcGGAxzMaDvIqW/kDYHqMRBIja4lxjHWSQdyD0RKNTGXpRfVH1B/i+zEQiWPByxCJlSH9ojmaCMDkFS556FuCCLYAshz69UfvGQ0wAuVQ/etjhhY6QNiBWXPCXJL+UitZ87Ds2tjPTKaz02Q12lcSwVUv+cSVolcnKsiqaARpBQCAZEcKjUNEuUAF7uIKwS3TH01mENL69DgFDFPtzLIVJwgCR4yfuSG+hSyZlySqubeqfeIDvjuvKs3ZEGmEYCCqZYA1ChSvj/knAAIDYNL7BtkIMnws6kJRIQxEDZJHROQNlbIGMcNCjPaCKPiQszwTlaEeeCfUwwAr6eTJ7qiVDe5cDCaH2udzSkkPkFeQbvqBBEPfYVb5bBDsyk2lUNzQVgqDythLUIX1aJYXDbWKQe9cESsmr94CCQfsjEyTJyQvHmgXE6dhNSAikh5lIOhhYoIAZNcp53c0iEt4EFAibwuMeQXWIVl9BRLocUp8axxYVIoKgh0qj2TJTdj3DvGJJP4+B3dUHIr9GAnVLBI0EdQJhInpUBGYReMvQWaRawA6g3apnraCpeDumh+9KoWIg4ReDuSN5XTA1SBql4Kmk/sb9yGA3yGqyWHWoCTJxkRaoyyYKytm6DIZGbcXfK7lDwcP8kkbi2WI/lIF7GFEvcSMVRVCB8qrdicmCgC6Ys+yjwFqZ0X2Fpm93s8AgofDi8HrQFkDOR60ghw4ggHIowkouOfI9YVb93rwR5o3r2k7goLuDhIthFnKikveTT51wgeWCdEIuVMLKa6Eq04UERk4YsHNYXtjh5Gwo36QKzRdfA026pCbmAoodFQhWvVk2ZGx8bgYwobdBVTnjprMOQsZg4JC2M3TyYbZ1fH4iZm1nzQJWR3RRcVheCFSUjx6X80ACIyTTwnzFx6o08KDUUdWdga2rtQYtBDhFsw0AdpQsH5lLwaXt/EmtnnCxymYUgKglwvciKE9TSMASowwjKpE9Kn0xOz0dekgYEBz6gX+QZZoKYTaEoHo6lIqUo3pmEcNQoom86KhpvoPzAIsKIBAEneBY+5EDgXBf4l7J6R4Glq2UVtZigmtLH60aMvZH8jvAZaHa5DaRex8EjfBumFzFJemzwFmBktRG33HN+9QIUAd1CS7WGB4VH0aqxCVjeOJasIRoDsAFtK3KXKJEkG+U6fXyEnFDPZ65LKWPtUXekKzmAzpbZWq/wdmomh0G40RdYYDWvoXLMLbFTt4m6430kRUHg7zIJ4DJQHZIsjvBOTsu5GyYd4IdLMB0sLwWJPucf6Bh+HRvTN8IgF24OHAX6pCm5algMym794M/PRbNttOuk/g15y1c1AT3CerKuE4e3AHXuknfjDyRutsdTk7akXIGyqbolkkdUAICochTtPVhzLoSU7pEVLygorVwAnTB3rGABD9SqgJ6hpNCLA02oHhQIL9UVpppJWI9T3z5UQrQ0ChcHDEVza+poHMHFAQtg9CzswVCb42tCnfYheEPzAFpPf3S0Bac9lOjx/YIkRBUpKK+CRSvEUerXyGfIaEw3GxcayA4QHX0BaD9/Rd1zhxDDQutvdUhqRblfr4jDj5RTLGvhzlEXRF5WdHYVvKQBXAtToxzgPM5MKSHVFpb0VQSqidtGqZNOF2DG6nC1vCY0WKgRQkwRJel0/uRIPSM/DwgC1JMakA2MS4Ls0ajgBubBXxEgV98X0wD6nOGkQfcWXfYn3SikKBwlSVgSdOTA1XUE7qhdSHLRodJzE8Zlmak9woc+d5FXwqYsEFAYR5gLgqCUkPby9erZ3asCe9ZMHdUJ3uzxymPlBm1BkTYokYk3BEAHb+TwBOcOLVxH7uD0J477IzPzr35LCpANsHCkDXoBA7P7/iyxxGhwYI/Ic8bFhSFEeD+RxpaXEVAA05A7ZDWZgVq4sKUal7cmQW2ivgt2J6EaEuHjSmMFnndUX/XrOgnOaqQ3RyIxsAVSxyQ/cqL5jfLNjsIZWnhu4lCToFmT8qaOcQhEn5rF1eaoJjk0D4mFix/ZlPTkQFAwrqOG5ogSkYrK5I3H4l/5bd6sKpWEZrks2rLwOrfRy29wR3lJh6EQV29ZChzjRykeyGKpS4jrH5M8y8giUx95Qh+kBLAyWmaN+fH8lMkmCCbOhIr9gfsRq6zShACwoUA0Nw/SDAiRzMaNsfyDtDN/h0fljVgmDIzkhZtJVO37YgT3cN18UHg8lrBOlAZGE70/RTHSZyA56mLfvtS/VZcf+gqAMrQ+1yfmJfSGqUEWYDYRDAA+vMfJUGtDrX+VNraio2OBK5QNmnjIFcK3JDpvVYPAUPZRdIR6R2hADOi4CPdl7gBZCbThsOAm1CoGUx2cdDDuQhB0KgIQOROw2CRUPM0hi3JU1a9hPu0uTUl9Rywz9hvVZLBI73AHxI7YPwQqwLjmSeizSHj1l+w4Aio1U/CHK3/qNrf2o+lhE5ZFGkoKItDUa8LrpyblTO5OtRM64B5gkSWSuTgwBReKTcLvYXma/CdMAw4LayD/QG6YqYcfoGToCQE8Y224MiOPDLjYWHutAaYI0sVWQZf+lqViMq2L+vSyyjlj5iTfvDoPgOsIXXvyxaFo8cUkfr9yNAP7M7hPLMiOz/wDcOkY0G2NZeDGU4lUDEk8RNyzSsQ8nR2pEgqcNWLN327BCEGuAVTEvlDQJIr6lGLjgrmh9rjAgHCzXl+7mlJyFTOuWANhT5PAt6avMDpiObCwB9AGRT+vNvVRAulEROEGLoe1NN6jKQ01YCSAyO3XNTrq0ADi4xNemLzhsGBcsI9reBJtrba/YgsHimlzIO7m0Ij8dQA63OPi10Ft+SdopyGszjrcN4ZUlXF2hDN5OxVHOlEnmSs0h4GYCx7DF9aHysQGxEEDhbfo6A0uA6JCNF2I4kl2nCyiOAOnwD4scHJwQifZF4B/bclp4FB7fguCJLkPBEDSd5RxUZJntC8Qo15TAq9xzDUAQOGiRpABnKZwqX5ubSPOKdbwIJa8IgXIL2A+MNsKxIKDtMJICG0bcomUY19O+StXVgK2TVK4AAXg+tCeJOmV00X4AUFxri2vojw1dOEFkvg52qUDnESNxCaPtbNnckPFIHW8gSoJx7/bfRs1yq2hBj70kjCahCuDz1wFzKt1c6g8vI0YhvvV/Im6FPj8CyWDR3zdcEc68qdIIKKWUBnI061dgayW7euscSDtPimTs1oPqDxYlNtncd5efFNQl3plCKvpdwBzYJsNWiCcCtqYdGmN8LemDREvUa59Q+2poEVgNY8EKdqcUnrICeBM4lQDJnPEdvYIEKu123WjSD+IARm0EfAL4Q0hEHNwgnRGjmFn0QT5G/U3TzSLloMVxoeis8V7qSxHmkqAbvwXFjFU8Aa5inHsQDtKAKUBEl9lAQrZ39vGRzZSIlhsspv3VrwIgI1iR78D+EovsZxScxuKcpvsmvT8B23SRCdzfADkAsuDxNuaeEBbOtxzBwaXSk5hHMgEBBmypMmCABzQaUXgo2xNtHpQCYhECoALzRxmabaku4NJr2rmILa1zzZxQHDOq6kGwG8Qic/FcALXx4K95Dav1CF+6WgbEDe8kjpaqyfEW+a6SX9BUwaHuG8QYM4hN/HaIOrgbKnlI1pvaoBfhIG4oZJHF5yBibNaJ6eMh66yV2uoOX+UGFzbTJhOQSSHB7TKfv1uwv15lRM5zhDUvuJCcSRINGTD1r2IUKku7XRo6w3VXKbv2EVtZmsjXtSpPf66kDXR/YHzwVr5CAVdPIug5868msxv06bJPJWiLfZQWJqu/uWDZzwNCck/1p3qHWA9WCsZj44KA5KvNBcLi8LlXIARXi7MKtMSSDr1TbSXYXigBvcHbQYgeuW6Bs7lPiXRQQCxvraa71C7asm/QtOZHIhyz/48L3nwfTO5A4JzMvw9krMtYo20RyOsfa1Vj3OgMLhl8AXdicWl4ogwX5AoFBYKBu2wqX7tzF9ybmWqhdrBskCBdZMFrD/QBNsldcfU8iZRMRjasEnYnShbMNAN5ImbeCTKNHOETDWU23MPGJUMw3GPKMWuTSiIJCOk8BfU8gRjyAT1GXLE2gOgb/zMC14N5V4Fh7ilseQ3uc+OaEvyuwjvLNfGdXLlHXxDqr+N6xEkpzL6CDMiPQHU4UhAwvtsYFzx4LwwcGSrhozIVRkHCmMl9RYpeiobEI53L2LrMtVyuo8o6Brx0ZgPpC8GSvXA+vHbS95DLTnt8lRgplvl3vGC4A4IOzVs4tRBS+C1yL9yM6+XPyGrUDnqPkVdciEXQJ7wJ+I/ZEZ9bMIHCh5OuN2pP8xyklJo3KJJDbwFybvr8mAoq6MmDfqf6OWpXRVUkm6ciEbyDUMI7SHYZXGNRbhn9MBfVmJH6ktOfb3dspDf0IKiyPXgJCa0NrLmFZoHarkPSAcWierin0+/g2VXWambWpBLZEbzPXZKKh+QHTdd4u0Ap89vPdHxR3vQtzkdm0xs5xayq2pMA8MDMlAeWO7EHSFxtrpfs1cEAL5NxvqukLh9Dk8lgR9ua5wwcrfps89RQCzufvl0tLvEege+CyDs/do/rB46ppNaGNYGJC1BkkNMcyswovY/ND0phcnPkFOamSFBKf9pamb7jfnNI2YNyhAg7UcgABeL04PbZMHEbg9dr2ZCJ/hV4QWIgvSCB7rwH7m+CpncC/iWbenXQH6QRDvfFe7Ht/giHgJ8b1A3BxFKGlOPVFQSdnbkLcLYbgQZE2sbE4LnyuMVTaOilm52oDJpPDo+FP7SFIUqHC3fHo8ewMe0p0hokWtkHvJxQtVzgBqsSZImI+Vch5M1AfZci2VUgzZrtyCO8yYZWDE3dMhS4k1B9t4OMhWSYjEJDEHOaozLKieb/CxL4mu3EfKJSJ9x0Y3A9VZ9n2cq/RtRwASQCx2BQuD4JzCUnIa/FiAJ9x7ADmpvO3C1AcQ2mXT0nXq+xK6tVJPiIudG4ahttYDiqH6aw61R2lSkDVzBAfuUwl3YDQzBLKorDIyCPLpEQRjPWK8FIKntpfkToBYtAY5/XIe9aS0AWx1C/uG1bT/eqJ42flnh/vhDe1VoTDIMQedJb1DWsbRXgqqWKLJDlWm6eDfjzVHKESFj2Gf1iwfYLcmifeqOyoTk02nEPPrtxkApJPAyqwgCZcXh8T9qD8N36qnlGGVzutf9De0hARacAxeDgVBahhUd+DLFa5iCFqkbopAGV1fhjIpa0rzfUt9xKjlDALf9ux4NJ2lXGwXuAQnHC9rNSgdLHqi2JNUAm+ztIxmmTQggB3151KuS/FbD8i4NVWkOkAOp1bhc+axzTi/BKc5KHnQNw2laiJzW3n2VeeYqO8s6EKHaxNaoU9D8MVEhE13QbE/rXrvWTS2GztuCRjWAajIBpCPab2fvcGumeJNryOf+yDbCPT0V8IhUD5oYJJXxL7FGeVzqIrLEXrv3Xlms4SzWxIvKAUuUawAPgry0hl1GhUWwS3gHQ5kGaEaZDUOqrYYx7PAjol9NJapQTG4aKo9q0cssFw2t7X7yclIGas/lSYl4k8OauPd+ioY1+M9rnopUKPh5IQewisX3ZcupLIS47GbcTnvkM4Kn2DgEEw6kUkwmj7Wb9uFghLA1NqTNLD8RPyjLZNr0wPRPeeHGh6tz6Ju9JjkeSb7wJnGw2wnljuaC0DUpoS7kAWgbCgLdAP75rC22fmRwpuRx0275FKKivDWKCnpN3FYaYjfyNU5ZQ4wiNNNxOEAzAqlhb5LGn9CN3ITTLERXsSlbtnGowkprlw8ldviqgSiN/aCSQWhOCS/Br/CmakkNTTTkzC4WkFdtq4BlRulDdsTegOWlGIJyEr1oriIpMNfSVIim+9AtBXjpsDOKaqEh8/bQCGevKKuiGS2yauGHqHbSF30OIF6xo9Z7SS/LowBRrIn2gSdXmBwSH0ZNGgWCkRAX8hMah33zmfVgCuEFtESDf4k2Ut0SwgGhDTGikfBgvffoKGfQsb+xBW6dldzywVf37dXpACu1eSsy13wPNlzzvgbVsJgpaJ8w6sETEkHduWHa7V/ULiXjSQjUIi5IUq5rUq/1G+/hlv1BJVgdmHdw+NxcuX5ecqvfMkdXVDKyastIEZ8LZhHsK4mLpfDEiEydrb1OhFQddhBjSWa3UEh+3BFgSQ61fKgwwSLXQVqiD+MKhNQHTUx+et325t+RBTg04AW00oDBQadyazL54iwNT0GVWmOZSk01oUJAAVRM4KIBIqNUC5IwZ+jKk+TA0hBZWrzue/cYr3f3RbONB4kDfXGByHyYn7tHg3KJQa4RVUd1aF3AaDsSH6ysU23m/F0WG3ixJvPSu5acuKKnblymET8iisjT/GD3awq9EuBMTbxOBKwKtRIDXAiu1BPq9trdLBmc0uT2c8ewUsOIGdIcKuGG253a8fvxdE1yaoIJtsubMvy05qgATBTWWhsOyABWA2GmRjE8kdWCmtBDxCpQMVxCy5TIs7lqjuVEbYLxSbBTl0ZHcDv+yMRyw6FCuLhIPmmoLCEuoBkUlpqMRMVxcRs9mUlLLms3wPkiDAfOb1xkFalzonrntqirGXU4RAi6jbPOm6AD8bg5KgSDH0xjSFnKRpvj+DdgBIhd49tpjni6+hmGNRRtjPAEVMSthDeb0xDs8S0ZylGbNXv4K6UFasM9S272jLEpdrWLZu4aynm2Fw47qCoktvYdkmtgtqIGnZNluEfNt1CNprYRrjOQ2kfPBoC/VD+KE42QtO8BAqgfTXGWa90F0i/LBpYW1Ixc0spHpk9DQlXNnK6xN/X5MsmIzk0QszapKfYk2QzOjeakT7lKuWA06iRpcGgtXUrgoP7N8BphHBQtBRu4xVSacEFTEaws5qJqgAQ6Ih/Js7hZNnJaC1sbvGDfzXzTbhZybnNEKiRBY2RKg3Mr4ALmmFdPITiIuWgAuF3U8X4xUEqyknqQIWlTSbtZwcuddip2vgFNjFHRE2tw5n1dSSfQ1TBMNPUjQsMZHW/YTcQTRTqbRnvUz5AVxDZ8RjY0NPXdDeqxqY8G01YZK4K1SayrMdvrkaeH9Yk4NHBJ2wBg3mA58qa0r6Y+5yTzI8ABMwxpSDwA906CgIFALaXGoWdaVdv9b/gBh0agF2sNYhNJxMfUpPAGhk2aADVxJI9F9gWswIXeqhkeNITa+vWxCCBImpHnUWOk0ntgyL7gVAX61X64EoLNISmoWTX+C78FMMraxwBfGtoETU0KGpyD2gaA1aI7GiHX5JlUf9fYOpHCiwiwNdQmYfV28L8zCTiaN7r7nflDNVfuFetd9sUCwJFJ05Zghsl+uJygSe1km/a8MihdtCngwV4yUcN40/RcQ5uyzmA0+K4OIpQZUi0cQjlArWkCCAt1mjqqXOx+m/DqYKDvNhooqyew9MACjsU03xcEPARSkwUgvtfw3HFLWiOqoHOEpzXrKXF0NP60yV1tQmpnY0/NtXc5G6gRoaA9PdSJfy7fN+z6ThshSNiFgh16xxwSRO1Iovhh4o4mywu5z0WqXaCRn+kXXgokW29EeyWnlmnV/kS4yFsWUrMg2ubTxU9UJDcmlCl69ES32bFtTT0ArNyPzVtgwenalLDUlIZtYH8jFDjqqVHCMDEkUTp19qsm40lvj1FzJ6QzkkhPtGASjhsabu/XjnZDJOvxFnLDJAjYTci3VK2fWj5cqLWqSehlIAGKQEJQAq9ed/UADIG6Tc9UhIblOXIkJLbpeYmq7v6bsW17VknZhnvvV3MIeG/EddHc+3GIOe2YK2RNQ2cbppGOwf+DJawT6Dq171RJY4pnWuCHpv4cLlmT35rmV2aj1o6oFXeDOdAoeUuL3IBYIVdNPWuOQ35jqzmHhJt+J//mU5CqhADu3te9XaN7uRsIU5OQmnZGrFCjGvFcIywNQ8sKt6lGFVBxPpHQjoqpL0l+amwIahReUidcOtKtKXxQuJ51QABqj3Vo5Ax9qbVWbReCvCDRqk1J1DBHchoF6WitSKm/QTio4SKutFuvOgfv68KTHVJgkzmIqepJz6My63I5c2g0x9UgHocDO+vUgkat+R1EpgZmPwkHTU482IprIiYkQ4EZ7S43Sd96nux2TcIUzb2gPIwCcmafqa1c04AnvwWTkYEA4c1vgqBoTF/96D47jLGbOjSGy4a+ccXyv+h608De1T5uYY0bKwKK7Ddtjb/Qg5EaX9OjlCyGbi03Pb58S3S5YWFhT3WRoFnMH352P1KVwQUJEJnaEYb9xhuOwiNdPY2FFlgaIFbZXGTNaxqD5nhTcSpXpnF7OFND3ijmS5qBTkdDsGn2hCx4O9oRP0kGoZXeIyYOToOJTU/9UDNHb43QftRG09I4GRpHT1SG5eVgNdY9+L2uZ57UGNTMj6Da+e+DDX8duVdnL5ajZlYSHWAHsIyAOgaIuuT1xlcrGqdAsOtxwjf1LLTjiJri2JxlaKyTVBLQk4ET3tETZW8ekXgHVLuelzLliiZ0HSIsBEFAkOgg+FQQqjTo4bGqB/2GbMSbcsJgYnO8pjDiId3gY6/W9NJjuC4/xNWUEvynhq9XY+xK+gsHTC4Y16VpCOhJ+xN6ZGVMQIZkk1SvSxvBTu0FPUjXpClb0y472olc0w5fIuObTA96ZhmaPnEI6Ibr1a4McRnNH1IgQ0ccYpB8oclQbtPkidqR6FWiAgKo2wcaUQlVfpbiBumosy9ed/wGwru5T4huhAWfpM6Im40xRFmlqKGI1DVltdfbskTGYQsp3w7wH3WRuTc9/YL0849aqCZ7Y1e7ZmVHwauUPvJ8PanRgp4BQIJnwtdWJr3IYT3VpP4hZ6t6mh7QBMpZfoiB7E4JmpYPztpIp7oC4HNIbtIVvKEWdTDTFOgE9zT9xFldYzmaBkU1iqunoaaeC/J8nksz1RolCFKKqGA9uAS4vQcQcQMaKCji4KiEBONGa2opvbdra0NrmNQ5/6xnlnGC/srdd2/U6KT8K8cBBcmbgzINc7gOv2gnF2SbUrVdfKg+C6gkZU9u+vd8oKaKNB43cOinYABq1JNMmrNVU9JdUpT14pZwzgXEvuqKaZAFkQH4TXATCJia2ogZSsQa8+vaVxVLJmSsKtFQIygL9fG19dAr7AGzzSMV57sanCDf1JxT87kJf8AdUB3ORj1oF7lMjTQdBxbxoxP0iBVIw2cdYyBHONh71KvLwaGi9DReeE/fjfh5JLICtay+Hp6KbmeAY18gWttnkJ4tmfkLPy/8jijFp6cWP8nM+QFfPcMxQFrW/YnD7t36h4dyf/t6kc8iYFgLz9n0zJ4e3pklvZ0/F9qbKzSVV4PUkx7U1ZM+ZDRSAg27TfWjBxiR6MCVZ8VW73ruq3XZemrSkvaO9Lw2KAyZzD2g53jUqMBxUSv6f0iEnvWcy3r/GwvNb8hndXmKczQSo0c1g0vkfkokGdHBcE7Vf9dojAhZDDu0EyuAjv/w3GErbnRYaeRRzUf1FuCyrKfJ1LXUdDMaCWukTU7Em1HYxKSVl0ua9esCUGk4Z4jwcbrK8MDk4DqkPNWxFoFEr5k1fLXmsIDwTrilwrR1zAFQlUWZfs902/K9WyZI0+ekRtS0QIaVtG1IVI7+NwMs3b0k/AXnjmnzSBta2moWbpjGqoUClHnS/6FDYxdbP34+EjS3H0/h+T99RSWggtz/AnqIaVMhMwSeAAABhWlDQ1BJQ0MgcHJvZmlsZQAAeJx9kTtIw0Acxr8+tCL1Ae0g4pChOlkQFXHUKhShQqgVWnUwufQhNGlIUlwcBdeCg4/FqoOLs64OroIg+ABxcnRSdJES/5cUWsR4cNyP7+77uPsO8NfLTDWDY4CqWUY6mRCyuRUh9IpO9KMXEQQlZuqzopiC5/i6h4+vd3Ge5X3uz9Gj5E0G+ATiGaYbFvE68dSmpXPeJ46ykqQQnxOPGnRB4keuyy6/cS467OeZUSOTniOOEgvFNpbbmJUMlXiSOKaoGuX7sy4rnLc4q+Uqa96TvzCc15aXuE5zCEksYBEiBMioYgNlWIjTqpFiIk37CQ//oOMXySWTawOMHPOoQIXk+MH/4He3ZmFi3E0KJ4COF9v+GAZCu0CjZtvfx7bdOAECz8CV1vJX6sD0J+m1lhY7Avq2gYvrlibvAZc7wMCTLhmSIwVo+gsF4P2MvikHRG6B7lW3t+Y+Th+ADHWVugEODoGRImWveby7q723f880+/sB/c1yePNp2zgAAAAGYktHRAD4APgA+Im2+KUAAAAJcEhZcwAACxMAAAsTAQCanBgAAAAHdElNRQfkBhAOEx94ITBmAAAgAElEQVR42uy9d5Rd93Xf+9m/U26dikqAvYFgL6JIiWIVq2jJcpNlyUWRnp6f7BQnsV5sS/FKHEvxWnYSJ35O4pcnRrJVLNvqImVRLCIpkWIXKwpJEARI9AGm3XbO+f32++PcCwwwd2Ywt8ydIWevNWuAmbn3nPs7+7t7EZZpydCXHnmEFUPn4FuDKlitIYkhEYNf8yUKar4nxjdG/dhzoeJlfKtZi2ZFJQNkDBoa8EACEFFAUFU0RiQxSuQMkVNqQCWxWvNVqohEnkdicTaTuCTxPDWewbqEwGRIjOBU2HNilo8OBssPa5GTLB/B4qKvP7YPPyPkjA/GAzR9Sk658bwBvv38nkzGBkVVhoAhEV0JskaF1cAqgRXAMMKAQhElD2QFMoAPePXn7h1++gqABVz6XRNFakANKAlMqDImwiFgBHQfsA/YJ8p+VTkUixmNkckbXilHj20sIigGQRUUwXPCw+cX+bQss9wy8JfpMD3w0iRRzWFdTCHwGR8ve+QyWZwbVNF1vnKqEz1dRE4T5SSQNcAQ0A8USIFtFuh2bUMoAOPAQWCvojsQ86o63eZEtxuVXT6MJ9avOj9yYaJINkuiGW47LwPLQmAZ+G8lumt7gl8qA5ryvoK6qmetP6ToiYg7Q1Q2ishGhbME1gEDQLautRczxUAVdFSQ1xVeVnhRlU2KbjPIrlH6D52gYy4OAwQQJ5RsH++72CwzxzLw31z0l1crp/2PCTxxmKhGyWYNYbXoY070nJwvwqUIF6CcAawF+o5Xg+sRc33609XminXqz7TJa1WncIdOf995Mo5TGBPYjfAKyjOq+rSD5wPYLYfcpKwymmhI1ZV4/0XrlhlmGfhLl+5/tURSilEEyUSMH/L9bCZZIyIbRLkceLvABcAJQP54gD4V5CJgBEQEzwjGCJ4Hnjny/8NfAkYk1bBSB68IqNb98BTsqopTsE5xTnGqWKv1/6c/t05Rl/7dVKExD8vdpm6CvoHyHGJ+4pw86dRt3TP5+v5TVp5uBUUsFEyeK89bDhYuA38J0DeerVLwKthKglUNPOOtMp5erHA1whXABmD1bGb7YUDVtasRwfME3xMC3xAGQugbfF/wPZOC3ROMpCA/DGxacKX1iJJvCANVUiHgFOsgSRyJdcSxEiWOOHHEiR4WGMcKqONwD/YAm4FHHDykmjwXxsGBaj6yec0RDRa47cRlAbAM/EVGP9haQZIIgAdf8+Qd68prQC4Q5HqFawQ2AoOzaXXVI1rc8wxhYMgEhkyYfg8Dg1cHucgMgNLmVn9HmEWa37MqOKepIEgctVipRZZa7IhiR2LrwkCPSwhYhYMCL6D8UEQfFMdzL1y8cuSCF8YUEUwmzw1nLguBZeD3kL75cpl8NSablKlINm812eAJNzjkJoELgTXNwH5YI9aBHvgpuHMZj2zGIxMYAt8cNtMbT0p1kTOTHBE+zmldEDhqNUulZqlGqXCY6ibMIgwssBt4GscP1Oh9imzz41rFZPuoRAnvvXR4mQmXgb8w9P3tJcxkDKI87Ts5v6wniNErQW4XuBY4CQhn0+q+JynQsz75rEc2PAJ0ke5r7wVjsCmfxakSJ6k1UK5ayjVLLXIkdUEwhzVQA7YD96lyJ06euPWS4b0/eGEMEFwxy62nZpaZcxn43aH7tpaJK2UqRIFHcJqvcovAexEuJS2eaarZG2DPZTyKOZ9cHeyeZ6jH2N46TFf/vNYpUewoVxJKVUu5mpAkadBwDktgH/CYOvm2M3qPi9gRetZ6+QI3nlNcZtJl4HeG7nkhRrUMAnGSZDF6gbG8D9GfATmHNL8+DfDCFLDnfYo5jzDw8IwcZRK/pRmwzoGuLgRKFctkJaFStUSJmysuUAZ9QZFvKnqndW5TNsxGijKZyfPzZ4bLzLsM/BZBv7mCjcaxSZDD6EUG/QDCe4AzOCYq39DunhGyGUNf3qeYD8iGR0x41eUznUsIWKdEkWOykjBRSqjUbJpCnFkIxAqbUb6rytcqvj63OtYoyud597IFsAz846W7XlEy1QkcSjW2OV/1UhH9oAo/I3AyxwTrGgwZ+oZC3qO/EJDPevhvQTO+o0JAIXFKpWoZL8VMVhKiyOFmZlwLvKLKNxX+QdU9kwkykaqQaB+3XbjM7svAn4HufrWCjI0REQQGLjCGD6vq+4DTmwHeGMiEHgMFn77CEe2+DPbOCgHnIIotE+WEscmYas1hnc5kAVhgq6p+TVS+6mJvk5+JrfhZbjqvf/lAl4E/BfBbS5jYMhYmplDSsxH9IPDLwFmkHW1HAd7zhHzGY7AYUCz4BP6ydl8wK8Aqk+WY0cmEUjUhsToTIyfAiyhfUpWvjYwe2rZm1RoNggzXbQiXgf9Wpx++WGNN7HjNlddg9OeB3wAu4ZiUXAPwhazHUF9AIe8TeOaIf79MC8q41imlSsLoZMxEeVYBUAUeReUOteZOk6mMhOEg15+dXwb+W470j7j3xd8BUWxFC9a3Nwj6ceAG0jbXaYAv5vzDgPeNLIN90bgBSqlqOTQezSUAxlTlbhH+SoWHfd+vBJ7PdRsKy8B/q9BDL5TZ7UZl0IXnOpWPIfoBYP00wBvI53yG+wKK+QDfWwb8YhUADQvg0HhqAVg7YwxgO8iXE+GOsMa2oC+v15+TWwb+m5nu31IiiROqRMOBlfeL8FuqXDzVj9c6I+UzHsP9If2FZcAvKQFglclywsHxiMlKklYFTv/TGHgU9L+r8+70M2bcNxneKgLgLQX8BzdX2HNwiynk1l3sGfNPgfeTTrE5isLAMNwfMlgMCAOzDPglytixdYxPxoyMx1RrFm3O8PuBr6q6/5krrXoxHi7rTRsLy8B/M9ADWyokSYSNkkFn+CVU/ynCBVM/vwK+EQaKASsGQrIZr1Fct0xLnMFrsePgeMToRESUNPX/nQpP4Nx/tVa+k8mFEyqGmzf2LQN/qdJ9myfp25fh4ODYuar8M9IU3dBRZj1QyHqsGMzQl/fxlgN3bzomdwqlSsLIWI2J8kzmv+5TkS8Cf3nr4IptD4xXuO78/DLwlxI9siVi0lWIq7WcMeYW4JPAlUwpwlGFIDAM9wUMD4SE/rJZ/2b3/5NEGZ2IGBmPqEWu2Z/FwIPW6Z+FiblP8n5Uixy3XzK0DPzFTt99WalM7qHoBatw8nFBPwGceKyWL+Z8Vg1lKOb85YqGtxhVqpYDozXGSzG2efDvFVX+mxH9G8/3D0kx4N2nvHnq/t90Y01/uKnEdzzoJ7gQx38W9FPHgj7whNXDGU5ak6Mvvwz6tyLlcx7rV+dYuzJLpnkA9wwR/oMifxLX7Fl/fvI3uHdLZVnjL0rQb6kwUq74eePeDXxa4B0cU26bz3qsHspQzAcY6X7wTqgPv6wLHauKXfYnFhWVKwn7RmtMlJKZTP/7PZXPjPvyo6In7paNQ8vAXwz0D09uYiCzDmttUXAf1tSfP2OqlveMMNjns2owQybwFsSXD4xQ8IWMJ5j6USeqVKxSrk+dWUia3kcwPcH1VtxxIQJxooyM1hgZj2aq/HvRoZ+JbO0bhWyxgity0/n+MvB7RV958VlOMhcwXj642njut0F+C1g5lbVDX1g1mGGoP8SYhfnIgREGQ0Mww/XKiWM87gz409HYjTHZjbHXimv8vA56nWvyh4BQH+RJOqXXNL7Xp/Y2fv5mlA+qMD4ZsfdQjWrkpn1GhV3g/mss8v8O5MPRa88cWAZ+L+h7r0ywISryYmXv6Z7nf0rgg6Tz6Y8y7dcMp6b9ggVOBAZDj6wns4J1InJMJm5e7+3qc+/T74qtf2/8XOtqXbvAJA0BkI7wFjyRw/9u/PzNQJWaZd/BKuPNTf9xhDtEvP9kRF7PBBmu2ZBbBv5C0b3batxwT8g/XjFykSD/DvR2IJj6yQYKAWuGM2RDb0HTdBkjDGU85jIualY5FNkZtX5Dk1tVEqdY57B10Dc0+WIwk4WGIADPGHyTCoWlahmIQBQ79h+qcWg8xuo007+K6j+o6L8vU345Xz6J297hLQO/23TP5nEixWhce4en8hngmqmfxRhhxUDIqsEMvr/wQzEKvmEgnDthYlU5WHPEU5DvpgA9cemwCbdIQD4fpjIiqQCYIgiWkkUg9WcxMhax/1CNZHpE1qL8o6r3h7defOVT39/6U25dQpp/yQH/B1vGGa0elD6KNwJ/DFze+ByqEPjC6qEMwwMhRnpTgTcf4I/ULLX6iqrEpUKgYbq/WajhDgRG8OuCYKkIgdTvj9l7sEo1nub3O+BB57zf35k59OjJyUq97cL+ZeB3mn64ucxYdcwP1LvNGPNZ4PyjTOzAsHZFlv5ib7esZDxhKJzb1K9Yx+5STNXaI2un3uTUSG8GxhCYdCvQUhACpUrCnpEqpaptFvR7XOH3Rydq969bMeiuWwJNPksG+D/cVKZWqnjqu59F+GOQjVN94XzGY+2KLMV871MsRmAo9MjMEdzbW47ZX4l4q5IAvjEEniGsC4HFfK+VmmX3SJXJctOg39M4/o2tVu4N+wfcYp/ttySA/8DmMpVyOVDD+0X4LHDmVAAVcx4nrMiRz3qLRmtmPGEgNPgzaLOxmmV3uXaUf/9WJiNCWBcCgZHDCz8XG1hqsWXPSI2xybjZnzyryr+pRfHdhcGiu+nsvmXgt0rfe2GSsDxp4sD7OUT+I+nwy8NUzPusW5ldsMh9w1Q1pB1fySy+uC+Q84Wcb/DqRx07ZTxOOFBJiJ1bRvwMVkDGS4XAYnQD4sSxZ6TK6ERT8D+jjk9OuLF71udP1qs2BsvAny/dt7XKobExvxD67wH9U+Dsqb/vL/icsDLbg0o8czjqW7HKZOyOur5VJbKOmrWgkPHSgBZAzToiO+ts+GU6LGBTARAuMgGQDvlQ9o5UOTQRNcsa/dTiPjmU9N9bLaresAij/YuW9x5+aYyd5az0M36zIH/GMYG8/qLPCStyMzVYdNxnz/uGvC/TTPephThuCuCTKSa8LsWgyiIif5EKgMQq+w5WOTgWTeNBhcdU+Z3JfOGRIRdx0zkDy8Cfi77zXIUhOSCTLvcuVP4c9NJpmn5VjkyX++el7qsXfDNroC5yyu5STDlJjgL8MnVeAGTrAmAxxACkDv69I1UOjkfNePEhVfmXgec9WQs8bj9n8fj8i7It97Q1I0zY/CUofwx6yVTN2Z/3OWFl90HvCfQFhsE5ovMNqlm7HKjrtoZ1jlKcMBknRNb1PJCrpGPXV6/IMtjfdEHHVSL6R7FLztq4bOrPTN/dqoTJGNVafGZo5M+B9zTuUYG+nM/6VVkyXQ7kZTyhLzCEx5leKsWOHRPVWQN9y9RhxhXIeB4ZzzscP+m1z7/7QKVZwM8q/J2q+71MkN3x5JaH+b9//tZljT+VsrURakmy1jd8Crh5KugLWS8N5HUR9EagWNfyxwt6pzAWJcugX2htq1BNLJNRTDWxh5uTeqX5fU/S4rFC0Mx4/DkP86+jWjJ0+QXvXDb1p9L9W8aJEu3zlH9lkA8ypeEmFxpOWJkll+ke6AMjDIQefYHBO04FUrPKnnLEoVq8jMQekVVNzf8oIelxejT0DSesyFDMTePTrAr/RIz7vyrVcv6ezePLwAf4+jMJcbUUGqO/buBjQLYh1UM/LcPNZ/2ugT7rpb3zOe/4usmsKgerCTsmq4xUY5Zd+95T5BwTUUIlSXqm/ZV0c/LalVnyGXNsmq8P4Z8b6//CRGnCPLCt8tYG/oMvldk7ZsXhvwfMJ4Hhxu98X1izIkNfoTtFEMIR0z44Xn8+cbw+GbGrXKOSLBfgLCZyqpRjy2TcO+2flo/XU83TG7XWAn+QNeG1ia3Jj7eNv3WBf3D/BKf3j18E8vvAKUeCN+nUnIFid9YZewL9oaEvMBwP5hOn7K/EvD5RYyxKUF3OyS9a7W8dk1FCzfYO/IW8z5rhDN6xq9eEDSLyqVo53jBaDt6awL9/S5lcwTtJRT5F2l57mIb704023UjX+nV/vuCb4wJvOXG8UYrYW46oOfcmAbxM+XqT+v5RTDlOetbiPFBMZ0Ico1gE4TqBTxotr7hva+mtBfz7NpUZiyZyCr8J3D6VA/vy6bz7bnRrhfVZeNnjiOA5VUaqCTsn61p+qcBEBIxBjYcaD4yX/r8hRVURtYhL0i91qZ4SwJj07z3/yGvFLMkpnApUEkspTrA9CMQYgRUDIUN9zSL98ktY/UipUso8tK3cE7G/4PSDJyJiM+EZox9A+HNgdeNB5UKPE1fnyOe8jk/OyXhCf2COy5+P6qb9aC1pNnpp8QFdBEUQdUhcw1RLmPIEXnkMUx7Hq0xgqpNItQK1KpIkiE3ACGp8NAjRIINm89hcH67Qn37l+7H5PjTMo35Qv4bWR/Yunaimb4S87xN4ZsEBFsWO1/dVmCgnx8rP1xz800LRv1MnAr3u4oXr4+9J87p38iTuDb1IhX/VAD2kudDVw5m0vbbDPJX1hP5Z2mSnUilx7CtHTMa2d9JxLnYydTPdWUy1hDd+gGDkDYL9OwlGduNNjGBKY5haGYlriLWgjvqkTtS6dH7MUfCtv68xKcjDLJorYvsGSYZWk6w8kXj1SSQr1mGLg2iQSV+jmr73IqbEKZNxQl49Mv7CzcdT0u3La4YzRImjdvQUn1MM/O7kRG0LhcxLb2qNf//mCpVKZaUx9s9BPtS4BxFYPZRh1VC241ZlzhP6Q2/O/LwCY7WEvZWYml2EvrxIanbbGH/iIMG+HWTe2Eqw+5UU7JUJSGJQV9/0K43TnW6qK6hTNJ3eeczvdMp3TTW8COp5aJjFDgyTrDmZ2olnEa87k3jVibhsMb03dbCIi5kEyPk+Wd9bUO9FgIPjEbsPVI91OxKUv7LOfKpYKI5duyF88wH/4Z+UmcjXAqv2Eyadl9fXANxgMWDdqhy+19lbyvlCfzA36Bv+/P5KTLKoTPtUA6MOUx4n3P0K2VefJfP6FvyDe1KNrpr679JCsE4VlyjHvd6nbuYLino+rm+AeO0p1E49l9rpFxKvWI+GuUVtBQiQ9T1yvregzT7OpQ09B8amTV0aAf51Xvr+5poLM+5NB/y/Kx2gf6tcg9H/xZTe+kxoOHlNnlyHTfzj1fSJU/ZVYg7W4hnWJ/cQ8DYmGNlFdttPyb38JOHeHUi1nAKvg0E3Termv86bm+tCwMP1D1E7ZSPVcy6ndvJGbN9wfUb44hQAWc+QC/wFa/UVIEocO/eWmawcO7tPnlblo9lc4afXb8i+eYB/z9YKyURplfr8d4FfaFzbGGHdyixD/WGHH2qaspsL9JFV9pajw1H7xQJ4SWKC/dvJv/gI2ZefJji0B2zS1Qi7WkUT13rMTh2iisvlidefQeW8K6mcdRl2YNVhIbHYKOMZ8gsM/olyzM69FeKjV3VZVe5A5N+YZODQLZf5Sx/439s6hq3YwFP7WyLyGeBw+HK4P+SEldmOrrbKeMLgcYC+Zh27SkeCeD0nYxBrCfZup/DCg+S2PI43fjDVmMYszONyikuOBP5aEwCKqEODkHjdKZQvvIbKOW/H9q887Cq8lcEPsO9Qlb0Ha8cK2UOq8q8qh7J/fVIu7y6/snv3syBR/cHEY0yiS0D+jwboFchlDCsH03x9p1ghNGnKbi7QV61j92IBvaQpJv/QHgrPPUD+hR/jH9qXnpIYkAXc0mIE45vU72819y2Cigc2IXjtZQZ2v0buxUcpXXYjlbMuRbPFuvZfHAIgrfBLFgz8Agz3hZQrlomjJ/YOiegn8oPVn+wYPrR5SWv8+zdXqEYTA6Ly5yC/0bimZ4R1q7IM9nXOxE877Obuo68kddAntvf+vDGYapnclkcpPnk34d7tKShMj6upneLiDmnnhgWQzVM55xIm3/4eonVnpcVBi8j/X0jNLwKT5YSde8tEyVEmf6zwF5rIH5riQOnWDd3RzV3X+NWyEYzchsjPMKW/vr/oN+tdbpkaE3PmBL117C5HlHoN+noEPtzzKsXH7yK/9XGkWj5cZdd7t0MwAXXwt/9ZVTyoVck/8zDh669QuvwmShfdgCv0Lxrfv2YdIpb8AkT7VaGQ8xnuD1OTf4r+Aj7gfHPvbfG/v2tJavwHXyxRjsuno/I5hOsaoM8GhpPX5jvWXy9Af+hR8GVO877h0/cW9AaJK+Q3/YS+R79LcOB1mubaFwG1HfBrak1YCEKqZ1/M5LveT2392UfQsAgo53vkfH9BHkc8Y5Sf71g1Hy/kMnuv29D5ir6uqpYkin1RPoDwjimKhOGBkGwHh2oU6hNwZ6PIKntKEaVeg94YvIkRBh74KoP3/DXB/tcXdS28eIL4HWYT40GSkHvxcYa+9T/IP/cAksSHYx29pmpiqdqFif2EvmHFQKbZ+LDrPHHvryauK4fSNW67b/MEUaV2KcIXETYeNvHzPietyeN1qFAnV0/bzWbhx07ZXUpTdr3258NdLzHw0N+T3fZc6t/Kopx3Ol3zxy6t8us0AzqLyxcpvf0mJq58L64wsChMfxEoBD4Zr/uBVVVl1/4qI+PRsYB8VJB/EmZym64/J7/4Nf7XXlLicrWAyK8hRwp1/Pr66k5V5wVGKM7RT281Lc7pKejr2jz78lMMf+//I/vyMxyO2C8REt9AF7ol1XhIpUTxx99l8O4v4B/ck1oEvRZ0CpXYEi9AT78RYXggJJy+I+ISh34gjm3HG/e7wnkXlx/DelyJ6M8Dh5/iQDGgmO/MCK1GMG+2TjtVOFBNejsTT9JGmsLzDzL8/c8R7Hl14XLyHbYNjSfduW0xkFjyP32Iwbv+F8GebYtCKFpVyknandlVIQPkMh7DfeGxxxsK/IpztQvv3VJd3MD/na8rm+TMoiC/CpzU+GChbxjqDzpWqJP35+6pH40SRio9nIkngtiE4jP3MXD/l/FGDywKbdaOtJVujbKutxVntz7D0F2fI3xj66I4q8Qp5TjpetxRgMG+IA14H32tM1A+lERRflED/7/8nCDqXyNwG0d6wxjoC8hn/I4cYLa+3WY2mowd+8o9bLhpgP6puxl44G/xJscWR5quEyZ/Fw9UxRC+uonB791BZufmRaH5I+uoJN11FRXIBIbh/vBYNvERfs7Z6LIHNlcWJ/C/tbXCd58eHzIkv0JjuIamH2ioL+hI4NqXuf36Rv19z8ZkiSDOUnjmPvp//HVMpfSmAH1DNUmXh1mo8Qh3vszA9z9PuOulRaH5a9YSddnfV6C/EDSbKH2KoB/Q2GUXJfC3OfC8+CpBb2JKn/1gf9iRRRgCFAKZtUgnDeb1skBHQCH//EMMPPQPmMrk/LXW1Hr2Rg9+4+eLAfte92sOVAzhjq0M3v0Fgn3be675nUJlAfz9wBeG+4Njx84ZhPdWbeVt920pLz7gX2hrRQMfANY0+DQbegwUO1MMkfGE3Bza5lAtYTRKehc6EyH7ypP0/+gfMKXxlhhWwhCzYgX+ySfjn34G/umn4598CmblSgiC3gsAqYO/y6TiEW7fwsB9X8Yf29dzzZ84pdJlf19JZ04WprWoy4kq/GISxx3x9TtWsvvDrSUqldKVgrlxCgYY7AvS/fVtHpZXX281m4lfii0HKj3sqTce4RtbGPzh3+KP7p8/o4pgBofw1q7F5PNwTA7Zcw5XKmH37sUdOtTTOnfxBLXSdSGkCNnNT9GfH2D0pl9LJ/30UPBF1uEbS7aL47t8zzDYF1CqJFMD057A7c7GX7lvU/XRGza2Z/V3TOMncbkgyM9P1faZ0NBf6Iy2z/uz1+HH9eGYketVMM/gje1j4KG/J9i3oyXQe6tX4596Kqavrz51R4/+EsH09RGcciremjW9rfaThWsaVAe5Z39E8cnvpwNCe/i5lbSyr5sLOxQo5gNy033901DeZ5Oo7bx+R4D/w02T2MRcAHJz4z1FYKAQpL59mwI69IT8LFF8BQ5WEyZ6VY4rgokq9P/kW2RffW7+gTxVzOAg3rr1yFymvCoEPt4JJ2CGhuhpa6uRhTGtRCCKKD7yPXJbH+t5ebNVTRd1dvEavicM9QXHdgp6CO+zNj7znq2V3gM/jq3vVG8HTm0AMQwMA8X2I/kiUPBl1v76Uuw4WIt7CAEh/+KPKTz3ozoO5/mhgwBvzZq5QT8F/BIE+GvWIkGmZ6avyAI2FonBTIzR96NvEux7redZksg6osR2kaOgmPfJTd/BdyborSPanr3V9und89IEiY1PFfR2plTp9eV9Mpn2tX3WCNlZHnLilAOViLhXJr4xhLtfou/R7yK18vyBoIrp68MU5um7qiKFAtLX11tzfwF306sYgje20/fwt1vLlnTa5Le2a4s6FAj8psozi/De/trkuntfLPcO+HEyKRh9NyIbDpspRhgoBm2/uRHIB2ZWLI3Wkt612YrBlCfoe+xO/IO7W4s6iyD5QmsazBhModBT01cWuPpYFXIvPkZ+08M9r3pOnFLrYhefCPQV/LSG/2j5comHvuPvtnq9Af6dLziI/ZUicjuQPxyYyPkd6bXPebMH9KrWcbCW0Mtervymh8ltfbJ17hfBBEHr4A2D3vq8ZoHnCIgg1TLFx76Xmvw9zu/XrOtaoC8tfvOaBcgHnZP3/vKZlUJPgL9+rwENL0aPLLw0IvQX/bb33nkCeX/mffVO04BezxZfiMEfeYPiT+9F4lrvwLcIanoWGnsqHt6eNyg+dQ+S1Hoq+Jwq1cR17TGIpNV80zpahXfVkuTchzZNLDzwXxvaH0ByK0cV7BgKOb9tMyznzd55V04sY7UetdqKIDam+Mx9raXujhHrLo5bD9BFUe8LehYqun+M5M89/zCZ117oudaPXPfad1XTzr0ma+XWAzfZOPYWFPhffOGnZAwnCXodU8pz+/I+gW/a4kVP0g04zKHt414xvBjC3a+Q3/RI+6BTRUuT0IqvaC2uVOo58KUXGlcEMz5G8el7MdXJ3ub2Nc3td+sxeJ7QX80e6wcAACAASURBVAiOLV4LEN4dOVl7xvc/tHDA3x+9hmDeyZSNOJ4n9HWgYCc7h7afiG3vcvYIEtcoPPtDvLED7WsbEdzEBG5ynswrgpucxE1O0HOS3oBfETKvPEf2lZ/2PLefOEfURV+/kPMJw6MHdQhcmGh8yctXfGnhgL/Bf0fRqbuBxpx8hXzGI9tmwc5c2t6qcqgad71ZYuYTM4S7X+4ssyUJdu8eNIqO7z1F0CjG7t2bmvqLYV5fL25BBCmXyT/3IKY83vP0Xs1aXJf4MgwMxdy0CvsVIub67+wYDRYE+D/YNIFaczoiVzQeuamb+e0G9TJzafvIUUp62G4b18i/8CO8yUOdYzQR3NgYyc6daG2OYFUD9G+8jhsbXTxDOo30CHBCZvumuq/fY61vHXGX8voiaUHPMUM5RUSuMS5Z9/ln93Yf+N6kw8DlAqc1tH3gtx/UE0mHbMgs2n40Snqn7cUQHNhJ9tVnuxOvGjlAsv1V3OgoWMfhkduNL+dwY6Mkr27DHti/uFZR9QpzDa2/6SdIVO15HX9kLdqN51K3qDPhsfEzPdOoXPobF6ye19u11J1Xy5Mn1mtBco2f5bPNbmqe5oyZvde+FLvejsdWR+6lJ/BHD3TNrHSjo+jkJFIoIsUiEtY3DcURbrKEK01CHC+6cdyCoEJP0osKZLa/SLjnFWonnwfau7VosXXEnhJ2uG1ZAd83FLI+pcpRn6/fiFz7necP3QXUugp8DznJibxtqqYu5HyMkZaBL6TafibcO4WxurbvWffdxIHUt1fXvdY0EdRadGwUxsfqAK9vs6l36C3KGfxSB38vkC8GGR8l+9JT6XIO8ehVgUND6wee6TifpvX7HiPjgjviUhhEL88Z/wRge9dM/Qe3WWxSexv1QZqQTg3J57y2ztozQmYWKVlJXG8XXIqQ2bmZ4MAbCxNEaoBbp6ywkkU+mbeXXcLWkd32LP74SM/iDYe1vlNsFyL8SjrYJjN9DPfZSRyfe//W458mPW8OjirljCBX0CjRrRcYhL5pS8ZmTDpPbyYaj5LeNeLUg3rZ7c8hUW3xA7BXoO/hsagY/P27CHe/TK+L+J1q1+bz+b6hkJtmbQ6L8PYkibwuAf9fYjVZC1zKlL77Qra9aL6RNHc/o7CxykRPtX06ZCPz+tZlgC9awSNItZpuKLJxz28ncq4rqT0RyGd9vKOVjxHlSlEd6Arwn9r9R6i1ZwBnHA44eEIu67UlZH0js6bwJuN0wmkv5Xi451W8sf09NyOXTf1ZtL5C8PrL+BMHez+c02nXUnu50BAER8fTVDgnSqqnPrb16c4Df2TfhCh6KbCy4XRkAtN2ND9jZg7qWYXx2Pa0Aw+bkNm5GYkjltwGnLcS8kXwR/cR7H215+6Ykkb4Ow19VQgCQzacZtWv8tCL7t99ceeB73v9OUEuYUo2IJvx8NuYs26EWVN4Neuo9HKXvQheZYJw76vLuF4S5n6FcNe2dBU3vS/j7cagDiNCPusdK9tyilx65eBYpuPAT7BrUM6fCtp8xmtLuPoic1TqWRLXu0IVFYN/cFc6NXc5qLf4yTqCPa9iaqVFMZuvK736kgbUj4mrCXB+ZMzKjgL/u08qSRKdibCu8TPPE7KZ9vLZoTebma+UujzU8HiM12D/Tky1vGzmL3JLPxXUgj+yG29ycZQzx851vMBSNa3dP7YLVuHU2EYnfv+JPXMr3MY/7nlxsnnFU7oYhpF9KgNDch7Q37h4psnF58snmdkm7CTpkINemvnYmGD/zjRSvJQXXr6FpI83MYp/aA/xqpN7fjeJU6zqrKnqlixlT8hmDJWanYqnNaAbyOceveeFsaOA5gSM53Pj2YUjwP/B1pjNL73EGSeuXivKxaRvYEAsorsTlWcG+g9NCJwHBI03y2Y8vDZKE30jxzYdHEWlxPauLr/+IU2tjH9oLz2qRl1yCr/nZySCRLV0BuIiIFc39/0OKw0RIRd6jMpRqcusiLxd43i7hZNUNSTtYzoUG/N8Jaq9+tCWirt6Qw7/K5VxKltr5sz1q98N/C7C5UD2iN0mZV94GKNfEdigU7rxsqFp62EHhlnN/HLdzJcecrKpTOKNj6DLZv6S8vP9kd3gkkXhfyTOoXgdvRORdGGNZ2RqAFGADyr8AtA/ZUhC7Ktu7cP8Ra1a+fu7tkUVf/39jtL6+EKE/whc1uQaOeC9CBcr9NV9CTwRwsBrWcwLEJiZO/Eiq1STXusPwZTHMJXx5cDekiLFHzuAxBEaZHtuhyROcarHFt20TWFg8D0hsTqVPVc0uUpOlLcBf2xx4wfUfNMcPEMDcL8IzJUAPAkYbEQRAl8Ig/bSeLNF8ytJOr1Ueso+4E+OYqLqclxvKcFeBTMximllz0GXzP1Op/VU0x17gT8vDJ7k4NfWxqV+U4hNQeBcpizDOC4z3U+lTasuuCcya8CjYl1vi3YaAqo0itje54SXjJO/SO7DVEv1lN5isD/oSlrP84QwNPM9mrONY4WxWA8kmO+rw8BgTHuBvZlentRHFvecf1TxSmPg3DKol5oMimqYyuSiic0k2vmGZZE0szYfo0YhsE58oy10UAvzv+A0i2EWQRVZJeqxmZ+eksNUJpHleP7SMz2SGFMtLZo7ck6n9tB3jFrBoa/a2ugtU9f47ViEs5n5Net6nMY7AnyJKss4WorQtxaJKovG+3Cqnefp+si7VjpjWwO+kTSo0LJ/z6zbb6vWLYpxcuIcJo7m79A1vtyUr6k/X/bzF0LFIlG0aI5FoePAV8DzDL43/yI6v5WL+Z7B81o3gD0jx+79PkxWlVq9q0l6zcHqEBvN/Dk1ncKFS7+rBZwcGbao0wEhImA07Rr10u7RhV48uWiQQBqBT89Rpv1u+tkpmEagXmc/M1UkiRfVR7ZdyOd7Js2wVWpdBj6algu2Gthr1ADMZOlbl/r4i4dBdTrYLWhS/27r4NeZuPbYl+tRDC1SFwAemKA+Lk7evGBXlbqglCNg1+N9uRwtBLz0eyo4dTrwXbK4gK+KqnZ0+Uhqfc///Voathn40vI8itS/n5m3Y1USXUx1ctJw91OwR1PA3hEg1C2GGFwNxAfjp3kWebO0BjhBraRn6KTtMztsKbi6MDAgRhFPU4EgUwTFYjqGxvPu8G0FfgsBvnnDQNK5X61KLalr/Jkotq4r0U9a+aDGQ1VwtbT6U22XfXRNBYCNQaIU/CZcSgLg6OeqDcBb6e65uSPXSgWAA19QL1xUFZeq9Qo+Ot+wIzK/NQt+qxdqC0+zvDxy2vv4lzFItUz2xSeQ13ZhKwu/DfawGxHXwR/2fJrUvIDorOk+4JsJTiuoNYgVzKERJKqiQbgoajEaAb6gg+8pksbcRGReizxa0vheCxLmiE6Y3U2I68Dv1TRdAH/3axQeuovsc48h1UoLiNPmDN+C9lELtgKSgJeZd6nVgodDNDG4GNLtGr2zPDRRcg/fh5QqlK66Bbt6ff0Ge6tWujGA06tvn5oPbloAvrQ9amumiL6rA79Xpr0kMZlnf0Lxh9/G373z+JdXNBiqsfDC8xDfA8+rr75ScBZNklTzTF2McZzCQGNIEjAZ8LIsugCgJmCroLHMX1pMPcOj9KMcLTSlYXkd32JRUxon//DdBK9tpXT9+6iddznq+T0FfzfqUzxTD7ZbPW6+mBfwtQ7cdrYDmVmsZtetUUVz3pSHlMYp/Ph75H98N6Y0PvfQjQaAfR8pFPFWrsZbsw5v1VrM4DCmUETCTGotqENrNVxpAndoBLt/D3bPLuzB/Wi5BNbWfSAz5wNw1VRCmtziMf1dlN7XcW+umiL8JAyRfBHT14/0DyL5AibMpoziHK5WRScncBNjuIkxtFJOV4ippuc164LR9ICC17fR/43/TXn/LsrvvAWX76/P5OuRVaSdDT0YI3OyTnsaX1ONb9qaoT9zKs9p+rWgyswYvLEDFO/+O3JP/qiuVr3ZmRYwg8P4p55JsOF8gtM34K0+AckXEN+fXSOpokmMliexe3cRv7yZeOvzxK+9go6PHb6nuYCmDrxcmgXopdPqaqmmPy5f3rk0hdk/gL/+FPzTzsQ/6XT8tesxA0NINgeefzhwrI3XJAlaLWMPjWD3vE68/WWS7S9jd7+eCs65zsx4mMlxivd8A+/gfiZv/iXs4Mqe+P2OtEheOsjls1nRHTP1zXEopllfPwssrNOFLdU1Ht7BvfTd9WWyzz56RIvMwrTe6rWEF7+d8JIrCU48FckX5+9SBCEyMIwZGCY4+3z0mpuJd7xC7amfED3zOO7ggTmZWROwZfDyPQK/poB3teMAvbXg+3jrTia88DLC8y/FX38Kpn9wDk+dtGc0CJFcHjO0kuD0DWSvvB43dpD4tVeInn2C6IWncSP7Z39+xoC15J54EKlWmLj9w9gVaxdc82uHU3oN62G+yril4F47BQiz3V9a4LBQPr3BGz1A351fTEHPDP52/UmZoRVkLr+K7Dvfjb/+lPak37G3UuwnPPcSwg0XEl/1bqo/vpfoyUdw44dmtT7U9gj8DdBX5/o7l57zyaeRveIaMpe9E2/l2vbPzhjM0EoyQyvJXHAZyRuvUXv8IaqP/wi3f9/MsZN6RDr73KOItYz/7K9jh9csqOZPq7Y7G74WmX9dzfw1vpG2/BOZNeLJwvTgG4MpjVP8wd+Tfe7xmUHvHHg+wcYLyd/ys4RnXwB+FxHmeQSnnY1/4qlE519K5e5vEb/04mEAzQj+Sh38C5Tvd7W6pp/1jyzSN0D2yuvIXnMz/rqTuhOR9Hz8k8/AP/FUwouvoHL/94ie+glaqzYXMPXnnNn0JH1hhon3/hq2f2jhwK9Kp+PXC6rxW56sK3NFPLus8kWQOCL/4J3knnxo5kiLc0ixj9z17yF3/XswA0MLphUkCMlcfAXByadT/sG3qD50TxrUmkFTagKuDn5M90E/q09fZwz/jA3k3/NLZM6/FPwFyEEaj+CMjfjrT6V29nmU7/4mdvcbM5xZXfM/8wiuUGTitl9Bw+yCRfu70JmfsrB0EfgGmVYW3SmNv1Bp1syzPyH/yD1gk+aa1FrMqjUU3vdBMldci/i9SZ6b4VUU3v+rmFVrqdz597jRgzOa/i4Gat1N9WlcN+9nA70xZC59B/n3fRB/3cKPt5Zsjuw1N+OtPZHSN79IvPXF5hqnbvbnHn+AZNUJlK+8pf432mXQd4HHW3C/TUvIbcfUn+UGu57CNx7BG9so3v8tTHmiOeidw1t3In0f/k2yV93YM9AfPq9Mlvz1t1P85Y9hVq6e1SR1tboA6AbDunqe3s0Cet8nd/2tFD/8mz0B/VQmDc4+j77f+GdkLntHnV+1ufVXq1L44XcJt73Q0bjNXODvMO7n7X6b+QO3zRtcUBPomIdcLZN/6C78Pa8315zW4q05geIHPkZ44eUsGhIhc/m7KP7iRzBDK2aOROs88+nzYdZa6lLMCvrrbqPwvg9h+gYWxbF5a9ZR+OWPkrnsnUe5IcfGe7xD+yk88B3MxKEFKo7owvrseb6taeUS0u4NLthxHE3Z5x8j+/wTM/r0ZmiYwi/8OuGFb2PRkRgyl19N/v0fQgp9M6petWmev9Mmvo1meWoiZN/1bgrv+2B6b4uIvOHVFH/pn6TPdCYbWwzhyy+Qe+KButTsbiVJN9zZ7pv6S5FMmrrLPXovUqtMB74qksmSu/n9ZC65clF/lOyV15G74Xbwghk5yEWzaOcWlJONmDnd4pTwgsvI3/6B+dc0LNTjX7Gawvt/Ff+U05u7SvVy7dwTD+Dv2blgJn9Pz2QxmCkLQZnnHiXc8XLzh6pK5vKryF17y6Lfjyd+QO7G9xJeeNnMDrc7zsKa4yAXpxq/+S8t3vpTKPzsh/CGVi7qc/NPOo38z/4KZnC4OfiNh7/vDXJPPpgGfZcY6TzNCDP/Cywx6IvBGx0h98wj9Qcq00x8b/3J5G76WSSbXxrSuthP/pb3Y1atnTHY5+IO+PqaDh5p+sBVkWyO/M3vxT/ljKUh/M9/G9l33TizRlfIPv8E/p4dS07r61x+dK9NfW3R/28nqBBufQZ/147pgRtVJMyQu+42/BNP7ehlR0dH2bFjB9u3b2f//v0kSWe1SHD6OWSvvjEtKGom7bV9X98l9fVzM2iA8OK3k3nbuzr+yMbGxtixYwevdvrsPI/ctbcQnLFhBq2fBvqyzz9WD6DKEkP+PCyglgIT2vq9zQ78Dh+0CFIpkXnxKSSuTTfjncM/42wyb3tnRy5nreWpp5/mrrvu4oknn2Tv3r1YaxkcHOS8c8/llltu4dqrr6HY1wFf2BiyV1xH9NSjJNtfalq215gL2FJF32za3jnM0Apy197SMSvJWstPn3mGO++8k8efeIK9+/Zhk4TBwUHO3biRm2+6ieuuu46+vvaCh2Z4FdlrbibZuT2t7js23uMsmc0/pfK267Ar1ixAjrkTZv78Tf15A9/pke4ibekmZ65TNp0WsGLw9+wk2PFSk0h+qu2z77gB099+Vd6+ffv4n3/1V9zx+c+zc+dOnD3azr7v/vv54pe+zHt/5nY++bu/y/nnn9++Alu5hsyV15DsfLWp1m8MBW0F+I0ZgzNReNHlBGds7MhjGhkZ4X/+1V/xuTvuYMfOndhjNPx999/PF7/8ZW6/7TY++bu/y0UXXdSeyX/h5VQfe4j42SfTmQnTeOZ1gte2pk08S0Tdu4ZWPU4Mtebjd2lEzjzmUhz3gYTbt+BNjE03853DO+lUwnMvbvsq+/fv59P/9t/y2T/5E3bs2IExBj8Ijv7yfcbGx/ibL32JT/z2b/PUU091xm+94HK8tetm9PU1ac1C02SG2KEq0j9A9vJ3ged3BPSf/sM/5I8/+1m2v/ZaOuilydmNj4/zpa98hU/89m/zxBNPtMdnxf70/sOwuZUY18i8/Dx0aTy3dHgOYCsaf97Ad202Gcz2WiPSQYkiSK1C+OrmGaO44YVvS6O8bVCtVuO//cVf8IW/+RviOMbzvFmsc4PnefzoRz/i03/4h+zatat9rb9qLeF5l8wfwMcB/OYP0BGctbEjAb0kSfh//vIvueOOO4ii6LjO7pFHHuFTn/40O3bsaOva4caL0sahpgJTCHa8jDd+sCsFPd2IHMy3x6gljd/O3LDZXulJB6ONRvBGR/D3vdHEj3OY/gHCDee3bWI8/vjjfP6v/5o4jjHHGQn2fJ/77r+fv/3qV9F2u8I8j+CcC5FCobm5r8A8o/uHl4M0e7MwJDz3YiRXaPsRPf7EE3z+C18gOs6zExE83+f+Bx7gb7/61fbYY3CY4JwLZzQ9vbGD9Zy+LGrgp5PddN6YnPeO3XaX/8320tkWbbRyIv7+NzCT400Ldry1J+K1WU+uqnzjW9/i9ddfn1VbNWPgWrXKN775Tfbu29f2Rw1OPh1v1Zrmql1b6Di1M5v5ZmC4I759kiR8+9vfZsfOnfM+uziK+Po3vsHu3bvbQL5HcPZ5SL4w/cPWa/j9Xa91PLgn3TD1HfPGpJnvTau217rsmB34nnRuNIm3fzcS1Zp0ZoF/8mmYYn9blzh06BCPP/54SzWYxvPYsmULr2zb1r5xMzCEt/7Umc2pee4DOHoz0DFnekI6V7BdGhsb47HHH8dZO/9yU89j27ZtbN68ua178NedjDe8svnzsxZ//xtpNqjDQO20DWHd/N3vlnx825bG1xnBb0xqWbUtY+slmP7IvuYNLX6Af9JpbR/4gQMH2Lt3L9JCsYcxhonJSV5//fUOuDVe+nlm6td38wS+ncWKOvG0dDZemzQ+McHuPXtaOjsRoVQutx0jMYPDmDXrZjwb79ABpFruKPBFpOMa3zas8K4W8Cgk1rWMTjdLz70Rwe9IxVQ6bMNMHJp+n/W6/E5orTiO2youcc4RdWijq7/6BCQMmx+um4dRorOYZZ6Hv3Z9Z4JR1rZ9dnHcXtRdwgzemnUzjukyk+NIpdxRHS10vmquofHnc5emBdyTJK030Gp9ceBMN+N3IpgiQFTDlCaa+6n5Ykdy9wMDA/T19c07ldI4hzAMWTE83JGHbwaHkFy+uWqfZ9GVzlSiG2YwK1Z15H6z2WzbZzc41P4z9FauTlfONuEhUylhKqXOmvmdTlkrWKsLU6uf2NadfDeHnx92KIoqSYzUak3EoKZjsLPZtq+xcuVKzjzzzJZ8fOcca9es4bTTTuvM580V0iq6mXCv8wC9Nh86KtksptiZttvBwUE2nHVWS2enqqxcsYIzz2g/pWj6h5Cm9QgCcVzv5uwcTg0dL1YhsW7ex9iS1REnrUf2VdOFH7MBv31TSNL5+M2achTI5joyBy6bzXLbLbeQzeXmLXFVlauvvppTTzm1M08/CJFMZsa6/fnbdc1M4ywSZjtyu4VCgZtvvplCsYibZ7RYVXnnO9+ZCt12OSVfSAuRmpybOJsGhztIxnS2MF3reFQWAPiJ1ZZz+Vr3SWbkX2PmvRxgRttihsoVaay26gDdeuutvOuqd04rM531/JKEk046iV/78IfJ5XMduQ8xpjMTgGcttPA62rZ86y23cPVVV00rb56d9yzrTjiBX//VXyXbAatNfH962e7hs3CISzrajmo6rO2dKnEy/5hbS6O3EuuwtvXt48ksrb2BEXwjHTjrTlYBzkzr16/nD37/D9iwYQPJcQSbrLX09fXxO//8n3PNNdd0VvTPJowXYa/J2rVr+f3f+z3OOecckiSZ02qy1tJfLPIvf+d3uPbaa1mK1HHgu1Tjz9/laIGsSwN8reJqtsUZnumQn2/qSyubcLwmcUcLM6679lr+7E//lEsuueRwtNo5dziQqapYa0nimBPWruXTf/AH/ObHPz6vwpU5ce8cGifty0CZg8u0s/Pnr776av7zf/pPvO2yy3DONT27pH52a1av5vd/7/f4rU98grBZnX1LWiiZeYahGNQLOmYdzrUivhXVZq0jsTrvW/RbkzJKLXa02lyaZgObd/oYEULPQNzOFAmFIEj3ouv009dqBeLODaYTEX7m9ts5/fTT+dwdd/D9u+9m586dlCsVUCUIAtasXs2VV17JRz/yEa6//nr8Ti/miKrN20ynMN38WKqJwIxqaId9XhHhtltv5dRTTuF/f/7z/OP3v89rr71GpVpF62e3atUqrrziCj76kY9www03EASdm3ys1cqRpaXH/s7z0DDTMXPJIJ3V+JJq+1bqalriPlWIYtfy0ECrSuKau1YCZD3TnpGuoEGI5grNGbg0iauU0om1HaRzN27kTz77GT7+sY+xefNm3ti9C2cdw8PDbDj7bDZs2NB2P/mMwrg8CZVSUwaeT+9T+rfNR1FrrYKWJrty/xs3buSzn/kMH/voR9m0eTO7du3CJgnDK1Zw9llnsWHDBvr7+zt/bhOj6fryJkyuQQbt4FQmI4LpsPsZxa6lQHvLaqcWW5zTljbnKpCokpnhEDK+wTPSRoVg+tBc38B0jhdBy6V0OUUXZr8HQcg555zDOeecs6C+ozt4AFetzFCMMr9wh5gm4lIErdWwhw7QrU0Dvu+zYcMGNmzYsGDnZkf2pxp/WuGYork8LpfvWHzEM9LRTJ4q1OoKuOtz9RvUMDFa/RzxLK5ixghhOwE+VdQPSAZXTneqRNBaFbt3F28msnveSPfGz/CUZT4+vpnZH7Z73kTnlsQpH8w0uqxvAM0WOmbqex0P7Cm1Fl3i1oAvECcujSa2+FmSWRoLfCNk2w18eR521Qmo36SM1VqSHdt6sh+9WwwczzCFp6HB56vxZxKoyevbO+7n90xYjo/OLMgE7PAaNJvryCB8Ix2qSp3ikiVWiWO3cMAX0lx8LWo9AGe1sSSzOeX89v38ZNU6dIYy1mTnq7ixg28OBh7Zh31jx8yBvXnKUPFmEBQi2N07cQf3vznObffr2IP7m45lw/jEq9c1VxwtAU06nsqLEkds5698ldSz0VYa4pxCLWo9wOdUiWfx4fO+aS+frw67Yi3J8OrpD84Idt9u4h3b3hQMHL/6Eu7ggeaBPdMC8M0MWl8Ed2iEeNvWpX9oqsQvvYBOTkz37xVcNoddd2rHUnme6TDwFWpRGmeb77tGAiawpgYcPE5BUaZRaq9QrV+4xfsmdjprIU/WM209WJcvEp98RlPO1vIk8YvPpIGdpcy/UY34hafR2gyBvRaAjwHxmwNfa1XiTc8seXPfTYwSb35+huElDju8knjN+o7tu/I7PKdfgWrNteKtjqonkyawQVnF3QuMzvGCfah+DRhr2PvV2BEnrmWTPJqlXdQ3Qj7w2jP3PY/ojPPSlMyxF1KIXniKZN/uJc3AyRuvEW1+bkYnXnxaisOIP7OjF215nmTXjiV9bvFLm9I4zwwBjfiUDbjiYEcKljrt36dhKqU6f1c7Bu7xlQNGQqMGdyfw18DEDC8YAz7nRP4S2Nfw85PEpX5+GxV8c5n7bUVCVUnWnUay5sTpgTxjsHt3Ez3z6BJW947akw/jDo00H8IhYFrMvYk/g6VgDO7gAWpPPtyd7Y8LcWy1CtXHH0qLd5qMZdNsntpZ53em9wHwxHTUzBfS/H0Uu2NvfxQ4MJOeBe5UwxcIwth/1/l57np2z0Fn+KPAmWdV3S0YVgGCogJ7PI9/rESVb/pezgJbgA2QYqlcc/S3WMLnFCKnZLzmh5LzDBnPUEpsa7LFKXZgmNqGiwh2vtJMbFL9yQOEF1+Bv/bEpaftd2wjagCwCWMZv8VlGg0/P5h56Gb05MMkl78L/+Qzlty5RZueId70bPP6WeeI151CfNKZHTTzO1+xV4ksydFtrqpwl+/xdWvlVtDTEby6dTsO8mMn/O35W0ZeO/kXV6ZR/RUDQ2S97MjXH/jNz2G8j1vlQ6r6K071Q8bp/3njfyl8oZArjnlqKsDTTAkGVmoWa1s/oGiOtF6hLXNfwRhq516KHVzRXOvv2kHt4XuX3KJE8KkTSwAAIABJREFUjWpUH/oBdv/eGbW9hLTVp2SCGV5vDHb/Hqo/ugeNoyV1bm5ynOqDd6dBvSYr1fB9audehusf6ki6V7rh3zuoVJNj5VLk+/zkpvNXfM3D/AtR/ZCkGP4Vp3wkMubPQs9/7ZUL1zfCOHDFKRluPLfIbVf9BzzPG/ODYLcfBLsDP9gtXjDxtX8BN2wc4pnXylZFnzwcD5A0st/E5Dh+reWUZBZzvy8w7flHzhGfcAq1jZc2DVbhHNUf30e05bmlpbWefZzqYw/NzHBe62b+cb2HKtXHHiR6/qklJC2V2iP3E734TPNAqCrJ6nVUz3tbR6P5nc7fx9ZRqU0TSodswk/vetqBCcp+EO71g2C37we7/SA4mM/m7I3nDXD92elY9KOcmPdfNnuZ6cVnDpMkpS3AdmBISFt0K5Eln23NprR1cz+cwdzP+oacZxh3tnXl5QVULr2KzKYn8Q4eOFpDisEdOkj5H7+Bv/ZEzPCqRc+/du8blO/+Zqq1Zih0Mm1q+8MxgjDdvDu92cmg4+OUv/8N/BNP7cgMw64H9F7ZROX+u9IGrWZzBYyhctE7sCtP6Fhxl29Mx/P31cg2U7Yve77/0q3nHR8O52WD3HRentCTXSjPNFjBOShXkraWbNRmMfc9EYphm9F9dcQnnkH1knfVQa/THni86VlKd/0DWi0velO19J2vkmx7aUbQS1AHfic0jD/Le3mG5OXNlO/8O7Q8uajPzR7YS+lbX8Hu3d0c9M4Srz+N6sVXdbQNN+i0ma9Qqdhj+1hU4fEYHTluN26+Fy7uXlFC5FGg2tAK5ZptaRjAYUk8h7lfDDxCz7RVu4/nU778OuITT0v7go99QqrUHr4v1QjJ4vT3Nar9/+2deZRkZXn/P+9d6tbWy3T3rDDDDEvPxiqbINuwBdC4IB4jao6/RE30mKi/JL/EaKJxiScmxC1GJNGIKDJgFFlHVkEUBQEZBmeAGRiYGaa7p7uru2u5dW/d+z6/P25VT+8z3VXV1TP0e04xQM2puvW87/fZ3uf5Prj33Ir3219OaaVNh1pOIsNwJrv1ir6k+JuHKdx3W8RzMEeVZeGOjeWEnjHh+RAnjvv6i8oTcmtj7U2lan+Np4V8MRwb3+cU/GYw3VqqG/BVCgF5DOiubL1f0rheOGNFqQWKUyQIHdMgbVdZu681YcdS8uddgaTS4zO25e6zwt0/pvDQXXPuEItfpHDPrbj33xkNc5xE2KYTWfxaLmVG4J/UrPk+7r234d5/+5xL9kkhR+H2myg++vMpDUNx/em4J51V0++2a+zmKxVV67n+OKy9KPB0chqmcdrAP+Nshamc7WV3v4IpcoWgKkXpaZm0dl8BLTGzeu0pgrf2NAqnnT9s5ce6/FLIUbhtI+4Dd86Z6jQpFihs+jHupp+UyTaMSd1y5dTnGQxnCpffMBC3QOGOW3Dvu23OyE1nB8j/9Ae4D/1sUrINdEiwdDmF894YdeLV6ArPUESEMjU9CJB3J7pFkyct09z9lqOM+gEfwMiHORQPE1UCAVAoBlEVXxXZfS+cumknbZnVNUiWXbrC+W/CW33SxJusDCSXpXDbD8n/9Eb0UKaxh7evh9yPrqdw948RtzBlI46ZqMtw1/0uf3yKugBlIIU8hTtuJv+T7ze8ASrs2k3uxutwH9wUhW5q4jt7nW4hd9GVlI5YNTkF1wyTemaNNyPQQt4dd42XF1G/WN7sTivJMqPSJJWIa6TwKErvAVYqBX5JKBQDnBlyoQmRu5+YhADXVIqWmEm2FFaVSERrwpYOcpdehZkdwNr94vhkj2EgxSLuvbcR7usidcVVWCuPm2UzL5S2b6Vw50b8Z5+OlNRkiSKjDEqrvo9UUS7B/o6N8XLzPNz77yDc10Xyje/AXtU5y5oyxHv2KQp33ULwwrb9PvJERsC2KZxzGd7xZ9ScjDRmGjUl3VAKil6I642tlJVdGvWbfn96VXQzCpyvv/bzvO8jf1/Qok8H1lI+B4ahaEpaM54NpomINidz6W1DUQg0XhUEIJVN163tBO2LsXe/iJEbHG8qy6FA+OouSs9tQURjdixCOYn6n91ML4UH7yT/k+8T7NwemdvJZKoiMBrO7OBKlRWzBFOcUBHCvbsjuekQc+HiWZFb2LMX955bKfz0h4Sv7ooU5SSgxzQpvOFS8he8paa8ehVrn7DMms/Iy2R9soVg1NkXuN0j9oNL17UEdQc+wPv/5FNeYAQLUVwIWKqcpEsnLewZxjZCxEsWn+ROv5Ioyfk1cMlECNuXELa2E9vzEkZ+aGLwK4Xkhig9v4Xg5R0o08RsWYCK1R5pemgA7/FHyP/0B3iPPlRuGTWnBn28DHrFrC1lHQT4y3ILnnuW0ss7wDQwWtvrI7dML8VfP0j+1h/gPfFoVIM/Gf9/2XMqnLmB/CVXRbyMNe45iFtmzeP7INTsy3j4pVGMujmF+o/Qk6du+u8vTU85zfRBzJitRRcfBl4BOiHK7ucKAYnYzDPwxVCT1Ap7EqvfZJuk7MjlVzUAv7fuVAbtGM13fB/r1Z2TFnZQKlHa8hTBjuewVh2Hc+pZ2KuPx1y4FGXP/NJcvCJhz178rZvxn3yU4OXtiOeVRwcbU2ZnzHiNCnVmmOwDCIsw1fhjCSpy24Z19Gqc10VysxYugWrkVnQJu3bj//5pvCcfJdi9E3w/4mefTG6iESuG+/oLyV30dnSqpaZxfSUkjdX47l4pKLghrjcuh7ZVKf1r24lPW3NVdWTu3ZJLal38hgjvqyjTppTFiiVJzCoy8GnboNmeXHgZL+DVvFc7anzDILZzG+lNG4nt2Dp5XFj5kaLBimEuXIy18ljsY9ZgrViF2b4ommFnWeMttQjoEAkCJJ8j7O2itOslgu1bCV7eQdjbEyWhjAMT5CkziulrVaRTlbX1QbsH0b0qEl3/2GW5rToW+5i1WMtXYrYvRiWSKMse//tFI1pDqYTOZwl7uwhefpHSjm0EO7ejM73ljP0B5KZDJJEi/4bLyJ//pnIGv/bUawnLJGnXNtkiIrza49KXLY0EbAjyldCyP/nG9a3erAJ/24u97MzKO0BdB7RCVJu8fHGC5rQ9Yw/KUoo2Z/Ia/VCEXTmPIT+snbEzDMy+blIP/ITE7x5FecWpLW5FAQhgWRjJNKq1FXNBB0ZLG0a6KZojX+4HEM9F57KEA/0RI+5gJsrSB0GZBffgGDGVHVn6eifypnUwAwjdKVz/SeVmY6RSGC0LMNpGyM2J75db0SXMDaEH+spyG4jkVrmeO5B1LX9fsHAp+QvfRvHks8t0WrUHvaEUTTG75rX5bjHk5b0FvNFlut3Aex3dfe+GU9Yzq8B/+PkiudzgUYZp3gCcW4nT25tjLFuYqCqr2WQbNE1h9Yf8kN05b0revpmAX7l5Ek89QvKRu7F69u4H5UEdaNkfL6oRXoOU/yGjY+BpCahcQTd5FV2Dwa9BFyMPYFp5sonkhtp/MqUKuekQLBuv8wTyF7wFf9Wa/Z9ZhxW3TFJ27TXyvoxHV19xbD7sLoXx3jC9oP+Nx0wfaFU95XmdcX725MAeIdgEnAnEALKFAM8PScTNGcvYDYW4KZPG+mnbpDlmkvFqWF6rNRJPUTjrUkorjiP56D04W57AKGQPfNjU1Jn3mav8cr28U323XV0Tfka5jsAC7R2k9T+Q3GYqu/KZCxYtwz1jA+5pF6DTLXVlVTaVwqnhSLThpF6gGcqVxlIuuEq4PV0yM+ccM7PDVbXtMONWoER+Buyq7FMp0AzlS1Up1kAL7hT1/4aCtriNXZMBm2NMlwilI49m6C3/h9xlV0Gqttc9Bw0mKwKTmZrboB/llcSi5zUTMycBqQEKKZ5yFgNX/yX5895UTuLVl0o9Zho1r8tXQM4NxpXoCmwT5CFJx2d8KKsG/sXr0rjKeVbg3mGnVmAoH1TVp1+x+v4BqLna4nZ9ktpao50EwapOjAUJrJRgxGbBzVblOD5ZBrwDSnFILVUuKBpWADPk/Zv295pgOILZalM841xKR3VGXyy6znpG4Vh1sPahMJAtjdVZAXC3Ns0d566d+dVoTY7xW05sKoYit1Hh41NRz3C2UKrKUIYiFAKZ8iMWOBYp26yLPVYiiGEgto0xAoxmIgJnzZRAxZ2Pg5WKXnM1lp82ECsKIEl9FKcxWlGaCcCxkJiDmiUGZccyaz4lRynIFwMKxbENObLHQG537FhV3VA1yUR856nfs9RY8pggDyu4ClBaYCBboiVlY1kz3+1iqImHkxf12IaiI27jhXrK1t4Z+v1RBtiyy9VF5eIVC4xKcjoo/xkS3WfLmNzRmKHAwwMsVbkKbsQLxWG5lFGmAYtFchr5ojJ5Ww5SQZZHfE0qOxHEtKN9m4VlGxEvZK1XqCNrH4yuUhURdY+2m5/+gzXV/b6aAP9PX7eeLz/xUv9as+l/UVwCtCoiPr5sIaCtOTZji6wF8oEmZpiTzhZvipm0Bha9bu1bafcfIhl/CM0RcWwF8HrMf4/MUY0EvXH4Av1AXsAomenRf6L3X4KMUpTGCNBPNd9PQCwbseqfFFEqyuQbdbD2hUJIzg3GHpFubdg/uaI35lb7HTW7e+hw0hKG6gETeRS4vBwmk8mWaEpaVVl9PxTcUJOa5DMU0O7YuCVNLqjh3b4Apok+mAozNf5AvgZxPf0Qx6ytrBSAZSNm/YEfM8wZl6cfyNpnsj5BOMbaox4wCH/9v0ulaonV7Knfe/xCUFavIDdT5uePig8ChgpB1fjLB1Nz8MdMxcKEPen1X1UW3443Iqk/v6oIzyKLX79NM5Uibpk1V+6V8tzceMz0Idz8uPs/mas6q//WmqqrmG2LQt0L/Gp/gg4yQz5BFRN3ILreywV6yjLddMykvaZZfkEME7GdeTwdQktbMTDtuuFeEbn4tb6+g2hCTv+QTykc04EqPGiE6uHVTRfX5HtqCvxL1iZpislegR8OW30iTr7BfKnqfSgGMiVFlwLaHIvmWA2rpwwjAv68336oGHzEjiFG/YoIbNOoS7FO5d5+bOstsE8jN4aWmXnnupPmHvABlBXToo27FQyTvouG/qESfpUddZHLr6d0+S1DsTBp41RDzjkmG6VtZ97TP5SwH4sjplUXV99UioRl1aW2Iihb+zHUWhrUPZjqoZhdu7xFzYF/9nEtWI6zT8MNlKfwVthDMkPVW/2SFnIlmdLlT9SCnLNiPQyFxOLMm/xDZCkiD80w6vHRdXPxFTCUL5EvjCPS7BZTbrj8H9szF69Lzl3gA1iWJdrQ9wI/o3zBJUQZ/vEFCTNw+UNNIZy6GssyVA2gKtHAjVj80Cufe+16+mi7PtVPjmXWpUJPKfBKmr5Bf2zTmVaon4Zu/hf/vbG23I91Af6FnQ5XnLKwT5tyPdBV0Wh+oCNXpspCGwHypcnJOYVoOk+N+FKjrL5SzKf2Dw2TL3YcMYyabpdlGHXJ4kNU75HJ+hFF/ei3dohwQyrdVvhArG3uAx/gt49pPB08jPC/QDjszuRKZPNB1QIMRciWNMEEnUCFkibnB7XZJEXEyVbjgzS/6rQMhXbiZYtfmw0zlSJZh7LcCiYKbsDA+DDYR6kbTct6YsPaptqLqV7yP/11Ji1Ok4uS64GtwwkMLfQNevhB9Y0TvhYGfU0xFEKJlIEbaDJeULPyXYGyq2/Mg+qQcPTVCA+tNsBMWPUp1IGoWKdv0Mcff939lJLgRtOK1WVIQV1P84Wr0xRMa7Og/gcoVASZd0P6h2ozccULhYwf0lcM6StqBnyNUkZNY7HIdTTncXUI4F6UUdNkbNwyiVn12/vBXInB/LhinQGE62xiL1y4pj7sxHU3Y822VVJKb0R4eKRezgz55N2gJopZBAIRAonieqUiLV0rplOxnShmnF9zP8I3jJpdvzpm/eL6yjis3kF/7JwIQdgUKG4341bdgsu6n+aLVzfx5A9ye8TkG8CeitX3A2Ffxoum79Ql1FMkbQurBoDVMQfqdC88v2ps9A0TiVVvJW0jOj9GnW5zwlDoHfAojk/ovSjCN44+sX3f+aubOGSBD3Dm+xZhleRBUfyQ8tgtBWTdgMyQXzc4mUqRtKtPyojlIMYcYLeUecVzYOAbiF1dy6ppKJK2XTfQV+7sB3LjXPyiiHw3Z/JY1476Dh+dFeBftDaFvzifD0OuA/Wbkee4b9AnVwjqVh5jGwapKjS3QiJX32ws8EWpiduD59foIN8w0Xa8KmORsq26FOlUQO96Ifsy4yr0BHhAFNe3O+3+hcc6hz7wAZa8eBTZ9uR2Efk6Faaessvfk/EmymrWDvymQdKeYd90mT47IuNoEOjK5BKcch7G4uU1HwJRM2/kQENAZuMxTGvGTVWV8NCu428ItbBvwKM4ftT1LoSvLU0Huy98bkHd5TRru3TquYpmFRNfl+7SyPdGuvx5N6B3wKtuGOYBEzVmGfzTR742Y1HHVyMPtNYYR60l8eb3Yy45qu7kkdNLgmhUuhnztAuRdGvdOe6mNtk22DGmS8FqKEXKrv3oq7Grf8hncLyL74L8l2+ZD3oqKbx54PABPsAbl1skk005FNcCvxz5XmaoxODoSSH1Ab9lTR/8plV13FiVe6gUOiiRG8hgHncyiSv/DHPFcWXL32DXX4eoljYSl70HTr2YkqjGPZIIYlnlgRnTtfQmMbN+13YKyBWCibL4AD8LUdc32XH/9Ue3zIqoZt0vu2RNGr/UsUPgX4Gdlf8faKE745EvBvUFf3nE0UG7/QJiWA3vyddhSG/3XkqlAOvoE0i+4yPY68+ICosaEYKUR2KZRx5L8u0fJnbmH5AvuPhFt6FtDdqKoc2DJ+GogN6pM+i9kqa7vxgxT49+e2ug+Ncrdrbv2rA6MWtyakhA1tTkYYpxv4hcC+SHheNrevrrG++PdvvVwSHfNNB2vKH9eQZCzys7KeTzkROydBWJKz+Ec/YV0Qjq2Yz7dQiWhX3SGyIFtO4MAPp6uim5bkMbmsSOla9e5wboK3F9T8aLGtRGv5XR8DVPhY/9YrU3y+epAeuizjhOPOGV4NvAj6nU8qtoCk9Pxqu6kedgwJ+yrYO66ouqwRpr8S3TpOvll9jX071/81o6iF/xxyTe9gHMZauGh4HU28obHctIXP5ekm//MOYRxwBQ0ppdL71IyS/WfC789IAfj65eDyCGSva+3qAXgd5Bj4HsuOu5kiA3GIqbkvFUcN6a+OEPfIDz1yRIOoleUNcAj42O933663i/X1kx0zg48CujJkUhMz48ZeAX+np4ZvPTox/NdoidehHJd32c2OsvRSXT0UDJWioA0RCGqHiS2GkXkLr64zjnvhmV3F9gks3m2L71WUzRNIq7QDGyF39qspZUzKp7Ig+i+/q+AX+i7fi5odXX7Hhy4PLj0g3wIBu4Ll6bJqnCzQJfGBnva4kGBQ5lS3V/Bts0SMfsqa9wlEJijWXhMZSiiYCHHrifoje+uMNcuorEWz5I8o8+in3i61HxZOSSV5Nh1zpK3iXS2CedTfJdHydx5YcxV6wZ17T08ss7eWnrFuJ2Y+sddGzqvoqYYZC27bpe2VWUUN4N6O4rUho/Cu5ZpY0v/PPJT+64qDPZEDk1vBxNnJRYXv7eQIyvKPgMZU7+IBS6+4tYliKdsOoKuooFcEsB3kQEH0o1nIxDEJak4zz561/xzJYtnH7q68Y/phXDXnsG1lFrCXY8g7/5lwQvPotkByAMRgyonGBQ5diptbaNsWAh1jEnYJ/weqyV61CJyS3TQw89hNvXQ3xtK9LACsOIH1FNEt4ZdS3DHQn6oh/S3edRHD9GrkfgS2LoX37h9+dyTqNCx0YD//zVKR56PueHbvF6hOUoPgI4AMWSpquvyJELE8Qds67gr8R8hgopBiGjh+EotJNsKPC1wNKmBNme33PTxo2cctKJWNbE26eSTdgnnI295lTCrpcp7dhCuHMb4b49SG4A8dyyNzDsToAVQ8WTGC3tmIuXY65cg7VqPWb70qh4aYrV1dXFbbfeyjkxA9sw6lqPcaCQSGKJ8k2HHgXEhGVGDTezsId+oOnq88iNv6HKi6hv5FTplo54c3DO6saFj3OgAB3O70zz4POFgVwx+2VbzBXA28vHkUIxZG9fkSMWJojZRl3Br5QiUY75C0E46gBLhc6pUYdahLZ4jGVph5tvuYWr3vZWzjrrrAPEMQ7m8k7M5Z2IV0AP9iMD+9BD/Uh+CMJS9JucBEa6GdXcjtHSgWpqRU2jYOm222/nmd89xdXnHIupQDfK4KuIhEMUKNmv0BOzkLmvrFALPf0eQ/lxNSklkBtFcW1rPO1uWJ1sKObmBPABNnQm2fxEcc8eM/9ZpaQd2FDJEmULAV19RZZ2JLCs+rtpjmViGAq3FAwz+oodR5SBkqAhySspW611C1vY9MttfPmrX2X16tW0tR0cJZNykpiLkrDoyJo+19ZtW/nPb30LFfisbE01uJxIlZOw0f7YRlSqbc1SGbHWQk9/kcx4rgktcHcIX8xLU887Vzd+TsOcajLfvsClKRN7FtRngM0j3xvIlejuLxJqmRXY2UaU9IubkXuobQcMs6GFcqaC9R1NOI7NnXfdxXXXXUepVGrY82SzWb78la/w9O+eZllzkiPS8cZZewAjIkZVSpGwTNIxa9ZALxK12fYPTnAbJTwKfHZh4Ly0PO3NCazNKeBfefQCVFtMgmTsES3yj8ALI9/PDPn09BXrMBV3EuEoRTJmkbYtDCeOmI1l4RFgTVuaJU0JCgWXf//qV/nBjTcShrPftFMsFvna17/OD2+6CYBjF6TpSMQamNgTRBmYTpy0bc1KEm806H32DfgTKD7ZHCKfXJT2n9jRVuTsY5vngT/ResNJDilli6nV3SLyWcrkHZWD3zfk09NfRM8S+BVRNjiRTJaTXI0zaVrgyKY4a9rTYBj09vby6X/6JzZu3Dir4Pc8j29eey3XfPnLFAouhmly0qIm4pbROOkIYJg4iVRdKLAnB33UWr4v4010JncgfNot5H+R0y1cvWrRnMHZnOST2nBsHCeRLOmiullEPg90jxV0xe2fNUHZDsqyG+rqiwgtjs2ZSxdgGQrDNNm1axd//bd/yzevvZZ8uZy3nqu3t5cv/PM/87nPf56BgQFQBgviNqcsamn8yBHLRMXis6acRSLi2O7+CStNXxbkU/mAO9LpZn3+cak5hbE5SyR3wdokyZa4b4v5PS36X4C+seDvmcWYX0y7TITRWFffVHDWsjbaEw4igmmadHV18Q+f/jR/94lP8ML27XU75E8++SR/+bGP8m/XXMPg0BCmaaJFOK4tzXFt6QYTBAmYdlSrL7MB+soZnNDSvyoinw9F/bgtnQouO7FtzuFrTjNIblibxkkkC2FY+hYiX5oI/N19RUqh1P9QWTbMAQacUIT1C5s4aVHzcDxpmiZDQ0N881vf4t3veQ///e1v09XVVTPAb9++nX/50pd417vfzU0bb8YvlTAMo6yIFG84so1FyVjD7u/3a0UbrPpnzLUIvZniZJZ+r8A/uUb4/Xg86W9Yk5yT2LKY4+vcNXHu2zpYCLziNxFDodT/A9oq4O8f8tEalrTHsS1VN1gq0wI71nB5iECrY3HJ0Yt48JVetEQej1HOXj/+29+ydetWNt58M1e+7a1cdOFFHHXUUTiOMy2wZ7NZtm3bxqZNm7jtjjvYsmULfqmEOSLBKSJ0JB0uWNGBbahZS7pO+tx2DLHsun2+osygk/Givvrxv7dLK/miFaobmpLp4sWrk3MWV3Me+AAXr23hwa2DWc9z/wMxBaX+BuioACGTjcgNlrTHcepR5FOxJrYzZwgvL1zRzuq2NM/uG8IcwSxiWRYF1+W+++/nF488wsqjjuL000/nzDPOYM2aNSxdsoTmlhYS8Ti2bROGIZ7nUSgU6O/v55Vdu3jmmWd47PHHeXrzZrq7uwnDENM0R4G+YvlOW9rKKYuax858a4zJt2J1TcCWAqEnU4wayMZ/xR7gcypQ33OSCff81ak5jalDAvgAm7dv5/ijj8l7fuk/FZSU4u+A4TTpYK5EqIWl7XESdSjvFdNseGvuMOC0sLIlyRXHLGZbX7Y8P2ZE/GYYGIZBEAQ8/8ILPPfcc2y8+WZaWlpob2tjwYIFpFIpHMchCAIKrkt2aIj+TIaBTIZ8oYDWevhzJioNFoGkbfHmY5fQ4lgNt/YIEeWWadd87xXglzRd/UUGsxNOfN4F6nNeEN6QakoVz+9MzXk8HTLA/+gfngrAA9vyuZzrfdNW2lXwSWC4FC1bCAhDlyXtcdJJq7anyjBhjozLFiLe9ys7l3Lb9i629WYnZIVVSkVW2jTRWtPf309vb+/EXotSqPKrAvgD5RrOWLaAC1d0zBEnSKJQzKx9kVXBC6La+0Iw0dvbRfh0yTR/lEg4/sWHAOjnfHJvQhd3TYp0wimGofquIH8vsGOkZna9kD09bjSEsJYHwDAbTr81CnhaWNOW4h1rjsAyDxzeVABtWRaWbY9/WRamaR4Q8BUXv9mxuHrdkSxOOXPAzS9DPxavOQ16thCwu8clOzHot4jI3xoEtzQ7cf/SdelDBkeH5FyoC9ekiCeSRU/JjYL8X+Cpke97Jc2rvS77MkXCsAbXfeWZbDS4NXfc5inFO9cs48xlC2a1pkELXLJqEZcfvYg5w/OvVLQ/hln1MymixGX/oM+eHhfXG0cFp4FfIeovB93srfFEqnRBZ/yQwtAhOxDu4rUJmuOpsBgW7gzgY8BD5Q1Bqf08Z3t7i3ilajn8Is74qOVz7sggFGF5U5wPnbKShbNkeUMtHL0gxZ+dvJJWx0LPpfkew+w71emPUqjp7vfY21eciP8xAO4Wxcdetdp+3tHaoes56moe+BNZ/s4UiURz+Mb1Qw8LfETgFsAbmYDKZH12dRcmc9WmdyJqPHe9Ju6tCJetWsQr5MG4AAAIRElEQVT7TliBbdS3ZFaL0ORY/MWpR3P6kpZZ9TIO2tVX1cX4BTcKFfcNRIU5Y/vpUXwP4aOLXffxpTHk4rXNhyR2DvkRsJevXcCmHUtY4tlbfFF/DXwTGBy1W27I7h6Xvok386AdQImVgT+HzrsAMUPxwZNW8IfHLUHKE4Nrr2DAVAZ/fMIK3rlmGUrNsWFeqrw/hpq2Ylbl3zeY9dndU4jGVo//iF7g332tPmlZ1o6+9g4u71SHLG4sDoN1+eokX+/p54R9wW63JJ9RhvkSoj4OrKwYaz/Q7O3zcL2QhQsc4rFpXvkpygfLmHMjrEIRFicd/uHsTrJ+wL0v9WAoVbOoREs0SPKP1h7Bx087mrRtzpmE3rD6KxOKRLZMTwv0fqDpG/DoHyoRTGwYtiHqX/2wdFNzsrlwwdrkIY+Zw2bo+18sauMFdxF2LD5oi1yLqI8BvxmO+8tucSZbYle3y0Auyvqr6RyRCvDn4ApFOKY1yefOXcMlqxYhZde8Fp9rG4p3rzuST53dSUciNsdAXzbwyih7ZAcPeIim2+zudtk34E/U9xGCetDQ6iOuY90Qd+KFPbpwWODlsAE+wAdOU1y8rhUnkfS39ti3ifAB4EYgNyqOK0Zx3N4+d1qJP3UABtdGr0ALa9vSXLNhPe9Zv5y4NXPLLOXPW5R0+Kszj+Uz56xmacppbD3+lCe5DPyD2E0FlAJNT3+RXT0uWXfC/M8g8F+C+tDOE/37U7FE6dLjW3n3+o7DAisWh+E6pzPNfVtdES3PhCX9Nyj9e9AfArW84vqHWugb8HGLIR2tDs0pC8NQk9/9SzQuG7NyXTQ347tQhKOaE3z2nNWs72ji20+/zAuZXBSjGwd2/7UIWgTHMjn7iDb+/JSVXLpyITHTmHuWfgzwD3TdqsphS648pDXrRrG8Gv8XtyN8HW3cYDtWZu22BOeujx1WGDksgQ/RdR/AA88MdhVcdY0ZZ7MS/grkHGC4kyNfDCn2uLSmbdpbYsSdKSy6HQdj7ossFGFB3ObPTl7BOUe2sXHrq9yzs4eXBgp4QVjJhY3UaRF2FLTGYxy/sIk3H7eUPzxmMUvTzrAymNu+qxntzyTPWZlf1z/kkxnyKU1c31EE7kfUv5miHrHiiWDD2sRhiY/DFviV5SWbiBs5v2tPy53ti/Y9rzA+jOLdwMJhK6CF/iGffDGgvSVGazqGZY21/mWLX8fur1quClBP6Ghi9Rs6uXr9kTy2N8MTewfYnsmTKfoUQ41lKNK2xRHpOOs6mjhtaSsnLWpmcTKqUpxrV3aTBSYyXFI9BvAKwlCiiTaDPoViOCrGH7FeFfiOKPn2kf2Fnf3LOrigM3HY4kLxGln3POvhmCYFL5M2RF2uFR9VcMZI6y9lq5eKW3S0xkgnyu4/UfLIGOjCueHzqJ5d5QqxQ2eTzfLv8ENNzg/Jl0K8MvCTlknKNknYJlaZHjsUOXQ2VzTS3IZ/9ScIj+iMpv+U3fpCMaBv0C/3cchEkYAH/EIp+ZryY/f68VJx99Ht/Hny8IaG9VoB/qXrHW55fDMLkitzTz2z7UfHr121RVDvV/AuYGkFICJRfbbrhzSnLNqbYyQcK6rbMaN+70PtSFQSdQCWUrTGLRbE9/8OQcpDdISSHKIbXG6brtziF/2Q/qESg7nScPXdBKB/ReAGEflOe3vHi0OZLK1GnDclD397+JoBPsA7Tj8RgDue6pM4srVfhZ9KmPZDRqg/hHAekBzpHvYPlsgVQlrSFguaHRLW3CDjqFYJIBHYD5slEUOS2DE8P2BwyCOTLeGV9GRp2Cxwv8A3TMUjRfyi7/lcckLzawYLBq/B9aZT2hl04qTiSffy9d+9LTTVB0X4rMBWRlR/KBVd+/QO+LzSVaB7IKBkxJhfc2+FyqI3q3mlq0BXv4dX0hPFsqHA7xA+oeDDS/q8+5RlF49wlnHuMc5rSl7Wa/WgvHVN1EL50HMFktnsriHLvCaG3ItSfyrCWxUsG/n3i37IvmJIS2DjVCZBq3nAzYkchkBRW3QPCaVYONm27AR+pOD6UPTvY5j6zg3L+JR6bW6i9Vo/NOevTvIJETY8OxQoxZN+6L9gYNwJ8ifARUDrcPyvDELTAU00n029Vn2muRO3iAZCCE0HMcyJQN8LbAqVfBelfhUzbNcCnJj/mgX9PPDL64tK8cXyv9//fD6bGfTvStj6N0rpSw3UHwNnA82iDMLKlVFlonS5THze+s9yokJGDcQltJxyVeVw7iIj8HMNN6DkgfbQHsynbS46LjUvv3l7NX5d1Jli0QIHO2b1Xb6p44ch8n6Ej4N6UFB5bY+pBxeQMHodTvmyOYt5vf81Kni3nIgsJSq1vUsUf6G0+vNli175ScyMDfY2mfOgn7f4U6/zjo26r67b8yqr+uN7NmvzO+ul9DOx7D8wvdyHRRmnTuh2hpHln/cA6rD0fg9rkjUkhvlzJWwUre9b8VJHz97VQ+ztOYUrTprfjHF5kXkRTL2+c98LHLF0MRqDZV+83D5i0aKvGhJ86GB8KTWfAKxdHH8Ab8qPNf92z5pL3/OrpVc9t265jxGz2DBv4eeBX+3q+ZPLEG12milzoxFTJx+sdIfBPy/pugB++K970h3mi++zV5++acHff2FefvMxfm3W3lyfgWleLKI6DxrEMnlMOr8OILNp5kwEtVDs+NuC7U+n54U4D/yarFffexGL04uXongrQnImh5nKYZ5XAAcG/HRlFCliQ6EuDcU4OfPBN8/Lcx741a/zb7gfyzDPV6gzhmtAVXWHezpu7GEP+LAKpVhJpkZrhTLUVRk378wLdur1/wFr/hsYy4exzQAAAABJRU5ErkJggg==;" parent="RCJMpjR6mchD6mxSjPc7-38" vertex="1">
                    <mxGeometry x="143.14" y="70" width="52.33" height="48" as="geometry"/>
                </mxCell>
                <mxCell id="2UT0oM7tgV36ymHJV0K3-3" value="Linkerd" style="shape=image;verticalLabelPosition=bottom;verticalAlign=top;imageAspect=0;aspect=fixed;image=data:image/png,iVBORw0KGgoAAAANSUhEUgAAANcAAADICAYAAAB7/XT7AAAACXBIWXMAAAsTAAALEwEAmpwYAAAFFmlUWHRYTUw6Y29tLmFkb2JlLnhtcAAAAAAAPD94cGFja2V0IGJlZ2luPSLvu78iIGlkPSJXNU0wTXBDZWhpSHpyZVN6TlRjemtjOWQiPz4gPHg6eG1wbWV0YSB4bWxuczp4PSJhZG9iZTpuczptZXRhLyIgeDp4bXB0az0iQWRvYmUgWE1QIENvcmUgNS42LWMxNDAgNzkuMTYwNDUxLCAyMDE3LzA1LzA2LTAxOjA4OjIxICAgICAgICAiPiA8cmRmOlJERiB4bWxuczpyZGY9Imh0dHA6Ly93d3cudzMub3JnLzE5OTkvMDIvMjItcmRmLXN5bnRheC1ucyMiPiA8cmRmOkRlc2NyaXB0aW9uIHJkZjphYm91dD0iIiB4bWxuczp4bXA9Imh0dHA6Ly9ucy5hZG9iZS5jb20veGFwLzEuMC8iIHhtbG5zOmRjPSJodHRwOi8vcHVybC5vcmcvZGMvZWxlbWVudHMvMS4xLyIgeG1sbnM6cGhvdG9zaG9wPSJodHRwOi8vbnMuYWRvYmUuY29tL3Bob3Rvc2hvcC8xLjAvIiB4bWxuczp4bXBNTT0iaHR0cDovL25zLmFkb2JlLmNvbS94YXAvMS4wL21tLyIgeG1sbnM6c3RFdnQ9Imh0dHA6Ly9ucy5hZG9iZS5jb20veGFwLzEuMC9zVHlwZS9SZXNvdXJjZUV2ZW50IyIgeG1wOkNyZWF0b3JUb29sPSJBZG9iZSBQaG90b3Nob3AgQ0MgKE1hY2ludG9zaCkiIHhtcDpDcmVhdGVEYXRlPSIyMDE3LTEyLTA4VDExOjEwOjMwLTA4OjAwIiB4bXA6TW9kaWZ5RGF0ZT0iMjAxNy0xMi0wOFQxMToxNzoyMi0wODowMCIgeG1wOk1ldGFkYXRhRGF0ZT0iMjAxNy0xMi0wOFQxMToxNzoyMi0wODowMCIgZGM6Zm9ybWF0PSJpbWFnZS9wbmciIHBob3Rvc2hvcDpDb2xvck1vZGU9IjMiIHBob3Rvc2hvcDpJQ0NQcm9maWxlPSJzUkdCIElFQzYxOTY2LTIuMSIgeG1wTU06SW5zdGFuY2VJRD0ieG1wLmlpZDozZGI0ZTZhYi05N2UwLTQ5NGMtYTE2OC0yMjAwZDgwMTkxYjciIHhtcE1NOkRvY3VtZW50SUQ9InhtcC5kaWQ6M2RiNGU2YWItOTdlMC00OTRjLWExNjgtMjIwMGQ4MDE5MWI3IiB4bXBNTTpPcmlnaW5hbERvY3VtZW50SUQ9InhtcC5kaWQ6M2RiNGU2YWItOTdlMC00OTRjLWExNjgtMjIwMGQ4MDE5MWI3Ij4gPHhtcE1NOkhpc3Rvcnk+IDxyZGY6U2VxPiA8cmRmOmxpIHN0RXZ0OmFjdGlvbj0iY3JlYXRlZCIgc3RFdnQ6aW5zdGFuY2VJRD0ieG1wLmlpZDozZGI0ZTZhYi05N2UwLTQ5NGMtYTE2OC0yMjAwZDgwMTkxYjciIHN0RXZ0OndoZW49IjIwMTctMTItMDhUMTE6MTA6MzAtMDg6MDAiIHN0RXZ0OnNvZnR3YXJlQWdlbnQ9IkFkb2JlIFBob3Rvc2hvcCBDQyAoTWFjaW50b3NoKSIvPiA8L3JkZjpTZXE+IDwveG1wTU06SGlzdG9yeT4gPC9yZGY6RGVzY3JpcHRpb24+IDwvcmRmOlJERj4gPC94OnhtcG1ldGE+IDw/eHBhY2tldCBlbmQ9InIiPz4WxorCAAAqQElEQVR4nO2deZhUxdW439s9C4yAAhc0boAKgoVxyxc1GmPUxCRmMYlRr4nRLJr4i58ouMcYTdzAuOVLTKJGjRpL0bjEaFwTlbjgBgoXDKiIK0sBimwz0931+6Pu4MD0zHTfpe5t6Pd55vFx6K5z5t46VXWqzjnlUKdqhJIOcDRwGiCA94HrgEm+661MU7coCCVbgAnA8cCWgA9cCtziu55OU7daxElbgVpDKLk3cBXwP2X++T3gLODmWuqMwWBxJDAR2KbMR54HTvJd71mritU4deOqEKHkVsAk4KgKPj4VOLkWOqNQ8lOYweIzFXz8VuB03/XeTVarDYO6cfWCULIvZvl3BtBS5ddvBs7KYmcUSm4BXAwcQ3X9YBVmhrvUd73VSei2oVA3rm4IlkqHYzrSsAhNrQIuAi7PQmcUSjYDJwPnAP0iNDUfM+BMrqUlsE3qxlUGoeTuwJXAZ2Nsdj5wmu96d8TYZlUIJQ8FLgdGxNjsFMwS+KUY29wgqBvXeggljwX+DOQSEvEkMM53vekJtd8FoeTOGL/q8wmJKAE/8l3vxoTar0nqxrUeQsl3gK0SFqMxW/fn+K63KCkhQsnBwAXAcUA+KTkBC3zX+0TCMmqKpEbnWqbZggwH0+HnCiVPFUo2xdm4ULJBKHky8BrwU5I3LIA+FmTUFHXj6spEi7IGYA5pZwolvxZHg0LJLwMzgCuAzeJos0ImWZRVE9SXhWUQSn4Fs6Ex0rLoh4FTfNebVe0XhZI7YjYrvhK7Vj3zOjDBd717LcvNPHXj6oZgqXYi8EvMDGOLInA1cJ7vekt7+7BQcjPgXIyujcmqtg4fARcCV/qu12pRbs1QN65eEEoOBX4N/Bi7y+ilGKP5k+96hTJ65QOdfg0MsaiXBm4EzvZdb4FFuTVH3bgqRCi5K2ap+DnLon3MUvGRTrrsj9la/6RlXZ7CHCO8aFluTVI3rioRSn4H47wPtyz6Xoxxnwh827Lst4HTgdvr0RiVUzeuEAgl+2BSM84CNklZnSRZjRlIJmYhdKvWqBtXBISSWwKXYHK7NjRuw4RrvZO2IrVK3bhiQCi5J8YH2jNtXWLgBYxf9XTaitQ6NX2ILJQcHER5p4rvelOBvTEz2HspqxOWhcAPgD2zYFhCySah5MC09YhCzc1cQSrIUZht6lFAAbgT+Lnvem+kqRuAUHIT4EzgVGojJKgNc/h8ke96H6WtjFByBCYe8nCgAZgD/Aq4tdY2U2rKuISSnwZ+S/nlV9Y6yXBMKNXhKavSE3cDp2ZkUOoH/Bw4hfLxnVMxpQaes6pYBGrCuKrcOFiImTlu8l2vlKhiFSCU3A/jj+2asiqdmYHJwfpX2ooEK5HvY7KiK4mqvxk403e9zC+/M21cwZb3eOBsqt/yzoxjLpTMAT/CLHeGpqiKwiynry0X9WGbXor99MRKjDFe5rvemtgVi4nMGpdQ8jBMxPjwiE1lZktZKLkpJr1+HHbjAMFkQu/tu977luV2QSi5NWbJXEmxn554E1MwJ7Xs7p7InHElFGaUqcNQoeRI4DIgljSTKpiH8bHusiwXiFzspyeewCxzp8fYZmQyZVxBTtPfSG5Uz1QYj1DyYMwmzE6WRT+OWTK/YkNYjMV+eqIAfMt3vfsSar9qsnbOdSrJLpe2ASQwRSi5R4JyKsJ3vYeAXYCTgGUWRe8PTBNK/lEomWhEfVDs5wnM8jwpwwKzbX9agu1XTdZmrn9jXrwNMpU6IZQchDnPsZWW38GHwHnA733Xa4+rUaHk5ph8rx9ir5894bve/pZk9UrWjOsLwH3YqWPRQaaS/oSSAuNzHmRZ9ByM3/LPKI0ESabjgF8A/eNQrEJaga/7rvewRZk9kinjgtTT1U/1Xe8ey3LLIpT8OuY5bG9Z9IOY/LFXq/1iLeqcJJkzrg6CQiuXA6Mti34M86JmWJbbhRRngQLwe0ypgQ96+3DKs+0pvus9YFluRWTWuMCUCOPjOhabWRRdBK4BfuG73hKLcsuSkv8CHx86X+O7XrGMXmn6iecDv4vTT4ybTBtXB0JJF1MrwkZxy858gDHsqzMS0ZBEme1KWCdcKhj0TsB0cJuR6yXgWsygt9ii3FDUhHF1YKEsc3e8iulcD1mW2wVLZ0bdcTcwGbNMtX029wQmcNfK2Vwc1JRxdZDQhQKV8ABmjT/HstwuJBjtkDXexNRFTCWqJAo1aVyw9iqcUzBpClGuwqmWduD/gF/5rvehRblliTFOL2uswFy9dEWWg3N7omaNq4MIl7hFZTFmeXRtRlJbwkaYZ5G/YA73M59W0hOhOmOwS/QHzHU4ZYtW2qbK60fj5GWMP/a4ZbldCJEblTWewTzL1BMig02bn2I2j06opPrx+lRlXEFe0lWYnaKOXbtZmAfySLdftESni7MnAVtbFn8nJv1hnmW5XaggqzdrvIvxHTORyh9ECl3Jx5s2ReCPmA2VilcpFRuXULcdDfr3dH+YeR8w3ne91yptMymEki2Y6PfTgb4WRbdiUkku9l1vhUW5ZQnqUfwG+FbaunTDGkzO3iW+661KWxmh5A6YjbLuUoE+AudE3z3ypkra69W4xOLbPgnchaMrCWlpx1j8Bb7rLa9EgSQRSm6LcfaPtCz6PUzB0JszMhLvTzrlr3tiMmamn5+2IkLJARj/ubIkVu28BhzmDzny5Z4+1q1x7bT49gGgJzuO/mJPn+uGRZhlyfUZcfb3wXQu22kmz2Hypp61LLcLnS5uuABwU1RlGuaZTElRByBy+QWttfMw2jli1tAjyu4alzWanRbdPtHJlcZjcmSiMA3jjz0ZsZ3IBA/yGIyzv7ll8X8FzvBd713LcrvQ6cqh/yX6+62Wp4GDMpINvh9mlbVbxKYKupS7fNbQI85Y/x/WMa6dFt1+GI6+xnF03CEtkzGd682Y260aoWR/TB2Lk4FYr0vthVV8XFQlC51ro8w+SKrkndbOMrRz/KyhR9zZ8TsHYKeFk0fj6L85uVKSIS0dzutE3/VWJiinIoSS22E61zcsi56P8TUmW5Zblo0l+yAo1noGJqolsWKtupSbhXa+PWvzw191dlo4+S4nXzwUewewWdt2PQDjj421LHoKxveYZlluF4SSjcDPSCf74E/AuUllH3Sq0DwJ2DIJGWXQupi/xxn97t90rrGAk7O+7/AspnNl5cDwOIxjO8iiaA38GVOKe5FFuWXZ0LIPggrNVwF7xdVmJehSjlJ7A86ot+7RALmGAvnGAjjWJ5ObgLOyEOoSFP7/JSaHzGbnWo4x7Kt812uzKLcstZ59EFRovhgTrWIP7VBsb6BUMPtEzqj5935sTY4m31gg12g9/2wlJhkwE0GaQskxGD/kS5ZFz8U4+3+3LLcsQslvYg7FbWcf3I8JSKgq+yBiheZIlNobKbY3gP7Yu3JGvfn3LlOVkyuRa2oj19Al+TRp3sR0rr/ZFlwOoeQhGCMbZVn0w5jO5VuW24VayT4QSn4bE40yPGG91qFUyFNqa0KXulYpdEbOu6/bdWCuoUi+uTUNf+wJjD/W4wm4DYI6FidizoY2tSi6CFyNqWNRddBo3GQ1+0AouQtmCWv1InhdylFsbaZU6N57cEa+8Y9enax8Uzv55lbb/lgJuA44Jwsp3ULJoRhn/8fYLaa6DNO56tkHZsB9ItAjnfehHYqtzRTbeo+ScnZ4/f7KLMbRNPRpJd9k3d/+EFME5f+yUIwkrZGSevZBB3cCL2KuibK5kqDY1kRhTfM6flVPODu89kBV05GTL9LQdw25BuuD6ByMH3K/bcHliPEWlmr5OybtfWPOPrBKqdBAYXUfdLG6DWRn+zn/DLXWyze1q8Z+K5cBI8N8PwIPYoxstmW5XUhxd6qefWCHue0rNhlYbGsMFejsbD/nwbCO1Nt9Bi3bAROmfw4wIGQ7YegoWnm+73o2LzAoS2rnKvXsg6RYjvHnfrtmycDXMBd4VI2z3asPhTauN0YfvC2sLVp5ASZ83+ZO0hI+3knKgrPf053NSZK1NI5jMcVlbGcfRKVLxMx2rz70FqGNa/bD4Y1rzBe37fwLoeRumJHLdtHKmZjOlZU7fm3HsnWQpQTEtLIPwjIFk8Y/vfMvt5v9cHjjGjHrkdDGNW+nL2xb7h+EkodjOpftopX3YvyxLNxObyUKuwz17IPqmI+51rfs1a8jZj0Swbj8R8MblziorHHB2qKVEzDp7jaLVrYBVwAX+q73kUW5ZUkqf6gCspZ9cCBmE8Z29kF3VJRfN8J/NLxxDZ/5WGjjenPsgd0aVwdCya0wneu7IeWEZSHGsP+SEWc/rszXaqlnH3TlFuDMSjLDh898LLRx5dAOoX8qIPgDjgVuDqNgBDYHrgeeC3axUiUodfAp4HjMLp8t9gKmCiVvDHY1U8N3vYLven8AdsD45taDV4FbgR9VXHIhgn04w175d+iZa/4nP1/JzJVWpuv63IZx9t9OWY/qqw3FRxazD64ADrYsei7mIL7Xy8mHvfLv8MvCYS8/Ht64dtm/J58rrRoNPbEas9EyKSN18kZiUjq6q5OXFG9Szz6ACrIPhr38eHjj2nbaE6GN663dPtfFuFKuLlQpb2Oc/dsy4ux/ETOCb7TX8mQ1+2DbaU9EMK6XngxvXLvvt9a4MlQXrxqexjj7L6StSKfa5L/C/oVy9ewDWIox7HWyD7Z96cnwxrXNi1NCG9fbe3y2I0Jjf7JX0bVSNHAj5laNBSnrkvZVqFnKPtgVs7tqO/vAx1SlegRgmxenRDCuF/4T2rgGDH/7c2S7Fnk1rMDMulf6rteatjLBJd5XAF+wLDpTl3innX2w/M1t/kVo43r+qaqNy8lpmgd+sLxpwEfN1MYtGtUwD+Pk3pO2IgBCya9jNj12sCy6nn0A7W3L+69pXbZp/3Jp/L3hbP1cdcbV1H8lfQZ9gJNP44jCKv/CJCdaKVrZE4GzPw6zfd/dLTNJkMXsg0uAo23K1cU8a5ZuSttH1ZUQcbae+nRFxpXv00pfdyn5ZuuZyC9gwqh2A87DftHKazHOfiJFK6uhnn1gSCv7oNjaxBo1yGQjV4Cz1bPP9GhcuYYCfQYvo6m/9RjQBZjwpZs6wpeEkoMxO0nHY79o5fnA7zLSuXbHOPu2sw9mYGbzjTr7oH3FJqxWA9fWJ+wOZ6tnni1rXI6jaR74Ic2DPsCxW5imDXOgeFF3gbdB0corgANtKoYpWjned71/WpZbFqHkEZi4TdvZB/dgIhyykn1wJnAqFrMPtHZoXbYprUs3Q3cTCuhs+dTULpbT1H8FfYcsJddofZC+GxM5UNFLE0oeinH2t0tSqTI8gDGy/1qW24Ug++A0zKF4PfvAcvZBqdDA6sWDaFve1R9ztvzPc2uNK9+nlZahioYW62FnoZcbQdHKkzHp7jad/Xbgd5iilR9YlFuWIPtgEmapZJOFmJlj7fI9TdLKPiis7sPqhe46/pjziSnP61xDkb5DltC8mfVaJwpzKn6N73qRth+DopUXYSLw0yhaeV3UvyEOhJJ7YZz9/7Es+kVMKNXTluV2IeKNkZFo/bA/qxcNplRowBnhP6L7Dllqu6puxxbveXGP+kLJPTDRIrbTTF7BhFI9blluFwJn/2jMtvUnLIvPUvbBpphSA1azD3Qpx2o1CGfMgju0LuVsFvt8EBMB8GpSAjoVrZxIyNP1CPwNkzY+z7LcLggl+2EOXsdj97C/I/tgYkZu0bSafVBsa8LJlXB2WnybBii1NuE0FJMs9jkH41dZ22kLnP0zsF+0spWPdzxXWJRbFqHkCEwI0bcti96osg9KhTylQsPas2Bnp0W3r/NHF1ubyPdpjXP7/UPM4e/v0woIFUpujelctotWvs/HZ3VZ6Fz7Y5z9XSyLfgozsGYl++AEzLllLNkHWjsU1zR3CbBwxiyc3OWl65KDLjTQ0DfSrmEJE93wi4ykMmyOqTO+bwrin8c4+8+mIHsdOqUG/RoYYlH0Bpl9UFjdB6ehgJPrOnY6Yxbc0e2IWio04DilMCFPj2Oc+6wk4aURl1eOWzHOfmX1GxKkU1LridgtNbBBZB8UW5vQOtejG+WMfv/OXpcrpfZG8k2tlVyGNw9zCHxXNYomRRBRfjmwfdq6dGIVZqPl0ow4+2mVY3gDE+Vxj2W5Zak0+6BUyFNsa67o9lVn9Ht/q8wX0MbIGjdZVe6erhWYM6asFD4RGN/ioJRV6Yn5wBm+692etiIAQskvYUZw24WEaiP7QDu0r2wxUUsV7kc4O75zV3WOdimHBhpbVoNZR3dcGP5+Ve0kQIpZvFGYgulcL6WtSODsn4i5dH0zi6IznX3QvqovjgM41Z0FOzu+fXeoXSxdzBUa+63aJ0PFJmPdAbJMxwUA5/iutzBtZYLsgwswBTxtZx+ch9lZzkT2Qdvyfs/kGguhat07o966J/QW8ZxtD7UZZlQWoeTBGJ/BduWkJPgIs4t3le961hPn1ifIPrgSOMCy6FcxgQYPWpbbhR3e+Ech19DDxcc94Iyaf2944xr2jdSMSyg5ClO/w3bNPxu8jom6/3vaisDa7IPLgRGWRaeefbDD6/eHN66Rb/49tHHNHf5168aVVrxYSjyCGcG7LVppi07ZB+cA1eW7R6Mj++B83/U+tCgXgO1feyCCcc27L7xxjfiaNePqFOl8IfYPP2/CnAl9G+Ps2y5a+Ufg3HJFK22zsWUfbD/3n+GNa4fX7w9tXK9tf4iVhxvk6FwF7GpDXieewezkrd20EUoOwTj7totWLsMY9h8y4ux/CvNOPmNZ9MuYd/K4DWHb/fehCMb12gPhjWuHryRqXEF26STgO0nKKcO7mGBf2V1MoFDyk5i8KdtFK2dhlooPW5bbhY0h+2C7Vx8Ob1zbz/1naON6feSXEzGuoC7CWZiqT7ZvZexIlajoogah5LcwJ/vDE9SrHPdhIhzmWpbbBaFkC2YwSiP74DLg4qSyD0bMfiSCcc15MLxxjfpSrMYVjITfwyT5pXGf8Gm+671V7ReDopWnYEoNWC1aiVmaXZCGs78+QsltMINTGtkHZwI3x519MGLWo+GNa7tXHwqtzBujD47NuIL09CuxXIsOmIaJWP9P1IaCopUXAcdE1qo6FmF28f6ckToW+2CMfg/LomPPPhg+87EIxjX74fDGNeaLkY0rGPWvwXIVVUyHPAu4Me4OGRStvBLYO852K2Aaxtl/0rLcLgS7u8dg7h3e3LL4vwI/jiPOdfiMf4U2rpzWDmF/YsHBweFATKayDdowS5eRvutdn8RIH+wu7oNZ4tpML9kNeEIoeXuwGZQavuuVfNe7ARiJ2fCwFXEyB4f9ceI5JohiH84I/9HQM9c8cVDkP2Cnxbf1xaRhAMxyHD2E5M6x7sWkxLyWUPtdCJz9MzG1BW1vzvwGuMR3PevlktdHKLkdJsrjGwmJWKy1s5iPw+BaZg05MnJKz7CXHw+/LBw+87HQxvXm2AOjG9ei2zsbF0DRcfR0HD2W+IqqzMSE0TwSU3tVI5QchpkxrRatBN7D7OLdmpFSAwdg/LGxMTXZinZ8rZ1dWDfIuGXW0CMiG9e2058IvyyMclt5HJSZTvOlUm6PUjHfinamR2x+KSaFYrc0DQvAd735mG1j21WhtgRuAZ4JfMFUCQq/7gb8P8wFD+HRzvRSMd9aKuV219rJJ+K2RLCPBl1KObC9+4cwoFTM7+o4+i0nX2ynumzijntuf5mhq28uBr6fohp7AlOFkjcDZ/qu915aigQRJn8QSt6GiTo5kepSW97QxXyD1s6uSejXGV1yCGsjDXHNQGHpbYTR2tmWUg4nV5qZyxc/AQzupcmHMREMs+LSMSwpXtrWE0cD3xJKXgxclmbmeDDwnSyU/BPGH/tSL19ZUirm39Ol3M7JaxcQYZWW/m5hhVOsLubHFtuaNtWl3IuYw9P1mQt8zXe9gzNiWIcBszGBxlkxrA42wcRHzg70TBXf9Wb7rvdl4KuU3zVu16Xci8W2pgG6mN85Zbel4p/0fa5g2q3wp6HY1rhHsbVphdZOR2Wp5ZjrY8b6rvePWJSKgFByV6Hk48Ad2A+JqpbhwB1CyceDC75TxXe9+zEbHRMw9S7R2nml2Nr0UbGtcQ9dchqr6S+xsIH6XN1/RTsDi2uaBzr54t35pvaf+q63KAHNqkIoORSTRWw7Wj4OPge8KJS8DlNnMrXnGRSOvVwoeUuxrfGPupj/Zlq6QDSfK/2ZK8K0Wyo0FNI2LKFkk1ByPGY5czy1Z1gd5DD6zxVKjg8qIaWG73qLSoWGQq24LeV+MuBz5aL9pIhQ8hDM3WKXYTeBMkkGYP6eGcHflx4Z6BtR7CP93cK0l6UhEEqOwdT4O9iy6Fbs3VYyCviHUPIhzO7rbEty15KJvhFhlZaBmSvCstTywCCUHCiUvBIzW9k0rOWY8Ck3+K/NWwoPxsxiVwklB1qUm4m+UdszV8ryKyGoi3gcZvt6kEXRGrgOU8+ww7f8jVDyJswW/4+wU8ciD5wEfE8oeQ5wrY1SA5noG5Fmruq2wjO11WljYBBKHohJ5bgau4Y1Bdjdd73j19+08V1vke96xwG7B5+zxSDMc5gWPJdkyUDfiGIf9ZmrGyxEcXfHfExG9B29fdB3venAfkLJwzFBwcMS1q2DscCjQsl7MaUGXk9CSCb6RjSfK0fYn1iVz8jMJZTsL5SciImusGlYqzDZxGMqMazO+K43GRiDKT1WUe2PmPgGMEsoOVEoGf/1TBnoG1HsI/2ZKws7QqzNnD0Wk6ZvO3P2FkwwbejEyuA6oguEkjdgapB8Ly7leqEJk9JyjFDybGLM7M5E36j7XNEIbrWYirkMwaZhTQX29l3v6LguxPNd713f9Y7GlBiweUnG5pjnNzV4ntHJQN+IYh81HaER25rcIYfDFpjgXxu8h6kvsXdSV7kG7e4VyLGVXjIXhy1w4olSyUTfiGAfDak7jWnLZ+3yY+vgf33H0UNJptTAGswmyUU2Uu+DzOObhJJ3YYrxjCeZUgOLtXYWAYI4c52z0DciGGrd54L1X6LQ2ik6jn4x5lIDd2LuQ7adiUxQMPPnQWDuJCCuNJNWtDNTm6TF2AejzPSN0D5XDU+7CS5NO0oNrEE7L8cgYglwP2abPTV815vnu953gM9jaq6HRzsvl4r5NaVSbg+dwRT72CYNR38Q1j7qPhf09DduWirmd9GlXNRohMHADcCzQknbFxd0IbjEYHfM9baLq/z6PF3Mzy8V87ugnU039L7hOHpVWPuo7xbS+0ssFfMNxfZGdCmyn/4/wFNCyb8KJbfu9dMJEtQV/BOmruDllM/u7szSUjH/SrG9cUSplBu20axq6ruFUZWo7O8tFRootjXFIfcoYI5Q8lyhpM2LC7rgu96HvutNwERdPFDmIx0p9v11Mf/Jet+oZuaqYeXTGp2KrU0U2xqjPoO+mAvS/yuUPCK4hCI1fNeb47veIZgiMa8CaO3MKLY2La/FFPssGHj6M1eEaTfNl6iLeYprmikVIy8VtwFuA54USu4e/Y+Jhu96DwE7F9saLy2uad5Zl3KD630j7MxVw8pnYXQiuh/Wwb7AC0LJP8cW4RAS3/UKpULDsvqqJpqBp36InLZ8o0QUHWLV3wF+CHxHKHkhcIXverYuMFiXDLyXLPSNKDqkvizMxOgUYYTWyVRf748Jvp0llDw0EQm9UOubCVnon/WZC7I0c63P9sDdQslHMXUsZiYpbB0y8F6y0Dei6JB6+FPq8iGa/2jn3pCDgOlB2edzfdeLdoFBBWQm9ChtohhX2g8xhoPZGJSIoIN2StipVZjH3AziCSXPA65OtI5FymXrIBt9I4p91H0uovkXhbam3wH/jkWRyhiIud/qFaFkYhWo6j5XdB1SP0Su9ZeoCw0LfNc7APg2du/eGgM8KJS8Tyg5KvbWM9Cxs9A3osivz1zE8xJ917sL0+HPBlbEolhlfBWYKZT8jVAytqq/WejYWegbkWautJWv9VP4zs/Bd71W3/UuxgTD/gUsbXdAI+ZmkLlCyeODeiDRyEDHrvW+kfqycEN8ib7rLfBd71jMbY7PxKJkZQwB/gS8JJTcL0pDtd6xs7CqyelSjrA/aSufdQP3Xe95YB9MFHwsBWgqZBfgCaHkHULJ4aFaqPGOHZvPFcE+Ul8Wbugv0Xc97buexFxscD6mjoYtDsPcHnmhULKq2y2z0LGz0Ddqelm4sbxE3/VW+a53HrAjcHs8ildEH8wmyxyh5NEVp7ZkoGNnoW9EWham/QA3tpfou95bvusdCXwWeCmWP6AytgRuAp4RSu7V24ez0LGz0DeizVwpO60bq+Psu95/MGn/PwIWxvOHVMSeGAO7SSi5VbefykDHzkLfiCI/9ZkrCyNkWi8xqGNxPcYfmwTYTC85GrNU/Hm5UgOZ6NgZ6BvRZq4aVj4LU38cOviut9x3vTOAnYB7IzdYOS2YO8dmCSW/s86/1N+LUSGCfaQeFR/b0i6KDik/gw6Cq3gOFUoehLkWdqwl0cOByULJJ4FxvutNz8IzyULfiGIf9ZkrKzp0wne9R4HdgJ8BS2MX0D37YQ6gr3FypX6pP5MMvJfanrnqI2RZgnSSq4WSEjgPY2h5C6Id4Limfitb1yyLLVQxFFnoG1HsI/V8rrSNOzM6dIPvesuAcULJPwJXAl+0JLo59eeStnyiDbz1mSsjOvSG73qzgYOFkodg/LGRScrTpP9c0pZvlKj7XLWvQ4X4rnc/ZqNjArA8MUFZeCYZ0KG2fa60l6VkZISsgqDc2uVCyVuAXwPHkUClnLSfSxb6Rt3n2hB0CIHveouAnwgl/4Dxxz4XW+MpzMpldUiZus8VVYcoD7Bl9Y4xqhIK3/WmA/sHB8GTMOdWkdCkP3NkoW9E9bleT9fnykX7iUWH8Ov6xk1WHyOU/KdQckw8yoTHd707MKUGzgGiXQubAX8nC30jgs/VnkM7l6TqMNZ4DFvAlzDVmK4USg6MRamQ+K63xne9CzGpLTdHaSvtza4s9I0IA8zNufb/3eQ6rZ2fae18VN8tjKRDAzAOEwx7glCyIR7lwuG73ru+630f2AuYWnUDG857iaZC9QPLCq2dM7V2fpIDKJzUcjXaGYl2bkA7OuPKxz9CxivfBa7GhBEdEIuCEfBdbyqwNyYK/r1qvlvL7yWFwV+jnRvRzsjCSS0TCye1FNYuTAvj+i4sjOv7Q11yPqVLzlM1MO1mZITsttWdgceEkncLJbeLR9FwBKUGbsGktlxIJaUGNDX+XmIy8MqWoE/rkvPpwri+PyiM67ug47tdvL7iKX1eQjufRTtHop23N4qZK8ravncdDsXUsbhYKNk/FoVD4rveSt/1zsFsetzR02e1jvBMMuALW5q53kY7R6GdfYun9Hlh/a+W3VIpjm/WxfHNt2vt7Ki1c57Wzuoyyi+yoHz2R8jKaALOxNQVPDaWuoIR8F3vTd/1Dseci03v9oO1/F7iG/xXlen7q7V2ztfaGV0c3yyL45vLrl96fMmlCU2rSxOazkfnRqFzcr2tzitiUT4DO0KRRsfqXuLmwA3Ac0LJz8SifAR813sS2AM4Hli8zj9mYNbIQt9A565er9/fhs6NLk1oOq80oWlVT1+taEerdGrDO8BRzqTipZicn1f06fl4Lh+Ia5SrLR32AJ4SSt4GnOa73ju2FejAd70ScK1QcjLmfGwcpoJv+u8mbflA6dSG3zqTijMwtSCn6NPzL1b63aq2i/Xp+WnAtCr167nNDDzAKDpE1P9I4BtCyUnARN/1VkdpLAq+630InCaUvBb4jdbO19J+N2nL7yCYSKqeTDJwAVL66+qU5fcFfgn8VyjpVVxXMCF815vju97XWz8YcENNv5cMGGbqxpWFHaFI6/r4XuI2wK3AFKHkHnE1Gpa25f3mpu3vZKFvRCHVKAIA4nI8oxDlRcR/j8k+wPNCyRuBs33XW9DL55MhA50zE30jAqkbVxZGmEg+VzIXjjvAD4DDhJIXAlf6rteahKDuqPX3kgVSXxZmYl0dSYd4VOiG/sAlmLqChyYqaX1q/r2kb5j1mSuyDlb03w64Wyj5GHCK73ozkhZY++8lfeozV0QdtHZsXgl0IDBNKHm1UHJwopJq/L1kYeZK3biycAofRf6Kd7a4DPgjUIxFmd7JAycArwklxyWV2lLr7yW2CI0IpG5cVJPiksERstTWuNJ3vRMwFXLjiVqpjM0wdTNmCCUPjr31LMwa0XSwdR91t6RuXFo7bVo7K1M95wopu7MOvuvN8F3vAOCbwLxYFKuM0cCDQsn7hZKj4mo0C2dMEeSv0tqxeWNMWVI3rvYT+5XQzqQaHiHXacp3vXswKR1nASviUbAivgLMFEpeLpSMXoe6tmeuie0n9ivFo0R4UjcuAK2dX2vtjNcmRdr+KXzMHcl3vVbf9S7BVMW9ERLesP+YRuAUTGrLTyKltmTAuELMWCuDfvTrWBSISCaMq3BSiy6c1HIF2tkR7fyFDaTUgO96C3zX+wHwaeDpWJStjCGYTZaXhJL7h2kgC8vCKg36JrQzqnBSyxWFk1pS97cgI8bVQWFc3/cK4/oeq0u5vXQp94wu5ejtJxYSHqV913sB2Bc4Cng/HqUrYhfg30LJO4SSI6r6ZhZmrgrevy7lntWl3J6FcX2PKYzrW1WNkKTJlHF1UDyl+Tm0sw/a+S7aeTf5l2hly7cF44sNjEXp6jgMU2rgQqFkv0q+kIlt8J4N+F208z2085niKc3PxSMwXlKP0OiO4vgmDdyau6z9HuAM4HSgz3of+zAWYXEtY8oQpJAchamEu2VignqnGTgbOFYoeRZws+963S+fEnwmlaK1s6zMr9cAlwITSxMaoxU+TZhMzlydKU1oXFWa0PjLwB+b3GnkakM7N8QhIyn/Qij5aeAZ4BbSNazObAn8BXhWKLlXdx/KiM91Q/CeO975ZLQzpjSh8dysGxZkeOZan9KpDW8BRziTihdifImn9On5N2JpPOZRWii5JXAx8P1YG46XTwPPCCX/Cpzhu9676/xrBmau0qkNzzqTimMwaTgv69Pzr6StUzXUjHF1EDzgWB9yXCOtULIPMB6z/NoklkaT57vAN4WSFwOXdZQaiG32iUgwgMYziFom88tCG1S4K9XjjqVQ8jBgNqboZq0YVgctmHu+ZgslD4d4nsnGTv0pQKQt56Z+Kz8hlHwcU2RzeLp/SGSGAbcLJZ9s6r9yy7S34mudmlsWJkGUJdAmWy08EUtJXRb57CZbLty39cNUCwTXPPWZC6IeltoyrCLwAPZSW5z6zBWNunER8cDUTkd6GNjFd71DMBc8PJi0QK0zcIhc49SXhRBtpE02im0uMMF3vfs6fuG73mzgy0LJQ4DLMTeXxE/HLSd1QlOfuYh2YJrQqnA5cBowtrNhdcZ3vfsxs9gE4opUWYcMHCLXOPWZC7I0c2ngz8DPfdfr9RYZ3/XagMuFkrdgttJ/TFwDZn3mikzduIi2Wxhj3cIpwEm+602v9ouBIf5EKHk1cBXmaqBIaOozUFTqxgWgnfbw340sfT7mppMeL6OrBN/1Xgb2Dw60LyXKuVu0masQWu4GRN3nAnTJWaLN1ZvV74qF74CrgF8AY+IwrM74rncnJr3l50C4ANfwu4XP6pKzJM6/p1apGxfQfmI/jXYORDvnOI4uWDjPuQUY5bveBUldG+S73hrf9S7C7CbeFKqRKp6D4+gi2jkX7Xw+C/UrskB9Ub0eA+9+bXSxvfH+VQuGVHRJuLvLLAaLuZU2PxU42Xe9Z0MrGJIg/eW3wJ6VfH6JPxL18k4Vtd2yxeJ5DX1av7r066NmRVBxg6M+c63Hsm/u8Oryw4dtP3DHN45r3vSjFb3PXBWNT+8BxwB7p2FYAL7rPQfsDXwv0KcXep+tmjf9aOXAHd84bvnhw7arG1ZX6jNXD2z+r+m5wqq+V694Z4sfF9Y058t9ZsiuPoPHzumuiTWYg96LfdezWWatR4SSm2Cyu0+ja3Y3AEtmjmLxdFH2+w19Wov9tl5wfUPL6p8uPGDX+hKwG+rGVQGbPzZ9aOsHA+5a8e4W++jiujY2ZDefwWP/W+5rdwKn+65ns0BoVQglhwMTgcPX/7clM3dk8bR1jcvJl+i31ftPNw1Y8a1FX/jkQjta1i5146qCIQ/N2He1GiRXLRiydcfvhu4+k8E7r2NcLwPjfNd7wrqCIRFK7ocpjb1bx++WzNiRRS+NXfuZli0Wv9vXXXrU4oN3ftK+hrVJ3eeqgsUH7/yfFd/daptBo18/qWnAitXr7RguBn4K7F5LhgXgu96TwKeA4wETGRL8bU0DVqwZNPr1U1Z8d6ut64ZVHfWZKyRDH3mloX1ly/XNAz/82mAx53rgV77rJRDjZxeh5ADgF0v8UT9uXbrp/X2HLvnBe/vsGf6QfSPG0ToTxUnr1Nng+P9ScDeBk0bXEQAAAABJRU5ErkJggg==" parent="RCJMpjR6mchD6mxSjPc7-38" vertex="1">
                    <mxGeometry x="143.86999999999995" y="277.95" width="51.6" height="48" as="geometry"/>
                </mxCell>
                <mxCell id="ZB_zEspCmlKGxQb4ixZx-2" value="" style="html=1;dashed=0;whitespace=wrap;fillColor=#2875E2;strokeColor=#ffffff;points=[[0.005,0.63,0],[0.1,0.2,0],[0.9,0.2,0],[0.5,0,0],[0.995,0.63,0],[0.72,0.99,0],[0.5,1,0],[0.28,0.99,0]];shape=mxgraph.kubernetes.icon;prIcon=svc;labelPosition=center;verticalLabelPosition=bottom;align=center;verticalAlign=top;" parent="RCJMpjR6mchD6mxSjPc7-38" vertex="1">
                    <mxGeometry x="288.87" y="262" width="50" height="48" as="geometry"/>
                </mxCell>
                <mxCell id="ZB_zEspCmlKGxQb4ixZx-1" value="" style="html=1;dashed=0;whitespace=wrap;fillColor=#2875E2;strokeColor=#ffffff;points=[[0.005,0.63,0],[0.1,0.2,0],[0.9,0.2,0],[0.5,0,0],[0.995,0.63,0],[0.72,0.99,0],[0.5,1,0],[0.28,0.99,0]];shape=mxgraph.kubernetes.icon;prIcon=svc;labelPosition=center;verticalLabelPosition=bottom;align=center;verticalAlign=top;" parent="RCJMpjR6mchD6mxSjPc7-38" vertex="1">
                    <mxGeometry x="293.87" y="257" width="50" height="48" as="geometry"/>
                </mxCell>
                <mxCell id="ZB_zEspCmlKGxQb4ixZx-3" value="" style="html=1;dashed=0;whitespace=wrap;fillColor=#2875E2;strokeColor=#ffffff;points=[[0.005,0.63,0],[0.1,0.2,0],[0.9,0.2,0],[0.5,0,0],[0.995,0.63,0],[0.72,0.99,0],[0.5,1,0],[0.28,0.99,0]];shape=mxgraph.kubernetes.icon;prIcon=pod;labelPosition=center;verticalLabelPosition=bottom;align=center;verticalAlign=top;" parent="RCJMpjR6mchD6mxSjPc7-38" vertex="1">
                    <mxGeometry x="378.87" y="215" width="50" height="48" as="geometry"/>
                </mxCell>
                <mxCell id="ZB_zEspCmlKGxQb4ixZx-4" value="" style="html=1;dashed=0;whitespace=wrap;fillColor=#2875E2;strokeColor=#ffffff;points=[[0.005,0.63,0],[0.1,0.2,0],[0.9,0.2,0],[0.5,0,0],[0.995,0.63,0],[0.72,0.99,0],[0.5,1,0],[0.28,0.99,0]];shape=mxgraph.kubernetes.icon;prIcon=pod;labelPosition=center;verticalLabelPosition=bottom;align=center;verticalAlign=top;" parent="RCJMpjR6mchD6mxSjPc7-38" vertex="1">
                    <mxGeometry x="383.87" y="210" width="50" height="48" as="geometry"/>
                </mxCell>
                <mxCell id="ZB_zEspCmlKGxQb4ixZx-5" value="" style="html=1;dashed=0;whitespace=wrap;fillColor=#2875E2;strokeColor=#ffffff;points=[[0.005,0.63,0],[0.1,0.2,0],[0.9,0.2,0],[0.5,0,0],[0.995,0.63,0],[0.72,0.99,0],[0.5,1,0],[0.28,0.99,0]];shape=mxgraph.kubernetes.icon;prIcon=pod;labelPosition=center;verticalLabelPosition=bottom;align=center;verticalAlign=top;" parent="RCJMpjR6mchD6mxSjPc7-38" vertex="1">
                    <mxGeometry x="378.87" y="310" width="50" height="48" as="geometry"/>
                </mxCell>
                <mxCell id="ZB_zEspCmlKGxQb4ixZx-6" value="" style="html=1;dashed=0;whitespace=wrap;fillColor=#2875E2;strokeColor=#ffffff;points=[[0.005,0.63,0],[0.1,0.2,0],[0.9,0.2,0],[0.5,0,0],[0.995,0.63,0],[0.72,0.99,0],[0.5,1,0],[0.28,0.99,0]];shape=mxgraph.kubernetes.icon;prIcon=pod;labelPosition=center;verticalLabelPosition=bottom;align=center;verticalAlign=top;" parent="RCJMpjR6mchD6mxSjPc7-38" vertex="1">
                    <mxGeometry x="383.87" y="305" width="50" height="48" as="geometry"/>
                </mxCell>
                <mxCell id="ZB_zEspCmlKGxQb4ixZx-7" value="" style="html=1;dashed=0;whitespace=wrap;fillColor=#2875E2;strokeColor=#ffffff;points=[[0.005,0.63,0],[0.1,0.2,0],[0.9,0.2,0],[0.5,0,0],[0.995,0.63,0],[0.72,0.99,0],[0.5,1,0],[0.28,0.99,0]];shape=mxgraph.kubernetes.icon;prIcon=pod;labelPosition=center;verticalLabelPosition=bottom;align=center;verticalAlign=top;opacity=30;" parent="RCJMpjR6mchD6mxSjPc7-38" vertex="1">
                    <mxGeometry x="378.87" y="415" width="50" height="48" as="geometry"/>
                </mxCell>
                <mxCell id="ZB_zEspCmlKGxQb4ixZx-8" value="" style="html=1;dashed=0;whitespace=wrap;fillColor=#2875E2;strokeColor=#ffffff;points=[[0.005,0.63,0],[0.1,0.2,0],[0.9,0.2,0],[0.5,0,0],[0.995,0.63,0],[0.72,0.99,0],[0.5,1,0],[0.28,0.99,0]];shape=mxgraph.kubernetes.icon;prIcon=pod;labelPosition=center;verticalLabelPosition=bottom;align=center;verticalAlign=top;opacity=30;" parent="RCJMpjR6mchD6mxSjPc7-38" vertex="1">
                    <mxGeometry x="383.87" y="410" width="50" height="48" as="geometry"/>
                </mxCell>
                <mxCell id="cSr9cWxB8z_6DD9cqmDK-1" value="" style="outlineConnect=0;dashed=0;verticalLabelPosition=bottom;verticalAlign=top;align=center;html=1;shape=mxgraph.aws3.ssl_padlock;fillColor=#D2D3D3;gradientColor=none;aspect=fixed;" parent="RCJMpjR6mchD6mxSjPc7-38" vertex="1">
                    <mxGeometry x="195.47" y="170" width="13" height="16.1" as="geometry"/>
                </mxCell>
                <mxCell id="cSr9cWxB8z_6DD9cqmDK-2" value="" style="outlineConnect=0;dashed=0;verticalLabelPosition=bottom;verticalAlign=top;align=center;html=1;shape=mxgraph.aws3.ssl_padlock;fillColor=#D2D3D3;gradientColor=none;aspect=fixed;" parent="RCJMpjR6mchD6mxSjPc7-38" vertex="1">
                    <mxGeometry x="423.87" y="37" width="13" height="16.1" as="geometry"/>
                </mxCell>
                <mxCell id="cSr9cWxB8z_6DD9cqmDK-3" value="" style="outlineConnect=0;dashed=0;verticalLabelPosition=bottom;verticalAlign=top;align=center;html=1;shape=mxgraph.aws3.ssl_padlock;fillColor=#D2D3D3;gradientColor=none;aspect=fixed;" parent="RCJMpjR6mchD6mxSjPc7-38" vertex="1">
                    <mxGeometry x="423.87" y="127" width="13" height="16.1" as="geometry"/>
                </mxCell>
                <mxCell id="BzF7Yjgl7Gwr_pIthtyf-6" value="" style="outlineConnect=0;dashed=0;verticalLabelPosition=bottom;verticalAlign=top;align=center;html=1;shape=mxgraph.aws3.ssl_padlock;fillColor=#D2D3D3;gradientColor=none;aspect=fixed;" parent="RCJMpjR6mchD6mxSjPc7-38" vertex="1">
                    <mxGeometry x="333.8699999999999" y="85.94999999999999" width="13" height="16.1" as="geometry"/>
                </mxCell>
                <mxCell id="BzF7Yjgl7Gwr_pIthtyf-7" value="" style="outlineConnect=0;dashed=0;verticalLabelPosition=bottom;verticalAlign=top;align=center;html=1;shape=mxgraph.aws3.ssl_padlock;fillColor=#D2D3D3;gradientColor=none;aspect=fixed;" parent="RCJMpjR6mchD6mxSjPc7-38" vertex="1">
                    <mxGeometry x="333.8699999999999" y="277.95" width="13" height="16.1" as="geometry"/>
                </mxCell>
                <mxCell id="RCJMpjR6mchD6mxSjPc7-15" value="&lt;div&gt;Resource Group&lt;/div&gt;&lt;div&gt;&quot;platform&quot;&lt;br&gt;&lt;/div&gt;" style="aspect=fixed;html=1;points=[];align=center;image;fontSize=12;image=img/lib/mscae/ResourceGroup.svg;" parent="RCJMpjR6mchD6mxSjPc7-33" vertex="1">
                    <mxGeometry width="50" height="40" as="geometry"/>
                </mxCell>
                <mxCell id="RCJMpjR6mchD6mxSjPc7-13" value="PostgreSQL" style="aspect=fixed;html=1;points=[];align=center;image;fontSize=12;image=img/lib/mscae/Azure_Database_for_PostgreSQL_servers.svg;" parent="RCJMpjR6mchD6mxSjPc7-33" vertex="1">
                    <mxGeometry x="896" y="230" width="38" height="50" as="geometry"/>
                </mxCell>
                <mxCell id="RCJMpjR6mchD6mxSjPc7-11" value="Container Registry" style="aspect=fixed;html=1;points=[];align=center;image;fontSize=12;image=img/lib/mscae/Container_Registries.svg;" parent="RCJMpjR6mchD6mxSjPc7-33" vertex="1">
                    <mxGeometry x="371" y="70" width="50" height="43" as="geometry"/>
                </mxCell>
                <mxCell id="2UT0oM7tgV36ymHJV0K3-4" style="edgeStyle=orthogonalEdgeStyle;rounded=0;orthogonalLoop=1;jettySize=auto;html=1;entryX=0;entryY=0.5;entryDx=0;entryDy=0;" parent="RCJMpjR6mchD6mxSjPc7-33" source="RCJMpjR6mchD6mxSjPc7-17" target="2UT0oM7tgV36ymHJV0K3-1" edge="1">
                    <mxGeometry relative="1" as="geometry"/>
                </mxCell>
                <mxCell id="RCJMpjR6mchD6mxSjPc7-17" value="Load Balancer" style="aspect=fixed;html=1;points=[];align=center;image;fontSize=12;image=img/lib/mscae/Load_Balancer_feature.svg;" parent="RCJMpjR6mchD6mxSjPc7-33" vertex="1">
                    <mxGeometry x="60" y="405" width="50" height="50" as="geometry"/>
                </mxCell>
                <mxCell id="RCJMpjR6mchD6mxSjPc7-1" value="Blob Storage" style="aspect=fixed;html=1;points=[];align=center;image;fontSize=12;image=img/lib/mscae/Blog_Storage.svg;" parent="RCJMpjR6mchD6mxSjPc7-33" vertex="1">
                    <mxGeometry x="890" y="360" width="50" height="46" as="geometry"/>
                </mxCell>
                <mxCell id="2UT0oM7tgV36ymHJV0K3-41" style="edgeStyle=orthogonalEdgeStyle;rounded=1;orthogonalLoop=1;jettySize=auto;html=1;" parent="RCJMpjR6mchD6mxSjPc7-33" source="RCJMpjR6mchD6mxSjPc7-10" target="2UT0oM7tgV36ymHJV0K3-39" edge="1">
                    <mxGeometry relative="1" as="geometry"/>
                </mxCell>
                <mxCell id="RCJMpjR6mchD6mxSjPc7-10" value="Data Factory" style="aspect=fixed;html=1;points=[];align=center;image;fontSize=12;image=img/lib/mscae/Data_Factory.svg;" parent="RCJMpjR6mchD6mxSjPc7-33" vertex="1">
                    <mxGeometry x="510" y="900" width="50" height="50" as="geometry"/>
                </mxCell>
                <mxCell id="cH-N8KxVNmXAt6ttdlyN-7" style="edgeStyle=orthogonalEdgeStyle;rounded=1;orthogonalLoop=1;jettySize=auto;html=1;" parent="RCJMpjR6mchD6mxSjPc7-33" source="RCJMpjR6mchD6mxSjPc7-9" target="cH-N8KxVNmXAt6ttdlyN-5" edge="1">
                    <mxGeometry relative="1" as="geometry"/>
                </mxCell>
                <mxCell id="RCJMpjR6mchD6mxSjPc7-9" value="EventHub" style="aspect=fixed;html=1;points=[];align=center;image;fontSize=12;image=img/lib/mscae/Event_Hubs.svg;" parent="RCJMpjR6mchD6mxSjPc7-33" vertex="1">
                    <mxGeometry x="892" y="900" width="48" height="50" as="geometry"/>
                </mxCell>
                <mxCell id="RCJMpjR6mchD6mxSjPc7-19" value="Search" style="aspect=fixed;html=1;points=[];align=center;image;fontSize=12;image=img/lib/mscae/Search.svg;opacity=30;" parent="RCJMpjR6mchD6mxSjPc7-33" vertex="1">
                    <mxGeometry x="890" y="480" width="50" height="50" as="geometry"/>
                </mxCell>
                <mxCell id="RCJMpjR6mchD6mxSjPc7-16" value="Public IP Address" style="aspect=fixed;html=1;points=[];align=center;image;fontSize=12;image=img/lib/mscae/App_Service_IPAddress.svg;" parent="RCJMpjR6mchD6mxSjPc7-33" vertex="1">
                    <mxGeometry x="60" y="490" width="50" height="42" as="geometry"/>
                </mxCell>
                <mxCell id="2UT0oM7tgV36ymHJV0K3-23" style="edgeStyle=orthogonalEdgeStyle;rounded=1;orthogonalLoop=1;jettySize=auto;html=1;exitX=0.995;exitY=0.63;exitDx=0;exitDy=0;exitPerimeter=0;" parent="RCJMpjR6mchD6mxSjPc7-33" source="RCJMpjR6mchD6mxSjPc7-57" target="RCJMpjR6mchD6mxSjPc7-19" edge="1">
                    <mxGeometry relative="1" as="geometry">
                        <Array as="points">
                            <mxPoint x="820" y="490"/>
                            <mxPoint x="820" y="505"/>
                        </Array>
                    </mxGeometry>
                </mxCell>
                <mxCell id="2UT0oM7tgV36ymHJV0K3-24" style="edgeStyle=orthogonalEdgeStyle;rounded=1;orthogonalLoop=1;jettySize=auto;html=1;exitX=0.995;exitY=0.63;exitDx=0;exitDy=0;exitPerimeter=0;" parent="RCJMpjR6mchD6mxSjPc7-33" source="RCJMpjR6mchD6mxSjPc7-56" target="RCJMpjR6mchD6mxSjPc7-19" edge="1">
                    <mxGeometry relative="1" as="geometry">
                        <Array as="points">
                            <mxPoint x="820" y="585"/>
                            <mxPoint x="820" y="505"/>
                        </Array>
                    </mxGeometry>
                </mxCell>
                <mxCell id="2UT0oM7tgV36ymHJV0K3-25" style="edgeStyle=orthogonalEdgeStyle;rounded=1;orthogonalLoop=1;jettySize=auto;html=1;exitX=0.995;exitY=0.63;exitDx=0;exitDy=0;exitPerimeter=0;" parent="RCJMpjR6mchD6mxSjPc7-33" source="RCJMpjR6mchD6mxSjPc7-56" target="RCJMpjR6mchD6mxSjPc7-1" edge="1">
                    <mxGeometry relative="1" as="geometry">
                        <Array as="points">
                            <mxPoint x="820" y="585"/>
                            <mxPoint x="820" y="383"/>
                        </Array>
                    </mxGeometry>
                </mxCell>
                <mxCell id="2UT0oM7tgV36ymHJV0K3-26" style="edgeStyle=orthogonalEdgeStyle;rounded=1;orthogonalLoop=1;jettySize=auto;html=1;exitX=0.995;exitY=0.63;exitDx=0;exitDy=0;exitPerimeter=0;" parent="RCJMpjR6mchD6mxSjPc7-33" source="RCJMpjR6mchD6mxSjPc7-57" target="RCJMpjR6mchD6mxSjPc7-1" edge="1">
                    <mxGeometry relative="1" as="geometry">
                        <Array as="points">
                            <mxPoint x="820" y="490"/>
                            <mxPoint x="820" y="383"/>
                        </Array>
                    </mxGeometry>
                </mxCell>
                <mxCell id="2UT0oM7tgV36ymHJV0K3-27" style="edgeStyle=orthogonalEdgeStyle;rounded=1;orthogonalLoop=1;jettySize=auto;html=1;exitX=0.995;exitY=0.63;exitDx=0;exitDy=0;exitPerimeter=0;" parent="RCJMpjR6mchD6mxSjPc7-33" source="RCJMpjR6mchD6mxSjPc7-57" target="RCJMpjR6mchD6mxSjPc7-13" edge="1">
                    <mxGeometry relative="1" as="geometry">
                        <Array as="points">
                            <mxPoint x="820" y="490"/>
                            <mxPoint x="820" y="255"/>
                        </Array>
                        <mxPoint x="870" y="255" as="targetPoint"/>
                    </mxGeometry>
                </mxCell>
                <mxCell id="2UT0oM7tgV36ymHJV0K3-28" style="edgeStyle=orthogonalEdgeStyle;rounded=1;orthogonalLoop=1;jettySize=auto;html=1;exitX=0.995;exitY=0.63;exitDx=0;exitDy=0;exitPerimeter=0;" parent="RCJMpjR6mchD6mxSjPc7-33" source="RCJMpjR6mchD6mxSjPc7-56" target="RCJMpjR6mchD6mxSjPc7-13" edge="1">
                    <mxGeometry relative="1" as="geometry">
                        <Array as="points">
                            <mxPoint x="820" y="585"/>
                            <mxPoint x="820" y="255"/>
                        </Array>
                        <mxPoint x="870" y="255" as="targetPoint"/>
                    </mxGeometry>
                </mxCell>
                <mxCell id="2UT0oM7tgV36ymHJV0K3-30" style="edgeStyle=orthogonalEdgeStyle;rounded=1;orthogonalLoop=1;jettySize=auto;html=1;exitX=0.28;exitY=0.99;exitDx=0;exitDy=0;exitPerimeter=0;fillColor=#ffe6cc;strokeColor=#d79b00;" parent="RCJMpjR6mchD6mxSjPc7-33" source="RCJMpjR6mchD6mxSjPc7-59" target="RCJMpjR6mchD6mxSjPc7-14" edge="1">
                    <mxGeometry relative="1" as="geometry">
                        <Array as="points">
                            <mxPoint x="630" y="708"/>
                            <mxPoint x="630" y="720"/>
                            <mxPoint x="355" y="720"/>
                        </Array>
                    </mxGeometry>
                </mxCell>
                <mxCell id="2UT0oM7tgV36ymHJV0K3-31" style="edgeStyle=orthogonalEdgeStyle;rounded=1;orthogonalLoop=1;jettySize=auto;html=1;exitX=0.28;exitY=0.99;exitDx=0;exitDy=0;exitPerimeter=0;fillColor=#ffe6cc;strokeColor=#d79b00;" parent="RCJMpjR6mchD6mxSjPc7-33" source="RCJMpjR6mchD6mxSjPc7-56" target="RCJMpjR6mchD6mxSjPc7-14" edge="1">
                    <mxGeometry relative="1" as="geometry">
                        <Array as="points">
                            <mxPoint x="620" y="603"/>
                            <mxPoint x="620" y="720"/>
                            <mxPoint x="355" y="720"/>
                        </Array>
                    </mxGeometry>
                </mxCell>
                <mxCell id="2UT0oM7tgV36ymHJV0K3-32" style="edgeStyle=orthogonalEdgeStyle;rounded=1;orthogonalLoop=1;jettySize=auto;html=1;exitX=0.28;exitY=0.99;exitDx=0;exitDy=0;exitPerimeter=0;fillColor=#ffe6cc;strokeColor=#d79b00;" parent="RCJMpjR6mchD6mxSjPc7-33" source="RCJMpjR6mchD6mxSjPc7-57" target="RCJMpjR6mchD6mxSjPc7-14" edge="1">
                    <mxGeometry relative="1" as="geometry">
                        <Array as="points">
                            <mxPoint x="620" y="508"/>
                            <mxPoint x="620" y="720"/>
                            <mxPoint x="355" y="720"/>
                        </Array>
                    </mxGeometry>
                </mxCell>
                <mxCell id="2UT0oM7tgV36ymHJV0K3-33" style="edgeStyle=orthogonalEdgeStyle;rounded=1;orthogonalLoop=1;jettySize=auto;html=1;exitX=0.28;exitY=0.99;exitDx=0;exitDy=0;exitPerimeter=0;fillColor=#ffe6cc;strokeColor=#d79b00;" parent="RCJMpjR6mchD6mxSjPc7-33" source="RCJMpjR6mchD6mxSjPc7-48" target="RCJMpjR6mchD6mxSjPc7-14" edge="1">
                    <mxGeometry relative="1" as="geometry">
                        <Array as="points">
                            <mxPoint x="620" y="406"/>
                            <mxPoint x="620" y="720"/>
                            <mxPoint x="355" y="720"/>
                        </Array>
                    </mxGeometry>
                </mxCell>
                <mxCell id="2UT0oM7tgV36ymHJV0K3-34" style="edgeStyle=orthogonalEdgeStyle;rounded=1;orthogonalLoop=1;jettySize=auto;html=1;exitX=0.28;exitY=0.99;exitDx=0;exitDy=0;exitPerimeter=0;fillColor=#ffe6cc;strokeColor=#d79b00;" parent="RCJMpjR6mchD6mxSjPc7-33" source="RCJMpjR6mchD6mxSjPc7-54" target="RCJMpjR6mchD6mxSjPc7-14" edge="1">
                    <mxGeometry relative="1" as="geometry">
                        <Array as="points">
                            <mxPoint x="620" y="316"/>
                            <mxPoint x="620" y="720"/>
                            <mxPoint x="355" y="720"/>
                        </Array>
                    </mxGeometry>
                </mxCell>
                <mxCell id="2UT0oM7tgV36ymHJV0K3-35" style="edgeStyle=orthogonalEdgeStyle;rounded=1;orthogonalLoop=1;jettySize=auto;html=1;exitX=0;exitY=1;exitDx=0;exitDy=0;fillColor=#ffe6cc;strokeColor=#d79b00;" parent="RCJMpjR6mchD6mxSjPc7-33" source="2UT0oM7tgV36ymHJV0K3-3" target="RCJMpjR6mchD6mxSjPc7-14" edge="1">
                    <mxGeometry relative="1" as="geometry">
                        <Array as="points">
                            <mxPoint x="355" y="566"/>
                        </Array>
                    </mxGeometry>
                </mxCell>
                <mxCell id="2UT0oM7tgV36ymHJV0K3-36" style="edgeStyle=orthogonalEdgeStyle;rounded=1;orthogonalLoop=1;jettySize=auto;html=1;exitX=0;exitY=1;exitDx=0;exitDy=0;fillColor=#ffe6cc;strokeColor=#d79b00;" parent="RCJMpjR6mchD6mxSjPc7-33" source="2UT0oM7tgV36ymHJV0K3-1" target="RCJMpjR6mchD6mxSjPc7-14" edge="1">
                    <mxGeometry relative="1" as="geometry">
                        <Array as="points">
                            <mxPoint x="355" y="454"/>
                        </Array>
                    </mxGeometry>
                </mxCell>
                <mxCell id="2UT0oM7tgV36ymHJV0K3-37" value="Monitor" style="aspect=fixed;html=1;points=[];align=center;image;fontSize=12;image=img/lib/mscae/Monitor.svg;opacity=30;" parent="RCJMpjR6mchD6mxSjPc7-33" vertex="1">
                    <mxGeometry x="371" y="802" width="50" height="50" as="geometry"/>
                </mxCell>
                <mxCell id="2UT0oM7tgV36ymHJV0K3-39" value="Synapse Analytics" style="aspect=fixed;html=1;points=[];align=center;image;fontSize=12;image=img/lib/mscae/SQL_DataWarehouse.svg;" parent="RCJMpjR6mchD6mxSjPc7-33" vertex="1">
                    <mxGeometry x="330" y="901" width="50" height="48" as="geometry"/>
                </mxCell>
                <mxCell id="rgPabu4r26zreT56ezTP-1" value="pull images" style="edgeStyle=orthogonalEdgeStyle;rounded=1;orthogonalLoop=1;jettySize=auto;html=1;" parent="RCJMpjR6mchD6mxSjPc7-33" source="RCJMpjR6mchD6mxSjPc7-2" target="RCJMpjR6mchD6mxSjPc7-11" edge="1">
                    <mxGeometry x="-0.2469" relative="1" as="geometry">
                        <Array as="points">
                            <mxPoint x="280" y="92"/>
                        </Array>
                        <mxPoint as="offset"/>
                    </mxGeometry>
                </mxCell>
                <mxCell id="Iq-xEekV8FevCKalEocv-4" style="edgeStyle=orthogonalEdgeStyle;rounded=0;orthogonalLoop=1;jettySize=auto;html=1;" parent="RCJMpjR6mchD6mxSjPc7-33" source="Iq-xEekV8FevCKalEocv-1" target="2UT0oM7tgV36ymHJV0K3-39" edge="1">
                    <mxGeometry relative="1" as="geometry"/>
                </mxCell>
                <mxCell id="Iq-xEekV8FevCKalEocv-1" value="Data visualisation tool" style="aspect=fixed;html=1;points=[];align=center;image;fontSize=12;image=img/lib/mscae/Shared_Dashboard.svg;opacity=30;" parent="RCJMpjR6mchD6mxSjPc7-33" vertex="1">
                    <mxGeometry x="150" y="901" width="58.54" height="48" as="geometry"/>
                </mxCell>
                <mxCell id="I4GA6FvxCO8qQzgMiuPE-2" style="edgeStyle=orthogonalEdgeStyle;rounded=1;orthogonalLoop=1;jettySize=auto;html=1;" parent="RCJMpjR6mchD6mxSjPc7-33" source="I4GA6FvxCO8qQzgMiuPE-1" target="RCJMpjR6mchD6mxSjPc7-11" edge="1">
                    <mxGeometry relative="1" as="geometry">
                        <Array as="points">
                            <mxPoint x="85" y="50"/>
                            <mxPoint x="396" y="50"/>
                        </Array>
                    </mxGeometry>
                </mxCell>
                <mxCell id="I4GA6FvxCO8qQzgMiuPE-4" value="scan images" style="edgeLabel;html=1;align=center;verticalAlign=middle;resizable=0;points=[];" parent="I4GA6FvxCO8qQzgMiuPE-2" vertex="1" connectable="0">
                    <mxGeometry x="-0.0541" relative="1" as="geometry">
                        <mxPoint as="offset"/>
                    </mxGeometry>
                </mxCell>
                <mxCell id="I4GA6FvxCO8qQzgMiuPE-1" value="Security Center" style="aspect=fixed;html=1;points=[];align=center;image;fontSize=12;image=img/lib/mscae/Security_Center.svg;opacity=30;" parent="RCJMpjR6mchD6mxSjPc7-33" vertex="1">
                    <mxGeometry x="69.52" y="70" width="30.96" height="43" as="geometry"/>
                </mxCell>
                <mxCell id="RCJMpjR6mchD6mxSjPc7-14" value="Application Insights" style="aspect=fixed;html=1;points=[];align=center;image;fontSize=12;image=img/lib/mscae/Application_Insights.svg;" parent="RCJMpjR6mchD6mxSjPc7-33" vertex="1">
                    <mxGeometry x="339" y="782" width="32" height="50" as="geometry"/>
                </mxCell>
                <mxCell id="TOJh3lbi-i6ziBOOhR3S-1" value="Azure Active Directory B2C" style="aspect=fixed;html=1;points=[];align=center;image;fontSize=12;image=img/lib/mscae/Azure_AD_B2C.svg;" parent="RCJMpjR6mchD6mxSjPc7-33" vertex="1">
                    <mxGeometry x="890" y="124" width="50" height="46" as="geometry"/>
                </mxCell>
                <mxCell id="TOJh3lbi-i6ziBOOhR3S-2" style="edgeStyle=orthogonalEdgeStyle;rounded=1;orthogonalLoop=1;jettySize=auto;html=1;exitX=0.995;exitY=0.63;exitDx=0;exitDy=0;exitPerimeter=0;" parent="RCJMpjR6mchD6mxSjPc7-33" source="RCJMpjR6mchD6mxSjPc7-54" target="TOJh3lbi-i6ziBOOhR3S-1" edge="1">
                    <mxGeometry relative="1" as="geometry">
                        <Array as="points">
                            <mxPoint x="810" y="298"/>
                            <mxPoint x="810" y="147"/>
                        </Array>
                    </mxGeometry>
                </mxCell>
                <mxCell id="TOJh3lbi-i6ziBOOhR3S-3" style="edgeStyle=orthogonalEdgeStyle;rounded=1;orthogonalLoop=1;jettySize=auto;html=1;exitX=0.995;exitY=0.63;exitDx=0;exitDy=0;exitPerimeter=0;" parent="RCJMpjR6mchD6mxSjPc7-33" source="RCJMpjR6mchD6mxSjPc7-48" target="TOJh3lbi-i6ziBOOhR3S-1" edge="1">
                    <mxGeometry relative="1" as="geometry">
                        <Array as="points">
                            <mxPoint x="810" y="388"/>
                            <mxPoint x="810" y="147"/>
                        </Array>
                    </mxGeometry>
                </mxCell>
                <mxCell id="cH-N8KxVNmXAt6ttdlyN-2" style="edgeStyle=orthogonalEdgeStyle;rounded=1;orthogonalLoop=1;jettySize=auto;html=1;" parent="RCJMpjR6mchD6mxSjPc7-33" source="cH-N8KxVNmXAt6ttdlyN-1" target="RCJMpjR6mchD6mxSjPc7-9" edge="1">
                    <mxGeometry relative="1" as="geometry">
                        <mxPoint x="1050" y="920" as="targetPoint"/>
                        <Array as="points">
                            <mxPoint x="970" y="615"/>
                            <mxPoint x="970" y="925"/>
                        </Array>
                    </mxGeometry>
                </mxCell>
                <mxCell id="cH-N8KxVNmXAt6ttdlyN-1" value="Event Grid Topic" style="aspect=fixed;html=1;points=[];align=center;image;fontSize=12;image=img/lib/mscae/Event_Grid_Topics.svg;" parent="RCJMpjR6mchD6mxSjPc7-33" vertex="1">
                    <mxGeometry x="890" y="590" width="50" height="50" as="geometry"/>
                </mxCell>
                <mxCell id="ZB_zEspCmlKGxQb4ixZx-9" style="edgeStyle=orthogonalEdgeStyle;rounded=1;orthogonalLoop=1;jettySize=auto;html=1;exitX=0.995;exitY=0.63;exitDx=0;exitDy=0;exitPerimeter=0;" parent="RCJMpjR6mchD6mxSjPc7-33" source="RCJMpjR6mchD6mxSjPc7-59" target="cH-N8KxVNmXAt6ttdlyN-1" edge="1">
                    <mxGeometry relative="1" as="geometry">
                        <Array as="points">
                            <mxPoint x="820" y="690"/>
                            <mxPoint x="820" y="615"/>
                        </Array>
                    </mxGeometry>
                </mxCell>
                <mxCell id="2UT0oM7tgV36ymHJV0K3-22" style="edgeStyle=orthogonalEdgeStyle;rounded=1;orthogonalLoop=1;jettySize=auto;html=1;exitX=0.995;exitY=0.63;exitDx=0;exitDy=0;exitPerimeter=0;" parent="RCJMpjR6mchD6mxSjPc7-33" source="RCJMpjR6mchD6mxSjPc7-56" target="cH-N8KxVNmXAt6ttdlyN-1" edge="1">
                    <mxGeometry relative="1" as="geometry">
                        <Array as="points">
                            <mxPoint x="820" y="585"/>
                            <mxPoint x="820" y="615"/>
                        </Array>
                    </mxGeometry>
                </mxCell>
                <mxCell id="2UT0oM7tgV36ymHJV0K3-21" style="edgeStyle=orthogonalEdgeStyle;rounded=1;orthogonalLoop=1;jettySize=auto;html=1;exitX=0.995;exitY=0.63;exitDx=0;exitDy=0;exitPerimeter=0;" parent="RCJMpjR6mchD6mxSjPc7-33" source="RCJMpjR6mchD6mxSjPc7-57" target="cH-N8KxVNmXAt6ttdlyN-1" edge="1">
                    <mxGeometry relative="1" as="geometry">
                        <Array as="points">
                            <mxPoint x="820" y="490"/>
                            <mxPoint x="820" y="615"/>
                        </Array>
                    </mxGeometry>
                </mxCell>
                <mxCell id="cH-N8KxVNmXAt6ttdlyN-8" style="edgeStyle=orthogonalEdgeStyle;rounded=1;orthogonalLoop=1;jettySize=auto;html=1;" parent="RCJMpjR6mchD6mxSjPc7-33" source="cH-N8KxVNmXAt6ttdlyN-5" target="cH-N8KxVNmXAt6ttdlyN-6" edge="1">
                    <mxGeometry relative="1" as="geometry"/>
                </mxCell>
                <mxCell id="cH-N8KxVNmXAt6ttdlyN-5" value="Stream Analytics Job" style="aspect=fixed;html=1;points=[];align=center;image;fontSize=12;image=img/lib/mscae/Stream_Analytics.svg;" parent="RCJMpjR6mchD6mxSjPc7-33" vertex="1">
                    <mxGeometry x="775" y="905.5" width="50" height="39" as="geometry"/>
                </mxCell>
                <mxCell id="cH-N8KxVNmXAt6ttdlyN-9" style="edgeStyle=orthogonalEdgeStyle;rounded=1;orthogonalLoop=1;jettySize=auto;html=1;" parent="RCJMpjR6mchD6mxSjPc7-33" source="cH-N8KxVNmXAt6ttdlyN-6" target="RCJMpjR6mchD6mxSjPc7-10" edge="1">
                    <mxGeometry relative="1" as="geometry"/>
                </mxCell>
                <mxCell id="cH-N8KxVNmXAt6ttdlyN-6" value="Blob Storage" style="aspect=fixed;html=1;points=[];align=center;image;fontSize=12;image=img/lib/mscae/Blog_Storage.svg;" parent="RCJMpjR6mchD6mxSjPc7-33" vertex="1">
                    <mxGeometry x="650" y="902" width="50" height="46" as="geometry"/>
                </mxCell>
                <mxCell id="RCJMpjR6mchD6mxSjPc7-32" value="" style="group" parent="1" vertex="1" connectable="0">
                    <mxGeometry x="570" y="-290" width="250" height="130" as="geometry"/>
                </mxCell>
                <mxCell id="RCJMpjR6mchD6mxSjPc7-23" value="" style="rounded=0;whiteSpace=wrap;html=1;fillColor=none;dashed=1;" parent="RCJMpjR6mchD6mxSjPc7-32" vertex="1">
                    <mxGeometry x="20" y="20" width="230" height="110" as="geometry"/>
                </mxCell>
                <mxCell id="RCJMpjR6mchD6mxSjPc7-24" value="Resource Group&lt;br&gt;&quot;tfstate&quot;" style="aspect=fixed;html=1;points=[];align=center;image;fontSize=12;image=img/lib/mscae/ResourceGroup.svg;" parent="RCJMpjR6mchD6mxSjPc7-32" vertex="1">
                    <mxGeometry width="50" height="40" as="geometry"/>
                </mxCell>
                <mxCell id="RCJMpjR6mchD6mxSjPc7-25" value="&lt;div&gt;Blob Storage&lt;/div&gt;&lt;div&gt;&quot;tfstate&quot;&lt;br&gt;&lt;/div&gt;" style="aspect=fixed;html=1;points=[];align=center;image;fontSize=12;image=img/lib/mscae/Blog_Storage.svg;" parent="RCJMpjR6mchD6mxSjPc7-32" vertex="1">
                    <mxGeometry x="130" y="35" width="50" height="46" as="geometry"/>
                </mxCell>
                <mxCell id="Iq-xEekV8FevCKalEocv-3" style="edgeStyle=orthogonalEdgeStyle;rounded=0;orthogonalLoop=1;jettySize=auto;html=1;" parent="1" source="2UT0oM7tgV36ymHJV0K3-42" target="Iq-xEekV8FevCKalEocv-1" edge="1">
                    <mxGeometry relative="1" as="geometry"/>
                </mxCell>
                <mxCell id="2UT0oM7tgV36ymHJV0K3-42" value="Insights" style="aspect=fixed;html=1;points=[];align=center;image;fontSize=12;image=img/lib/mscae/Person.svg;" parent="1" vertex="1">
                    <mxGeometry x="460" y="760" width="37" height="50" as="geometry"/>
                </mxCell>
                <mxCell id="2UT0oM7tgV36ymHJV0K3-45" style="edgeStyle=orthogonalEdgeStyle;rounded=1;orthogonalLoop=1;jettySize=auto;html=1;" parent="1" source="2UT0oM7tgV36ymHJV0K3-44" target="RCJMpjR6mchD6mxSjPc7-14" edge="1">
                    <mxGeometry relative="1" as="geometry"/>
                </mxCell>
                <mxCell id="2UT0oM7tgV36ymHJV0K3-44" value="Ops" style="aspect=fixed;html=1;points=[];align=center;image;fontSize=12;image=img/lib/mscae/Person.svg;" parent="1" vertex="1">
                    <mxGeometry x="460" y="642" width="37" height="50" as="geometry"/>
                </mxCell>
                <mxCell id="2UT0oM7tgV36ymHJV0K3-47" style="edgeStyle=orthogonalEdgeStyle;rounded=1;orthogonalLoop=1;jettySize=auto;html=1;" parent="1" source="2UT0oM7tgV36ymHJV0K3-46" target="RCJMpjR6mchD6mxSjPc7-17" edge="1">
                    <mxGeometry relative="1" as="geometry"/>
                </mxCell>
                <mxCell id="2UT0oM7tgV36ymHJV0K3-46" value="User" style="aspect=fixed;html=1;points=[];align=center;image;fontSize=12;image=img/lib/mscae/Person.svg;" parent="1" vertex="1">
                    <mxGeometry x="460" y="265" width="37" height="50" as="geometry"/>
                </mxCell>
                <mxCell id="2UT0oM7tgV36ymHJV0K3-57" value="" style="group" parent="1" vertex="1" connectable="0">
                    <mxGeometry x="570" y="-480" width="700" height="170" as="geometry"/>
                </mxCell>
                <mxCell id="2UT0oM7tgV36ymHJV0K3-54" value="" style="rounded=0;whiteSpace=wrap;html=1;fillColor=none;dashed=1;" parent="2UT0oM7tgV36ymHJV0K3-57" vertex="1">
                    <mxGeometry x="20" y="30" width="620" height="140" as="geometry"/>
                </mxCell>
                <mxCell id="2UT0oM7tgV36ymHJV0K3-50" value="&lt;div&gt;GitHub Organization&lt;br&gt;&lt;/div&gt;&lt;div&gt;&quot;FutureNHS&quot;&lt;br&gt;&lt;/div&gt;" style="verticalLabelPosition=bottom;html=1;verticalAlign=top;align=center;strokeColor=none;fillColor=#00BEF2;shape=mxgraph.azure.github_code;pointerEvents=1;" parent="2UT0oM7tgV36ymHJV0K3-57" vertex="1">
                    <mxGeometry width="50" height="50" as="geometry"/>
                </mxCell>
                <mxCell id="2UT0oM7tgV36ymHJV0K3-61" style="edgeStyle=orthogonalEdgeStyle;rounded=1;orthogonalLoop=1;jettySize=auto;html=1;exitX=1;exitY=0.5;exitDx=0;exitDy=0;exitPerimeter=0;fontColor=#000000;" parent="2UT0oM7tgV36ymHJV0K3-57" source="2UT0oM7tgV36ymHJV0K3-52" target="2UT0oM7tgV36ymHJV0K3-60" edge="1">
                    <mxGeometry relative="1" as="geometry"/>
                </mxCell>
                <mxCell id="2UT0oM7tgV36ymHJV0K3-52" value="&lt;div&gt;Git Repository&lt;/div&gt;&lt;div&gt;&quot;futurenhs-platform&quot;&lt;br&gt;&lt;/div&gt;" style="verticalLabelPosition=bottom;html=1;verticalAlign=top;align=center;strokeColor=none;fillColor=#00BEF2;shape=mxgraph.azure.git_repository;" parent="2UT0oM7tgV36ymHJV0K3-57" vertex="1">
                    <mxGeometry x="170" y="75" width="50" height="50" as="geometry"/>
                </mxCell>
                <mxCell id="2UT0oM7tgV36ymHJV0K3-49" value="&lt;div&gt;Git Repository&lt;/div&gt;&lt;div&gt;&quot;futurenhs-deployments&quot;&lt;br&gt;&lt;/div&gt;" style="verticalLabelPosition=bottom;html=1;verticalAlign=top;align=center;strokeColor=none;fillColor=#00BEF2;shape=mxgraph.azure.git_repository;" parent="2UT0oM7tgV36ymHJV0K3-57" vertex="1">
                    <mxGeometry x="520" y="75" width="50" height="50" as="geometry"/>
                </mxCell>
                <mxCell id="2UT0oM7tgV36ymHJV0K3-62" style="edgeStyle=orthogonalEdgeStyle;rounded=1;orthogonalLoop=1;jettySize=auto;html=1;exitX=1;exitY=0.5;exitDx=0;exitDy=0;fontColor=#000000;" parent="2UT0oM7tgV36ymHJV0K3-57" source="2UT0oM7tgV36ymHJV0K3-60" target="2UT0oM7tgV36ymHJV0K3-49" edge="1">
                    <mxGeometry relative="1" as="geometry"/>
                </mxCell>
                <mxCell id="2UT0oM7tgV36ymHJV0K3-60" value="&lt;div&gt;GitHub Actions&lt;/div&gt;(Continuous Integration)" style="aspect=fixed;perimeter=ellipsePerimeter;html=1;align=center;shadow=0;dashed=0;fontColor=#000000;labelBackgroundColor=#ffffff;fontSize=12;spacingTop=3;image;image=img/lib/ibm/devops/build_test.svg;" parent="2UT0oM7tgV36ymHJV0K3-57" vertex="1">
                    <mxGeometry x="350" y="50" width="50" height="50" as="geometry"/>
                </mxCell>
                <mxCell id="2UT0oM7tgV36ymHJV0K3-59" style="edgeStyle=orthogonalEdgeStyle;rounded=1;orthogonalLoop=1;jettySize=auto;html=1;entryX=0;entryY=0.5;entryDx=0;entryDy=0;entryPerimeter=0;" parent="1" source="2UT0oM7tgV36ymHJV0K3-58" target="2UT0oM7tgV36ymHJV0K3-52" edge="1">
                    <mxGeometry relative="1" as="geometry"/>
                </mxCell>
                <mxCell id="2UT0oM7tgV36ymHJV0K3-58" value="Developer" style="aspect=fixed;html=1;points=[];align=center;image;fontSize=12;image=img/lib/mscae/Person.svg;" parent="1" vertex="1">
                    <mxGeometry x="460" y="-405" width="37" height="50" as="geometry"/>
                </mxCell>
                <mxCell id="2UT0oM7tgV36ymHJV0K3-63" value="push images" style="edgeStyle=orthogonalEdgeStyle;rounded=1;orthogonalLoop=1;jettySize=auto;html=1;exitX=1;exitY=0.5;exitDx=0;exitDy=0;fontColor=#000000;" parent="1" source="2UT0oM7tgV36ymHJV0K3-60" target="RCJMpjR6mchD6mxSjPc7-11" edge="1">
                    <mxGeometry relative="1" as="geometry">
                        <Array as="points">
                            <mxPoint x="1030" y="-405"/>
                            <mxPoint x="1030" y="-48"/>
                        </Array>
                    </mxGeometry>
                </mxCell>
                <mxCell id="2UT0oM7tgV36ymHJV0K3-64" value="&lt;div&gt;poll for changes&lt;/div&gt;" style="edgeStyle=orthogonalEdgeStyle;rounded=1;orthogonalLoop=1;jettySize=auto;html=1;exitX=0.5;exitY=0;exitDx=0;exitDy=0;entryX=1;entryY=0.5;entryDx=0;entryDy=0;entryPerimeter=0;fontColor=#000000;fillColor=#d5e8d4;strokeColor=#000000;" parent="1" source="2UT0oM7tgV36ymHJV0K3-2" target="2UT0oM7tgV36ymHJV0K3-49" edge="1">
                    <mxGeometry relative="1" as="geometry">
                        <Array as="points">
                            <mxPoint x="994" y="30"/>
                            <mxPoint x="1190" y="30"/>
                            <mxPoint x="1190" y="-380"/>
                        </Array>
                    </mxGeometry>
                </mxCell>
                <mxCell id="I4GA6FvxCO8qQzgMiuPE-5" style="edgeStyle=orthogonalEdgeStyle;rounded=1;orthogonalLoop=1;jettySize=auto;html=1;opacity=30;" parent="1" source="RCJMpjR6mchD6mxSjPc7-14" target="I4GA6FvxCO8qQzgMiuPE-7" edge="1">
                    <mxGeometry relative="1" as="geometry">
                        <mxPoint x="1040" y="920" as="targetPoint"/>
                    </mxGeometry>
                </mxCell>
                <mxCell id="I4GA6FvxCO8qQzgMiuPE-6" value="&lt;div&gt;Export selected&lt;/div&gt;&lt;div&gt;data&lt;/div&gt;" style="edgeLabel;html=1;align=center;verticalAlign=middle;resizable=0;points=[];" parent="I4GA6FvxCO8qQzgMiuPE-5" vertex="1" connectable="0">
                    <mxGeometry x="-0.0262" y="1" relative="1" as="geometry">
                        <mxPoint x="-1" y="136" as="offset"/>
                    </mxGeometry>
                </mxCell>
                <mxCell id="I4GA6FvxCO8qQzgMiuPE-7" value="Security Operations Center" style="rounded=0;whiteSpace=wrap;html=1;opacity=30;" parent="1" vertex="1">
                    <mxGeometry x="980" y="920" width="120" height="60" as="geometry"/>
                </mxCell>
                <mxCell id="5" style="edgeStyle=orthogonalEdgeStyle;rounded=1;orthogonalLoop=1;jettySize=auto;html=1;entryX=0;entryY=0.5;entryDx=0;entryDy=0;exitX=0.864;exitY=0.838;exitDx=0;exitDy=0;exitPerimeter=0;" edge="1" parent="1" source="ZB_zEspCmlKGxQb4ixZx-6">
                    <mxGeometry relative="1" as="geometry">
                        <Array as="points">
                            <mxPoint x="1390" y="445"/>
                            <mxPoint x="1390" y="575"/>
                        </Array>
                        <mxPoint x="1260" y="440" as="sourcePoint"/>
                        <mxPoint x="1630" y="575" as="targetPoint"/>
                    </mxGeometry>
                </mxCell>
                <mxCell id="8" value="Discourse API" style="shape=image;verticalLabelPosition=bottom;labelBackgroundColor=none;verticalAlign=top;aspect=fixed;imageAspect=0;image=https://upload.wikimedia.org/wikipedia/commons/1/17/Discourse_icon.svg;" vertex="1" parent="1">
                    <mxGeometry x="1630" y="540" width="58.8" height="60" as="geometry"/>
                </mxCell>
            </root>
        </mxGraphModel>
    </diagram>
</mxfile>
